<?xml version="1.0" standalone="no"?>
<!DOCTYPE svg PUBLIC "-//W3C//DTD SVG 20010904//EN"
 "http://www.w3.org/TR/2001/REC-SVG-20010904/DTD/svg10.dtd">
<svg version="1.0" xmlns="http://www.w3.org/2000/svg"
 width="1827.000000pt" height="756.000000pt" viewBox="0 0 1827.000000 756.000000"
 preserveAspectRatio="xMidYMid meet">

<g transform="translate(0.000000,756.000000) scale(0.100000,-0.100000)"
fill="#000000" stroke="none">
<path d="M2040 4409 c-31 -13 -279 -21 -675 -23 -165 -1 -332 -3 -371 -4 l-71
-2 5 -88 c3 -59 1 -96 -7 -111 -9 -15 -9 -26 -2 -35 6 -7 9 -73 7 -170 -2
-166 1 -219 14 -211 5 3 7 64 5 135 -3 115 -1 131 14 143 10 6 21 27 24 45 6
30 5 32 -14 21 -18 -9 -20 -8 -17 8 2 12 13 18 30 19 28 1 98 47 98 65 0 5 7
9 15 9 8 0 15 -2 15 -4 0 -13 -31 -75 -43 -85 -13 -10 -23 -38 -32 -91 -1 -8
-10 -35 -19 -59 -30 -81 -63 -250 -36 -186 4 11 15 45 23 75 38 136 71 231 83
241 8 6 14 18 14 26 0 38 91 163 119 163 5 0 22 14 39 30 30 28 37 30 112 30
l81 0 -1 -57 c0 -32 0 -78 0 -103 0 -25 -6 -58 -12 -73 -9 -23 -8 -31 3 -38
11 -7 12 -12 1 -29 -10 -17 -10 -24 3 -44 10 -15 15 -42 14 -73 -1 -26 1 -58
5 -71 5 -14 3 -29 -5 -38 -9 -11 -9 -18 -1 -26 16 -16 15 -61 0 -77 -11 -10
-10 -15 4 -25 15 -11 17 -25 12 -96 -3 -46 -7 -87 -10 -91 -2 -4 0 -10 5 -13
10 -7 8 -316 -2 -333 -4 -7 -8 -32 -9 -57 0 -37 -6 -50 -37 -80 -47 -46 -83
-56 -198 -56 -55 0 -93 -4 -93 -10 0 -5 -1 -12 -2 -15 -2 -3 116 -7 262 -10
146 -3 346 -7 446 -10 171 -3 181 -2 192 16 7 11 10 23 8 28 -3 4 -53 11 -112
14 -83 5 -112 11 -134 27 -27 20 -28 22 -32 142 -2 68 -1 131 4 141 5 10 5 17
-1 17 -19 0 -23 41 -6 66 10 15 13 30 8 37 -5 7 -8 30 -6 52 10 183 14 293 13
365 -2 125 -10 427 -12 485 l-3 50 49 3 c61 4 98 -11 158 -62 33 -28 46 -46
42 -58 -4 -12 2 -17 23 -20 22 -2 33 -12 48 -45 11 -23 26 -42 33 -43 9 0 12
-10 10 -27 -2 -18 4 -34 15 -43 11 -9 23 -34 27 -55 13 -67 50 -208 62 -237
13 -34 26 -36 33 -5 10 49 21 383 13 394 -6 8 -3 25 8 49 13 28 15 39 6 42
-15 5 -15 35 0 50 9 9 8 12 -5 12 -14 0 -17 8 -15 36 2 37 -18 62 -36 44 -11
-11 -96 -2 -110 11 -13 11 -44 10 -76 -2z m-10 -45 c0 -9 3 -14 8 -12 4 2 19
10 35 17 56 29 37 -17 -20 -48 -34 -17 -45 -14 -37 11 6 20 5 21 -9 9 -19 -15
-51 -7 -45 11 4 11 32 23 61 27 4 1 7 -6 7 -15z m205 5 c9 -14 -24 -38 -52
-39 -15 0 -25 -8 -29 -24 -3 -13 -20 -34 -37 -47 -33 -24 -44 -24 -39 -2 2 7
-2 13 -8 13 -5 0 -10 7 -10 16 0 8 19 24 45 35 25 11 49 29 55 39 12 22 64 28
75 9z m-697 -5 c15 -5 21 -12 17 -22 -4 -12 -1 -12 19 2 14 9 32 16 40 16 19
0 30 -31 14 -42 -9 -5 -9 -8 -1 -8 6 0 25 14 42 31 42 41 65 36 69 -17 3 -40
1 -43 -55 -81 -32 -22 -60 -48 -61 -58 -4 -17 13 -35 33 -35 6 0 4 4 -4 9 -10
6 -2 16 32 40 25 17 49 31 53 31 3 0 4 -18 0 -41 -4 -26 -3 -38 4 -34 17 11
11 -17 -7 -31 -17 -13 -17 -15 4 -31 21 -17 22 -20 8 -47 -11 -20 -12 -33 -5
-40 20 -20 11 -44 -19 -51 -16 -3 -35 -13 -42 -21 -6 -8 -27 -14 -46 -14 -28
0 -34 -3 -31 -17 4 -18 9 -19 43 -8 19 6 19 6 2 -8 -13 -11 -15 -17 -6 -22 7
-5 16 -1 21 9 5 9 15 16 22 16 7 0 21 9 31 20 10 11 22 17 26 14 15 -9 10 -44
-5 -44 -8 0 -21 -6 -28 -14 -21 -20 -59 -30 -68 -17 -3 7 -14 9 -23 6 -16 -7
-17 -35 -2 -68 6 -14 -3 -29 -36 -65 -63 -66 -72 -73 -81 -59 -12 19 -10 25
27 58 19 18 32 36 29 41 -3 5 2 18 12 29 26 29 11 33 -20 4 -27 -25 -56 -33
-56 -16 0 5 21 28 48 51 46 40 46 41 17 36 -16 -2 -38 -8 -49 -12 -14 -5 -17
-3 -15 11 4 19 66 69 129 104 19 11 28 21 20 21 -9 1 -5 5 8 11 31 12 18 31
-16 22 -30 -7 -51 -30 -52 -55 0 -10 -6 -15 -18 -11 -10 2 -26 -5 -36 -16 -24
-26 -46 -27 -46 -2 0 12 16 29 43 44 23 14 53 37 66 51 14 14 31 26 38 26 8 0
16 7 19 15 4 8 13 15 22 15 12 0 13 3 4 12 -9 9 -17 7 -35 -10 -13 -12 -29
-22 -35 -22 -7 0 -12 -7 -12 -15 0 -8 -5 -15 -12 -15 -6 0 -19 -6 -27 -14 -9
-7 -28 -16 -43 -20 -23 -5 -28 -3 -28 12 0 10 6 24 12 30 10 10 10 15 1 20
-17 10 -11 81 7 94 13 8 13 9 -1 5 -12 -4 -15 0 -11 19 2 13 -1 30 -7 38 -9
10 -8 21 1 42 10 22 10 28 0 32 -6 2 -12 16 -12 32 0 36 21 46 68 34z m-528
-34 c0 -11 -4 -20 -9 -20 -5 0 -11 -9 -14 -20 -3 -11 -4 -20 -2 -20 2 0 31 18
64 40 33 22 65 40 71 40 26 0 -6 -45 -42 -59 -17 -6 -31 -23 -39 -45 -8 -22
-20 -36 -30 -36 -10 0 -24 -3 -33 -6 -11 -4 -16 0 -16 14 0 12 -5 24 -11 27
-6 5 -8 23 -4 49 9 53 11 56 41 56 17 0 24 -5 24 -20z m95 -60 c3 -5 -1 -10
-9 -10 -9 0 -16 5 -16 10 0 6 4 10 9 10 6 0 13 -4 16 -10z m1143 -95 c8 -7
-11 -31 -32 -41 -30 -14 -73 14 -63 41 6 14 15 16 50 10 23 -4 43 -8 45 -10z
m-28 -67 c0 -14 -30 -48 -42 -48 -13 0 -9 22 9 42 18 21 33 23 33 6z m31 -71
c-11 -28 -49 -43 -57 -22 -3 7 7 27 22 45 22 24 29 28 36 16 4 -8 4 -25 -1
-39z m-16 -86 c-8 -39 -21 -47 -35 -22 -8 17 -6 25 11 42 26 26 33 20 24 -20z
m13 -86 c2 -26 -13 -42 -23 -25 -7 12 3 50 13 50 4 0 9 -11 10 -25z m-498 -49
c0 -13 -13 -40 -30 -61 -36 -46 -39 -61 -6 -40 31 21 37 10 29 -54 -6 -52 -16
-66 -82 -111 -11 -8 -21 -19 -21 -25 0 -5 -12 -18 -28 -29 -15 -10 -36 -32
-47 -49 -11 -16 -31 -37 -44 -46 -23 -15 -23 -15 -16 17 4 21 3 32 -4 32 -16
0 -11 118 7 160 16 37 208 229 230 230 6 0 12 -11 12 -24z m-100 -10 c0 -3 -4
-8 -10 -11 -5 -3 -10 -1 -10 4 0 6 5 11 10 11 6 0 10 -2 10 -4z m80 -262 c0
-18 -24 -44 -40 -44 -26 0 -25 15 2 34 23 16 38 20 38 10z m-80 -74 c0 -5 -4
-10 -9 -10 -6 0 -13 5 -16 10 -3 6 1 10 9 10 9 0 16 -4 16 -10z m78 -25 c2
-16 -2 -47 -9 -69 -10 -31 -11 -40 -1 -44 17 -5 15 -33 -4 -60 -14 -21 -14
-22 5 -22 24 0 26 -8 9 -47 -17 -39 -62 -82 -133 -128 -33 -21 -78 -53 -99
-71 -59 -51 -77 -41 -23 11 43 41 62 85 37 85 -5 0 -10 6 -10 14 0 17 103 126
118 126 6 0 13 4 16 9 7 11 -45 1 -61 -11 -7 -6 -10 -15 -7 -20 4 -6 -2 -8
-14 -4 -14 5 -24 1 -31 -11 -7 -13 -13 -15 -21 -7 -19 19 0 62 36 85 19 11 34
24 34 28 0 4 11 14 25 21 29 15 33 30 8 30 -14 0 -14 2 2 20 10 11 13 20 7 20
-6 0 -18 -10 -26 -21 -16 -24 -76 -63 -83 -55 -8 8 48 69 87 95 21 14 36 19
38 12 6 -18 20 -13 49 19 32 36 47 34 51 -5z m14 -367 c5 -98 -8 -118 -73
-118 -27 0 -49 2 -49 5 0 12 56 54 73 55 9 0 17 5 17 11 0 6 -9 9 -20 6 -11
-3 -22 -1 -25 4 -3 5 -22 -6 -41 -23 -32 -30 -84 -58 -105 -58 -24 0 -3 29 44
60 28 19 69 47 89 63 33 25 38 26 46 11 6 -11 11 -13 16 -5 4 6 0 14 -8 17
-19 7 -21 30 -3 37 31 13 35 6 39 -65z m38 -96 c0 -13 -12 -22 -22 -16 -10 6
-1 24 13 24 5 0 9 -4 9 -8z"/>
<path d="M1680 4302 c-14 -9 -28 -21 -32 -27 -4 -5 -8 -6 -8 -1 0 6 -6 1 -14
-10 -8 -10 -13 -21 -11 -23 6 -5 95 61 95 71 0 10 0 10 -30 -10z"/>
<path d="M1519 4243 c-13 -16 -12 -17 4 -4 9 7 17 15 17 17 0 8 -8 3 -21 -13z"/>
<path d="M1561 4208 c-14 -23 -14 -23 8 -4 22 20 25 26 13 26 -4 0 -13 -10
-21 -22z"/>
<path d="M1550 4119 c0 -5 5 -7 10 -4 6 3 10 8 10 11 0 2 -4 4 -10 4 -5 0 -10
-5 -10 -11z"/>
<path d="M1517 4096 c-22 -17 -22 -26 2 -26 23 0 33 11 23 27 -5 8 -12 8 -25
-1z"/>
<path d="M1695 4070 c-3 -5 -1 -10 4 -10 6 0 11 5 11 10 0 6 -2 10 -4 10 -3 0
-8 -4 -11 -10z"/>
<path d="M1610 3160 c8 -5 20 -10 25 -10 6 0 3 5 -5 10 -8 5 -19 10 -25 10 -5
0 -3 -5 5 -10z"/>
<path d="M11495 4393 c-101 -6 -116 -11 -109 -37 5 -23 -32 -150 -61 -207 -8
-15 -15 -40 -15 -55 0 -15 -6 -35 -13 -43 -15 -18 -28 -57 -52 -151 -9 -36
-21 -74 -25 -85 -5 -11 -14 -42 -20 -70 -6 -27 -24 -90 -40 -140 -16 -49 -38
-123 -50 -162 -13 -40 -27 -73 -32 -73 -4 0 -13 12 -18 28 -6 15 -15 35 -20
44 -6 10 -10 26 -10 37 0 10 -7 21 -14 24 -18 7 -57 89 -87 182 -12 39 -26 78
-30 87 -5 10 -9 27 -9 37 0 11 -5 23 -10 26 -6 3 -7 17 -4 29 4 16 0 25 -10
29 -9 4 -16 15 -16 26 0 11 -9 36 -20 56 -11 20 -20 43 -20 52 0 19 -18 79
-31 105 -5 10 -6 24 -3 33 4 9 -1 24 -11 35 -11 13 -15 28 -11 44 4 16 1 26
-9 30 -11 4 -15 20 -15 56 l0 50 -197 0 c-109 1 -244 3 -300 6 -73 4 -103 3
-103 -5 0 -15 33 -27 106 -40 50 -9 65 -17 96 -51 71 -79 82 -116 84 -285 1
-82 7 -204 12 -270 6 -66 14 -165 17 -220 3 -55 11 -158 16 -229 14 -169 8
-207 -42 -261 -49 -53 -73 -62 -172 -68 -81 -4 -101 -11 -77 -28 10 -7 60 -8
140 -3 69 4 186 8 260 9 74 1 145 5 158 9 30 10 23 32 -9 29 -77 -8 -96 -6
-130 17 -62 41 -70 66 -90 275 -9 105 -22 231 -28 280 -5 50 -13 189 -16 310
-4 121 -8 249 -10 285 -2 65 2 100 14 100 3 0 21 -31 40 -68 23 -47 31 -76 27
-90 -5 -16 -3 -22 8 -22 17 0 29 -30 21 -52 -4 -9 1 -18 10 -22 12 -4 14 -10
5 -25 -13 -26 -13 -31 5 -31 8 0 16 -6 17 -12 0 -7 2 -18 2 -24 1 -6 7 -18 14
-27 20 -23 41 -123 42 -190 0 -40 3 -56 11 -51 15 9 29 -14 29 -48 0 -18 5
-28 14 -28 15 0 32 -37 23 -47 -3 -3 5 -24 19 -48 13 -24 24 -52 24 -61 0 -10
9 -28 21 -40 17 -18 19 -26 9 -43 -9 -17 -8 -22 4 -27 15 -6 66 -88 66 -105 0
-5 8 -28 18 -52 36 -81 62 -152 62 -169 0 -13 19 -28 34 -28 2 0 6 22 9 50 6
51 26 118 82 275 18 50 45 131 60 180 16 50 39 122 52 160 12 39 29 95 37 125
31 118 68 246 82 277 8 17 17 52 20 77 4 25 13 51 20 57 8 6 14 19 14 28 0 23
12 37 38 45 19 6 22 4 22 -17 0 -16 -7 -26 -20 -30 -31 -8 -24 -27 10 -27 32
0 33 -1 35 -130 0 -19 3 -40 8 -47 9 -15 1 -116 -12 -140 -6 -12 -6 -25 0 -35
10 -18 6 -199 -5 -217 -4 -6 -3 -27 3 -47 7 -24 7 -73 0 -148 -6 -61 -10 -144
-10 -183 0 -53 -5 -77 -16 -89 -13 -13 -14 -17 -3 -24 11 -7 11 -15 -1 -46
-12 -31 -21 -39 -59 -51 -25 -7 -70 -17 -100 -21 -66 -9 -68 -28 -2 -25 152 4
284 13 293 18 5 4 15 2 22 -3 14 -12 339 6 434 24 53 10 35 30 -23 24 -27 -3
-88 -5 -136 -5 -121 0 -123 2 -125 156 0 66 -4 123 -7 126 -7 7 3 54 15 69 5
6 4 15 -1 20 -6 6 -6 22 -1 42 5 17 6 34 2 37 -5 2 -5 24 -1 47 5 24 11 115
15 203 5 107 12 167 21 182 11 18 11 22 -2 27 -14 5 -15 26 -12 145 3 120 6
142 22 160 17 19 17 21 3 21 -19 0 -21 20 -7 71 15 55 48 71 147 73 68 1 83 4
81 16 -3 13 -36 15 -223 16 -121 0 -242 -1 -270 -3z m5 -40 c0 -8 -47 -33 -62
-33 -22 0 -4 29 20 33 15 2 30 5 35 6 4 0 7 -2 7 -6z m-1120 -13 c0 -5 -9 -10
-20 -10 -11 0 -20 5 -20 10 0 6 9 10 20 10 11 0 20 -4 20 -10z m1220 0 c0 -6
-12 -15 -27 -21 -17 -7 -23 -13 -15 -16 7 -3 24 2 37 11 25 16 65 22 65 9 0
-16 -53 -61 -66 -56 -8 3 -14 0 -14 -5 0 -10 -19 -20 -93 -51 -37 -15 -36 -16
-34 24 3 42 27 73 67 87 17 5 30 14 30 19 0 5 11 9 25 9 14 0 25 -5 25 -10z
m-1115 -10 c-3 -5 -12 -10 -18 -10 -7 0 -6 4 3 10 19 12 23 12 15 0z m1259 1
c3 -5 -1 -12 -10 -15 -20 -8 -29 -1 -19 13 8 13 22 14 29 2z m-1044 -67 c-10
-11 -9 -14 4 -14 13 0 16 -5 11 -20 -4 -12 -2 -20 5 -20 7 0 9 -7 6 -15 -3 -9
0 -18 8 -21 9 -3 12 -19 10 -48 -3 -32 0 -45 11 -50 22 -8 19 -21 -7 -33 -22
-10 -22 -10 10 -17 35 -8 42 -29 15 -45 -10 -6 -12 -11 -5 -11 24 0 11 -30
-20 -46 -18 -9 -44 -25 -57 -35 -28 -23 -41 -24 -41 -5 0 8 -7 22 -16 31 -14
14 -15 18 0 39 14 23 14 24 -5 19 -15 -4 -18 -2 -12 12 4 13 3 16 -5 11 -7 -4
-12 -1 -12 8 0 8 16 24 35 36 32 20 43 39 29 52 -3 3 -17 -5 -31 -18 -32 -30
-63 -32 -63 -4 0 11 4 20 9 20 5 0 12 11 15 25 3 13 19 31 34 39 15 9 22 15
16 16 -5 0 -25 -11 -44 -25 -19 -14 -40 -25 -47 -25 -24 0 -13 29 22 55 19 15
37 36 40 46 5 14 12 18 25 14 10 -3 21 -1 25 5 3 5 0 10 -7 10 -7 0 -2 9 12
20 14 10 26 24 26 29 3 24 7 25 11 3 3 -13 -1 -30 -7 -38z m1035 27 c3 -5 1
-12 -5 -16 -5 -3 -7 -17 -4 -30 3 -12 1 -26 -4 -29 -7 -4 -7 -18 -1 -41 8 -29
8 -74 -1 -226 0 -4 -11 -10 -25 -13 -14 -4 -23 -11 -20 -15 9 -16 -7 -42 -31
-52 -13 -4 -24 -15 -24 -23 0 -7 -13 -16 -28 -19 -15 -3 -42 -19 -60 -36 -27
-27 -62 -41 -62 -26 0 14 25 55 34 55 6 0 23 11 38 25 15 14 30 25 34 25 15 0
65 43 61 53 -4 14 21 41 46 50 26 10 20 27 -10 27 -31 0 -64 -26 -56 -45 5
-14 -53 -74 -72 -75 -6 0 -19 -10 -29 -21 -13 -16 -20 -18 -29 -9 -9 8 -3 19
26 46 41 38 47 55 17 47 -11 -3 -20 -9 -20 -14 0 -5 -7 -9 -15 -9 -10 0 -15
10 -15 28 1 27 6 33 84 86 29 19 35 27 23 32 -17 6 -63 -20 -71 -42 -6 -14
-37 -19 -49 -7 -16 15 57 95 79 86 13 -5 27 24 19 38 -6 9 -23 -2 -52 -32 -9
-10 -25 -14 -40 -11 -21 4 -24 9 -18 31 6 27 56 81 74 81 16 0 105 49 116 64
17 22 79 33 90 17z m-1155 -14 c0 -7 -13 -23 -29 -35 -28 -21 -29 -21 -46 -2
-14 16 -15 21 -3 34 16 19 78 21 78 3z m825 -36 c3 -5 1 -12 -5 -16 -5 -3 -10
1 -10 9 0 18 6 21 15 7z m-851 -46 c-4 -8 -8 -15 -10 -15 -2 0 -4 7 -4 15 0 8
4 15 10 15 5 0 7 -7 4 -15z m216 -305 c0 -5 -7 -10 -15 -10 -8 0 -15 5 -15 10
0 6 7 10 15 10 8 0 15 -4 15 -10z m50 4 c0 -4 -8 -13 -17 -21 -16 -12 -15 -13
11 -7 26 6 27 5 17 -13 -5 -11 -7 -24 -3 -28 4 -3 3 -5 -3 -3 -5 2 -10 -1 -10
-7 0 -5 6 -9 13 -9 6 1 12 -4 12 -11 0 -7 7 -16 16 -19 8 -3 12 -10 9 -16 -3
-5 -1 -10 4 -10 6 0 11 -9 11 -19 0 -11 4 -21 10 -23 5 -1 10 -18 12 -36 1
-19 6 -36 10 -38 15 -9 8 -20 -24 -38 -31 -19 -31 -19 -9 -28 13 -4 30 -4 40
2 18 9 31 4 31 -11 0 -4 -18 -16 -41 -27 -40 -20 -41 -20 -36 -1 7 27 2 25
-51 -27 -37 -36 -48 -42 -50 -29 -2 9 1 22 6 27 12 12 -2 30 -30 41 -21 7 -23
28 -7 44 9 9 5 14 -15 19 -26 6 -36 36 -16 49 6 3 10 13 10 22 0 12 -3 13 -13
4 -8 -6 -17 -8 -20 -5 -7 8 14 54 25 54 4 0 8 5 8 10 0 7 -7 7 -20 0 -32 -17
-43 -2 -23 31 10 16 22 29 28 29 5 0 16 9 23 20 7 11 21 20 32 20 11 0 20 5
20 11 0 5 -4 7 -10 4 -20 -13 -9 14 12 29 24 17 38 20 38 10z m-107 -54 c-32
-31 -53 -38 -53 -20 0 11 59 50 75 50 6 0 -4 -14 -22 -30z m935 -42 c-2 -16
-11 -24 -28 -26 -13 -2 -38 -17 -54 -33 -16 -16 -35 -29 -42 -29 -6 0 -17 -7
-24 -15 -8 -10 -17 -12 -23 -6 -14 14 -3 26 70 81 73 55 106 64 101 28z m59 0
c1 -12 -3 -28 -9 -35 -8 -10 -7 -12 6 -7 24 9 21 -33 -3 -46 -27 -14 -30 -13
-24 10 8 32 -12 24 -77 -32 -118 -101 -120 -102 -133 -89 -9 9 3 25 52 71 34
33 68 60 75 60 7 0 23 11 36 25 13 14 31 25 41 25 10 0 21 5 24 10 3 6 -1 10
-10 10 -9 0 -13 5 -10 10 11 18 31 11 32 -12z m-17 -129 c0 -5 -6 -9 -13 -9
-7 0 -18 -10 -26 -22 l-14 -22 28 18 c30 19 50 11 39 -17 -6 -16 -33 -22 -77
-17 -10 1 -42 -19 -72 -44 -52 -45 -85 -58 -85 -34 0 17 99 106 140 126 19 9
41 22 48 29 14 14 32 9 32 -8z m-73 -124 c-27 -19 -21 -35 7 -22 13 6 22 17
19 23 -5 13 24 27 38 18 11 -7 11 -45 0 -63 -6 -9 -5 -21 2 -32 8 -13 8 -21
-2 -32 -9 -12 -9 -16 0 -19 9 -3 9 -9 0 -25 -6 -12 -8 -24 -3 -27 4 -2 5 -28
2 -57 -5 -49 -8 -55 -49 -76 -1 -1 3 -11 11 -22 8 -12 18 -18 21 -14 4 3 7 2
7 -4 0 -6 -10 -17 -22 -25 -25 -17 -15 -43 17 -43 28 0 25 -29 -2 -33 -13 -2
-23 -7 -23 -12 0 -5 10 -10 23 -12 15 -2 23 -11 25 -30 4 -34 -21 -49 -103
-61 -99 -14 -100 -14 -98 6 1 15 -4 17 -22 13 -19 -5 -22 -3 -18 13 2 10 18
28 34 40 36 27 39 50 3 26 -32 -21 -41 -13 -25 21 6 14 9 41 5 58 -5 29 -1 36
28 60 18 14 38 31 45 36 7 6 18 10 25 11 9 0 9 2 1 5 -6 3 -30 -4 -52 -15 -22
-12 -43 -21 -47 -21 -15 0 8 66 29 82 l22 18 -25 -3 c-24 -2 -25 0 -26 55 0
52 3 61 30 87 52 50 121 99 130 93 5 -3 2 -10 -7 -17z m-659 -45 c17 0 15 -20
-3 -26 -8 -4 -15 -12 -15 -20 0 -8 -10 -14 -22 -15 -13 0 -18 -3 -11 -5 7 -3
10 -11 7 -19 -8 -21 35 -6 49 16 12 19 47 27 47 10 0 -4 -27 -27 -60 -50 -68
-48 -88 -71 -36 -42 20 11 43 18 51 15 9 -4 24 1 35 11 29 26 49 13 46 -29 -2
-22 1 -33 7 -29 6 4 8 -1 4 -13 -3 -10 -12 -41 -20 -69 -29 -100 -64 -189 -75
-193 -7 -2 -22 17 -33 43 -18 41 -19 48 -6 63 13 14 13 19 1 30 -7 6 -20 12
-29 12 -9 0 -15 9 -15 23 0 17 14 33 50 58 48 33 70 60 31 40 -10 -6 -21 -8
-24 -5 -3 4 -18 -3 -33 -15 -15 -11 -33 -21 -40 -21 -23 0 -28 23 -8 37 16 12
17 15 4 23 -8 5 -21 10 -27 10 -18 0 -16 25 2 40 8 7 15 16 15 21 0 5 -7 9
-15 9 -8 0 -15 -4 -15 -10 0 -19 -21 -10 -29 13 -7 17 -4 24 10 29 11 4 22 14
25 23 4 8 11 15 18 15 6 0 25 11 41 24 26 21 32 23 46 10 8 -8 21 -14 27 -14z"/>
<path d="M10675 4200 c-3 -5 -2 -10 4 -10 5 0 13 5 16 10 3 6 2 10 -4 10 -5 0
-13 -4 -16 -10z"/>
<path d="M10659 4149 l-24 -20 28 17 c15 9 27 18 27 20 0 8 -8 4 -31 -17z"/>
<path d="M10687 4114 c-10 -11 4 -33 18 -28 8 3 11 12 8 20 -5 15 -16 18 -26
8z"/>
<path d="M10697 3989 c7 -7 15 -10 18 -7 3 3 -2 9 -12 12 -14 6 -15 5 -6 -5z"/>
<path d="M11612 4182 c-51 -46 -39 -50 38 -14 47 23 46 22 30 32 -23 15 -34
12 -68 -18z"/>
<path d="M11578 3953 c7 -3 16 -2 19 1 4 3 -2 6 -13 5 -11 0 -14 -3 -6 -6z"/>
<path d="M10780 3779 c0 -5 5 -7 10 -4 6 3 10 8 10 11 0 2 -4 4 -10 4 -5 0
-10 -5 -10 -11z"/>
<path d="M10785 3730 c-3 -5 -1 -10 4 -10 6 0 11 5 11 10 0 6 -2 10 -4 10 -3
0 -8 -4 -11 -10z"/>
<path d="M10730 3694 c0 -14 3 -15 18 -3 9 7 19 15 21 16 2 2 -5 3 -17 3 -14
0 -22 -6 -22 -16z"/>
<path d="M10786 3625 c-11 -8 -15 -15 -9 -15 6 0 16 7 23 15 16 19 11 19 -14
0z"/>
<path d="M10825 3550 c-3 -5 -1 -10 4 -10 6 0 11 5 11 10 0 6 -2 10 -4 10 -3
0 -8 -4 -11 -10z"/>
<path d="M11544 3475 c-9 -22 1 -29 15 -11 8 10 9 16 1 21 -5 3 -13 -1 -16
-10z"/>
<path d="M11540 3359 c0 -5 5 -7 10 -4 6 3 10 8 10 11 0 2 -4 4 -10 4 -5 0
-10 -5 -10 -11z"/>
<path d="M11588 3306 c-10 -7 -18 -16 -18 -19 0 -9 33 5 48 20 19 18 -6 17
-30 -1z"/>
<path d="M11575 3219 c-4 -6 -5 -13 -2 -16 7 -7 27 6 27 18 0 12 -17 12 -25
-2z"/>
<path d="M11580 3140 c-8 -5 -11 -12 -8 -16 10 -9 38 3 38 16 0 12 -10 13 -30
0z"/>
<path d="M11535 3100 c-8 -13 5 -13 25 0 13 8 13 10 -2 10 -9 0 -20 -4 -23
-10z"/>
<path d="M11574 3069 c-3 -6 -22 -17 -40 -25 -19 -8 -34 -19 -34 -24 0 -13 27
-13 36 1 3 6 20 19 36 29 16 10 25 21 20 24 -6 4 -14 1 -18 -5z"/>
<path d="M11000 3330 c-13 -8 -12 -10 3 -10 9 0 17 5 17 10 0 12 -1 12 -20 0z"/>
<path d="M11005 3280 c-10 -11 -14 -20 -8 -20 5 0 18 9 28 20 10 11 14 20 8
20 -5 0 -18 -9 -28 -20z"/>
<path d="M8224 4380 c-11 -4 -124 -7 -252 -6 -215 1 -232 0 -232 -16 0 -14 9
-18 43 -19 75 -3 119 -1 157 5 58 9 67 -5 81 -123 6 -57 9 -128 6 -157 -3 -30
-2 -68 3 -86 5 -18 11 -73 14 -121 5 -109 -5 -117 -64 -53 -26 28 -56 50 -79
56 -126 35 -244 -22 -373 -182 -15 -18 -39 -46 -53 -63 -22 -25 -26 -36 -21
-68 5 -26 1 -48 -13 -75 -14 -28 -16 -41 -8 -54 8 -12 7 -21 -3 -33 -17 -21
-17 -94 0 -105 9 -6 14 -28 15 -62 0 -38 5 -57 18 -66 9 -7 17 -19 17 -26 0
-7 17 -32 38 -56 20 -24 51 -68 67 -99 25 -46 35 -57 60 -59 17 -2 38 -11 48
-20 24 -21 114 -23 183 -4 55 16 139 83 178 144 10 15 22 25 27 22 12 -7 11
-121 -1 -129 -27 -17 5 -20 190 -22 l200 -2 0 24 c0 26 -17 35 -64 35 -31 0
-90 35 -108 62 -4 7 -7 51 -7 98 0 47 -3 117 -6 155 -19 185 -21 370 -6 389 8
9 7 18 -3 32 -10 13 -11 23 -4 31 6 7 8 23 5 35 -3 11 -2 29 4 39 6 11 5 20
-1 24 -6 3 -8 16 -5 28 3 12 7 54 9 93 2 40 7 77 11 84 11 17 6 306 -5 336
-10 25 -29 29 -66 14z m-141 -58 c-2 -10 26 -5 68 13 10 3 20 2 24 -4 5 -9
-32 -32 -57 -35 -3 -1 -10 -4 -14 -8 -13 -13 -20 -9 -32 17 -15 33 -15 38 1
32 6 -2 11 -9 10 -15z m167 -2 c0 -12 -28 -25 -36 -17 -9 9 6 27 22 27 8 0 14
-5 14 -10z m-70 -30 c0 -11 -33 -30 -51 -30 -8 0 -5 7 6 20 19 21 45 27 45 10z
m51 -51 c-26 -25 -27 -32 -1 -24 15 5 20 2 20 -14 0 -11 -7 -26 -15 -35 -14
-13 -14 -16 1 -24 21 -11 11 -49 -15 -57 -11 -3 -21 -14 -23 -23 -4 -15 0 -17
26 -14 28 5 29 4 13 -12 -10 -10 -27 -15 -44 -13 -15 2 -35 0 -45 -4 -13 -7
-14 -13 -5 -34 13 -27 27 -33 27 -12 0 7 15 18 33 25 43 16 50 15 43 -3 -3 -8
-1 -26 4 -39 7 -19 4 -30 -11 -50 -11 -14 -27 -26 -34 -26 -8 0 -17 -5 -21
-12 -5 -8 2 -9 25 -5 23 5 33 3 38 -8 6 -18 -37 -86 -52 -82 -5 2 -15 -1 -22
-7 -44 -39 -44 -39 -68 -26 -43 23 -38 46 18 87 46 34 49 38 29 41 -13 2 -31
-3 -40 -11 -19 -16 -42 -12 -42 6 0 7 16 23 34 35 23 16 33 29 29 39 -5 14 -9
13 -24 -5 -17 -22 -38 -29 -40 -14 -10 66 -8 77 18 103 43 41 54 57 44 63 -5
3 -14 0 -20 -8 -16 -19 -54 -8 -45 13 4 9 7 29 6 44 -1 20 6 32 27 45 15 9 26
22 24 28 -2 6 16 17 39 25 24 7 52 25 63 38 18 22 20 23 23 7 2 -10 -6 -27
-17 -37z m-304 -410 c34 -12 72 -57 73 -83 0 -11 12 -38 27 -59 26 -37 28 -48
29 -141 0 -56 6 -110 12 -122 6 -11 11 -40 11 -65 0 -24 0 -51 1 -59 0 -8 -2
-49 -5 -90 -7 -91 -35 -155 -100 -227 -47 -53 -47 -53 -108 -53 -61 0 -61 0
-109 52 -47 50 -59 80 -38 93 15 9 12 25 -5 25 -9 0 -16 10 -16 23 -3 42 -6
65 -13 82 -3 10 -1 24 5 31 6 7 7 19 3 26 -20 31 -6 318 16 360 5 10 7 24 4
33 -4 10 2 24 15 36 12 11 19 24 16 29 -7 11 21 78 42 102 19 21 94 25 140 7z
m-231 -94 c-27 -39 -58 -67 -91 -79 -13 -6 -16 -10 -7 -13 7 -3 17 -13 22 -23
8 -15 6 -22 -11 -31 -19 -10 -21 -9 -16 5 5 12 0 16 -23 16 -39 0 -40 26 -2
43 31 14 92 74 92 91 0 14 54 48 58 37 2 -5 -8 -25 -22 -46z m514 -16 c0 -7 8
-17 17 -24 28 -21 0 -45 -53 -45 -24 0 -44 -4 -44 -10 0 -14 -38 -12 -42 2 -6
18 3 58 13 58 5 0 9 -5 9 -11 0 -6 10 -9 23 -7 12 2 22 10 22 18 0 8 9 18 20
22 30 9 35 9 35 -3z m-553 -96 c-9 -9 -19 -14 -23 -11 -10 10 6 28 24 28 15 0
15 -1 -1 -17z m581 -2 c8 -25 -8 -59 -33 -65 -14 -4 -25 -11 -25 -17 0 -6 7
-8 15 -5 8 3 22 9 30 12 12 5 15 -5 13 -57 0 -35 -5 -74 -10 -87 -5 -15 -4
-21 2 -17 6 4 10 -8 10 -29 0 -27 -4 -36 -17 -36 -14 0 -13 -3 5 -23 17 -18
22 -36 22 -79 l0 -56 -47 -26 c-46 -26 -46 -26 -64 -7 -23 24 -17 44 17 60 31
14 29 45 -4 49 -28 4 -29 19 -1 27 22 7 22 36 0 43 -9 3 -11 0 -5 -9 6 -12 5
-12 -8 -1 -13 10 -16 26 -13 63 2 27 6 53 10 59 3 5 -1 10 -10 10 -9 0 -14 4
-11 9 13 21 15 82 3 87 -17 6 -16 47 2 68 10 12 23 15 40 12 22 -5 23 -4 9 4
-10 6 -18 15 -18 20 0 13 83 5 88 -9z m-570 -65 c2 -22 -3 -47 -12 -60 -10
-16 -11 -27 -4 -34 14 -14 -16 -57 -55 -76 -45 -22 -85 -56 -68 -56 8 0 22 6
30 14 16 14 88 56 96 56 3 0 5 -8 5 -18 0 -22 -26 -48 -55 -55 -19 -4 -18 -5
2 -6 12 0 25 4 28 9 3 6 10 10 16 10 13 0 11 -97 -2 -105 -6 -5 -4 -12 8 -20
17 -13 17 -14 -1 -34 -17 -19 -17 -21 -3 -21 20 0 23 -26 5 -33 -10 -3 -10 -8
1 -21 12 -14 11 -20 -9 -41 -13 -14 -20 -28 -17 -32 4 -3 7 -1 7 6 0 18 54 9
58 -10 2 -12 -6 -16 -40 -16 -24 0 -51 -4 -60 -8 -13 -5 -18 -3 -18 9 0 9 4
16 8 16 4 0 15 16 24 35 l16 36 -29 6 c-30 6 -40 23 -14 23 8 0 15 7 15 16 0
10 -6 14 -15 10 -18 -6 -20 16 -4 45 10 19 9 19 -10 9 -12 -6 -21 -17 -21 -25
0 -19 -21 -19 -45 -1 -19 14 -19 16 -2 50 9 20 22 36 28 36 15 0 7 43 -10 48
-8 3 -11 0 -7 -6 3 -5 -5 -17 -19 -26 -29 -19 -45 -3 -22 22 9 9 19 30 23 45
3 16 14 31 23 34 24 9 55 43 38 43 -7 0 -18 -5 -24 -11 -15 -15 -63 0 -63 20
0 9 18 34 41 55 38 34 39 38 20 43 -12 3 -21 8 -21 12 1 13 28 41 41 41 10 0
10 -3 1 -12 -16 -16 -15 -38 1 -38 7 0 31 13 53 30 21 16 44 28 49 26 6 -1 11
-19 13 -40z m582 -454 c0 -4 3 -17 6 -29 5 -18 2 -23 -14 -23 -11 0 -36 -7
-55 -15 -34 -14 -37 -14 -48 6 -9 18 -8 20 9 15 24 -8 41 12 21 25 -12 8 -12
10 0 18 16 10 81 12 81 3z m-672 -39 c2 -8 -5 -13 -17 -13 -12 0 -21 6 -21 16
0 18 31 15 38 -3z m148 -74 c8 -14 -4 -25 -38 -33 -21 -5 -28 -3 -28 8 0 27
52 47 66 25z m484 -10 c-13 -22 -37 -35 -48 -24 -7 7 34 45 49 45 6 0 5 -9 -1
-21z m60 1 c0 -5 -5 -10 -11 -10 -5 0 -7 5 -4 10 3 6 8 10 11 10 2 0 4 -4 4
-10z m-485 -50 c32 -12 24 -30 -15 -30 -28 0 -49 25 -27 34 7 2 13 5 14 5 1 1
14 -3 28 -9z"/>
<path d="M8155 4206 c-23 -16 -5 -29 25 -18 18 7 19 10 8 20 -11 9 -19 9 -33
-2z"/>
<path d="M8153 3375 c-3 -9 -3 -19 1 -22 9 -10 58 16 51 27 -10 16 -45 12 -52
-5z"/>
<path d="M8190 3280 c0 -5 5 -10 10 -10 6 0 10 5 10 10 0 6 -4 10 -10 10 -5 0
-10 -4 -10 -10z"/>
<path d="M13960 4381 c-9 -5 -120 -9 -249 -8 -128 1 -235 -2 -238 -6 -3 -5 -1
-13 3 -17 13 -13 142 -18 191 -8 65 14 79 1 88 -79 4 -37 9 -115 10 -173 1
-58 5 -156 10 -217 9 -132 5 -137 -58 -67 -45 48 -83 63 -166 64 -59 0 -168
-58 -221 -119 -23 -25 -52 -58 -66 -74 -72 -79 -78 -88 -75 -133 1 -24 -5 -56
-13 -72 -8 -16 -12 -39 -9 -51 3 -11 1 -27 -4 -34 -14 -17 -10 -92 5 -110 13
-15 20 -93 9 -103 -3 -4 5 -15 18 -26 14 -11 25 -26 25 -34 0 -8 16 -31 35
-53 28 -31 32 -40 20 -45 -29 -11 -16 -86 16 -86 21 0 24 16 9 54 -16 43 -1
29 23 -21 18 -40 28 -49 52 -51 17 -2 37 -9 45 -16 36 -32 99 -34 190 -9 43
12 68 28 113 72 32 31 63 66 68 79 5 12 13 22 18 22 15 0 25 -104 12 -128 -6
-11 -11 -22 -11 -24 0 -2 90 -4 200 -5 184 -1 200 0 200 16 0 27 -21 41 -64
41 -32 1 -50 8 -80 34 l-38 33 -4 129 c-2 71 -8 190 -13 264 -8 128 -6 219 4
248 3 7 0 22 -5 33 -6 11 -8 24 -4 30 4 6 8 59 10 118 4 98 10 186 15 186 1 0
3 61 5 135 6 195 -13 247 -76 211z m-131 -53 c15 -9 26 -9 47 1 17 7 31 8 37
2 6 -6 -8 -17 -39 -30 -50 -22 -57 -21 -69 17 -7 25 -3 27 24 10z m161 -7 c0
-12 -39 -25 -48 -16 -7 7 17 25 36 25 6 0 12 -4 12 -9z m-75 -31 c7 -11 -42
-37 -51 -27 -9 9 15 37 32 37 7 0 16 -4 19 -10z m75 -25 c0 -9 -6 -18 -14 -21
-23 -9 -28 -33 -5 -27 24 7 27 -28 3 -48 -14 -12 -14 -14 0 -25 20 -14 12 -38
-20 -59 -34 -22 -32 -44 4 -37 25 5 26 4 13 -12 -11 -13 -23 -16 -45 -12 -45
8 -59 -4 -43 -37 13 -28 27 -36 27 -14 0 7 16 19 36 26 38 14 55 8 36 -11 -8
-8 -9 -15 -1 -25 18 -21 1 -61 -31 -78 -38 -20 -38 -29 0 -21 26 5 30 2 30
-15 0 -22 -36 -74 -50 -74 -5 0 -20 -10 -35 -23 -33 -29 -55 -25 -75 11 -14
26 -14 29 10 48 14 11 35 24 48 29 12 5 22 16 22 24 0 17 -41 9 -53 -11 -6
-10 -13 -11 -28 -2 -20 10 -20 12 -4 30 10 10 26 21 36 24 11 4 19 13 19 22 0
10 -6 13 -16 9 -9 -3 -18 -6 -20 -6 -3 0 -2 -4 1 -10 3 -5 -3 -10 -14 -10 -18
0 -21 6 -21 50 0 43 4 52 23 61 12 5 27 21 34 34 11 26 5 33 -13 15 -6 -6 -17
-8 -25 -5 -14 5 -15 16 -10 98 1 4 15 13 32 19 22 7 27 14 20 21 -8 8 2 15 31
25 24 8 49 23 56 33 16 23 42 25 42 4z m-329 -435 c39 -11 64 -40 75 -86 4
-16 15 -39 26 -50 26 -29 46 -153 30 -188 -10 -22 -2 -67 19 -101 7 -11 4
-148 -5 -233 -7 -66 -44 -139 -100 -198 -43 -44 -46 -46 -98 -43 -70 3 -87 12
-125 64 -34 45 -41 69 -23 80 17 11 11 25 -11 25 -13 0 -19 5 -16 13 2 7 1 35
-3 62 -4 28 -4 57 1 66 4 9 5 20 1 23 -21 22 -5 357 19 372 4 2 6 11 2 20 -3
8 1 22 10 32 8 9 17 33 21 52 3 19 15 50 26 68 18 29 24 32 67 32 27 0 64 -5
84 -10z m-201 -48 c0 -18 -63 -92 -95 -112 -31 -19 -33 -23 -20 -37 13 -12 18
-13 31 -3 8 7 17 10 21 7 7 -8 -37 -46 -54 -47 -7 0 -12 5 -10 12 1 8 -9 11
-31 9 -31 -2 -33 -1 -23 17 6 12 20 24 32 27 21 7 88 74 89 88 0 10 41 46 53
47 4 0 7 -4 7 -8z m490 -63 c0 -7 8 -17 17 -24 28 -21 0 -45 -53 -45 -23 0
-46 -4 -49 -10 -3 -5 -15 -10 -26 -10 -15 0 -19 7 -19 35 0 36 8 43 27 24 15
-15 56 -1 49 16 -4 13 10 21 42 24 6 0 12 -4 12 -10z m-24 -90 c4 -8 9 -8 17
0 15 15 24 14 31 -5 10 -27 -3 -53 -36 -70 -16 -8 -28 -18 -25 -21 3 -2 15 1
27 7 32 17 41 -2 35 -73 -4 -67 -18 -89 -49 -81 -14 3 -28 -1 -36 -11 -22 -26
-1 -31 40 -8 44 24 50 21 50 -20 0 -22 -4 -28 -15 -23 -21 8 -19 -7 4 -28 14
-12 19 -32 20 -75 l1 -58 -45 -24 c-25 -13 -45 -26 -45 -29 0 -3 19 -5 42 -5
39 0 43 -2 46 -27 3 -23 -1 -28 -20 -28 -13 -1 -34 -7 -48 -15 -33 -19 -37
-19 -43 5 -4 17 -2 20 14 15 10 -4 19 -2 19 4 0 17 -33 81 -42 81 -19 0 -6 30
21 46 32 19 32 54 0 54 -23 0 -25 18 -4 26 16 7 21 44 5 44 -5 0 -7 -8 -3 -17
4 -13 1 -12 -11 4 -16 21 -16 98 -1 123 3 5 -1 10 -9 10 -16 0 -22 21 -9 34
11 11 11 50 0 58 -6 3 -11 17 -13 31 -3 33 27 61 58 52 20 -5 20 -4 6 5 -10 6
-18 15 -18 20 0 14 27 13 36 -1z m-524 -80 c-2 -24 -8 -49 -14 -56 -5 -7 -7
-17 -3 -23 14 -22 -5 -55 -42 -75 -21 -11 -40 -23 -43 -26 -3 -3 -15 -11 -27
-18 -15 -7 -23 -21 -23 -36 0 -16 -6 -25 -15 -25 -8 0 -15 -5 -15 -12 0 -9 -3
-9 -11 -1 -9 9 -6 19 10 39 11 15 21 35 21 45 0 11 4 19 8 19 5 0 22 11 38 25
29 25 20 34 -15 16 -28 -16 -63 -2 -59 23 3 23 165 159 183 153 5 -2 9 -23 7
-48z m-120 16 c-2 -14 -11 -25 -18 -25 -17 0 -18 22 -2 38 19 19 26 14 20 -13z
m116 -182 c-2 -10 -18 -27 -36 -39 -18 -13 -29 -25 -24 -28 5 -3 18 1 28 9 10
8 22 15 26 15 8 0 2 -86 -7 -100 -4 -6 -1 -18 6 -26 10 -12 10 -20 1 -35 -10
-16 -9 -19 3 -19 20 0 19 -9 -2 -33 -17 -18 -17 -19 1 -29 17 -9 16 -11 -4
-25 -14 -10 -25 -12 -32 -5 -6 6 -6 12 1 16 21 13 11 26 -21 26 -30 1 -31 2
-15 14 21 16 23 48 2 40 -17 -7 -19 9 -5 37 6 10 7 19 3 19 -14 0 -29 -14 -36
-32 -7 -19 -27 -25 -27 -8 0 6 -7 10 -16 10 -13 0 -15 6 -9 27 9 37 23 53 41
46 8 -3 14 0 14 6 0 6 -4 11 -10 11 -5 0 -7 6 -4 14 3 8 0 17 -6 21 -11 7 4
20 50 41 8 4 17 10 20 13 8 9 44 30 53 30 5 1 7 -7 5 -16z m-88 -319 c0 -9 -5
-14 -12 -12 -18 6 -21 28 -4 28 9 0 16 -7 16 -16z m58 -26 c9 -9 12 -9 12 0 0
7 8 12 18 12 17 0 42 -18 42 -30 0 -3 -20 -5 -45 -4 -25 1 -48 -2 -51 -7 -7
-12 -24 -11 -24 1 0 12 21 39 31 40 3 0 10 -5 17 -12z m572 -67 c-6 -12 -17
-21 -25 -21 -21 0 -19 10 7 37 25 26 36 16 18 -16z m-486 23 c25 -9 19 -21
-15 -33 -40 -14 -39 -14 -39 4 0 7 8 19 18 24 21 13 17 12 36 5z m556 -14 c0
-5 -5 -10 -11 -10 -5 0 -7 5 -4 10 3 6 8 10 11 10 2 0 4 -4 4 -10z m-472 -68
c5 -15 -54 -16 -64 -1 -3 6 -1 15 6 19 16 10 52 -2 58 -18z"/>
<path d="M13890 4205 c-17 -20 -6 -31 21 -19 18 8 19 11 6 22 -11 10 -17 9
-27 -3z"/>
<path d="M13930 3280 c0 -5 5 -10 10 -10 6 0 10 5 10 10 0 6 -4 10 -10 10 -5
0 -10 -4 -10 -10z"/>
<path d="M13320 3439 c0 -5 5 -7 10 -4 6 3 10 8 10 11 0 2 -4 4 -10 4 -5 0
-10 -5 -10 -11z"/>
<path d="M3423 4337 c-7 -12 -5 -13 77 -26 41 -7 81 -18 89 -26 17 -17 24 -77
24 -225 1 -125 -2 -150 -22 -174 -11 -14 -11 -16 3 -16 22 0 23 -92 1 -110
-20 -16 -19 -30 1 -30 14 0 16 -10 12 -64 -2 -42 -10 -71 -21 -84 -23 -25 -22
-35 3 -27 15 5 20 2 20 -13 0 -11 -7 -25 -15 -32 -19 -15 -19 -30 -1 -30 10 0
14 -39 18 -187 6 -245 1 -290 -35 -317 -17 -13 -44 -21 -76 -22 -51 -1 -71 -9
-71 -25 0 -11 33 -10 260 11 106 9 138 8 210 -5 90 -17 168 -17 420 4 113 10
147 9 209 -4 88 -18 128 -19 160 -2 46 23 34 33 -46 36 -46 1 -87 8 -100 17
-12 8 -31 14 -42 14 -10 0 -22 7 -25 16 -10 26 -7 69 6 82 8 8 8 15 -1 26 -10
12 -9 21 5 46 10 16 22 30 26 30 4 0 8 7 8 15 0 8 -8 15 -18 15 -28 0 -34 11
-17 36 13 21 13 24 -3 33 -16 9 -16 12 2 46 18 33 18 36 2 48 -15 11 -18 39
-21 240 -3 187 -1 229 11 241 16 16 19 36 5 36 -4 0 -11 39 -14 87 -5 73 -4
90 10 106 15 16 15 19 3 27 -8 5 -15 24 -15 42 0 43 -17 48 -28 9 -4 -17 -12
-31 -17 -31 -6 0 -10 -4 -10 -10 0 -5 7 -7 15 -4 8 4 15 2 15 -4 0 -17 -27
-63 -50 -84 -12 -11 -19 -23 -15 -26 3 -3 12 4 21 16 8 12 22 22 30 22 20 0
18 -40 -3 -56 -17 -13 -17 -14 5 -20 30 -9 28 -30 -5 -43 -55 -23 -118 -59
-119 -67 0 -5 -4 -17 -9 -27 -15 -34 3 -28 56 21 65 59 99 74 99 42 0 -12 -9
-24 -22 -30 -13 -5 -18 -9 -13 -10 6 0 4 -4 -4 -9 -8 -5 -16 -16 -17 -25 -2
-13 2 -14 18 -5 11 6 23 8 26 4 9 -9 -54 -65 -74 -65 -16 0 -16 -1 1 -14 16
-12 21 -11 39 5 11 11 23 19 28 19 14 0 9 -60 -6 -66 -17 -7 -10 -34 7 -31 8
1 12 -24 12 -81 0 -77 -2 -85 -25 -104 l-25 -21 28 7 c39 9 35 -11 -12 -54
-41 -37 -88 -52 -77 -24 4 9 -7 5 -26 -11 -29 -24 -32 -25 -41 -9 -8 14 -3 23
23 46 36 29 36 38 1 41 -25 2 -27 16 -6 43 19 25 19 42 -1 61 -14 15 -13 18
13 39 27 22 27 23 4 17 -20 -5 -23 -3 -18 11 4 9 3 14 -2 11 -5 -3 -13 0 -16
6 -4 6 11 29 34 51 42 42 49 69 8 30 -39 -36 -67 -21 -32 18 15 16 10 60 -6
60 -17 0 -9 62 11 91 21 28 21 28 1 41 -16 10 -18 16 -9 32 14 26 49 55 67 56
11 0 11 3 1 15 -10 12 -8 19 11 36 19 16 20 18 4 10 -11 -5 -33 -23 -49 -40
-17 -17 -33 -31 -38 -31 -16 0 -8 49 11 62 10 7 19 17 19 23 0 5 9 12 19 16
17 7 17 8 -2 8 -16 1 -13 7 18 32 21 17 36 34 33 36 -3 3 -24 -11 -47 -31 -42
-36 -59 -44 -59 -28 0 17 57 60 95 72 22 7 50 17 62 23 11 5 26 7 31 3 11 -7
22 25 22 67 l0 27 -75 1 c-273 2 -345 1 -347 -7 -2 -5 30 -14 71 -21 45 -7 81
-19 92 -30 21 -22 39 -127 29 -163 -4 -14 -4 -48 1 -75 8 -52 -7 -155 -23
-155 -4 0 -8 -4 -8 -10 0 -5 7 -10 15 -10 20 0 20 -65 0 -104 -10 -18 -12 -32
-6 -36 6 -3 13 -24 16 -46 6 -37 0 -59 -33 -128 -2 -4 5 -5 17 -1 25 8 28 -10
6 -39 -19 -25 -19 -36 0 -36 12 0 15 -24 16 -147 1 -82 1 -168 2 -193 1 -94
-6 -134 -29 -157 -25 -25 -90 -40 -113 -26 -9 5 -47 11 -86 12 -38 1 -83 9
-99 17 -16 8 -35 14 -43 14 -23 0 -38 47 -26 80 6 15 8 40 6 54 -4 18 3 35 22
58 l28 33 -26 3 c-29 4 -35 20 -15 40 9 9 7 16 -6 31 -17 19 -17 21 0 51 16
27 17 32 4 40 -8 5 -16 24 -17 42 -1 18 -2 40 -3 48 -1 8 -1 69 -1 135 0 66
-2 145 -4 174 -3 39 1 63 13 83 12 20 13 31 6 36 -6 4 -14 46 -16 94 -5 70 -3
89 10 102 15 14 15 17 -2 29 -14 10 -15 18 -7 39 7 20 7 29 -3 37 -16 13 -26
4 -26 -22 0 -11 -8 -29 -17 -39 -16 -18 -16 -18 0 -12 33 12 13 -55 -25 -84
-10 -7 -18 -17 -18 -23 0 -5 9 0 20 11 39 39 66 18 34 -28 -14 -20 -14 -23 0
-28 25 -10 19 -31 -14 -44 -16 -7 -35 -18 -41 -26 -6 -8 -20 -14 -30 -14 -20
0 -49 -36 -49 -62 0 -13 14 -4 53 32 47 44 92 69 104 56 8 -8 -8 -46 -18 -46
-16 0 -41 -29 -34 -39 3 -6 12 -8 20 -4 8 3 15 1 15 -4 0 -12 -50 -59 -70 -66
-9 -3 -5 -6 10 -6 15 -1 32 5 38 11 10 10 15 10 22 -2 14 -21 12 -36 -5 -54
-19 -18 -20 -37 -1 -30 16 6 29 -22 19 -39 -4 -7 -6 -35 -5 -62 3 -40 -1 -56
-19 -79 l-22 -28 21 6 c33 11 29 -29 -5 -51 -16 -10 -31 -22 -35 -27 -9 -14
-46 -18 -53 -6 -4 6 -17 2 -33 -11 l-27 -21 -3 23 c-3 16 4 29 22 42 33 24 33
37 1 37 -30 0 -31 12 -4 56 18 30 19 35 5 40 -22 8 -20 23 7 53 12 14 15 20 6
13 -14 -10 -19 -8 -34 14 -17 26 -17 26 24 67 42 41 49 68 8 29 -13 -12 -29
-22 -35 -22 -16 0 -15 25 2 39 14 12 10 57 -5 67 -16 10 -9 55 12 86 l21 29
-21 6 c-17 4 -20 10 -15 27 7 24 52 65 72 66 9 0 10 4 1 18 -11 18 -13 17 -35
-5 -13 -13 -28 -23 -34 -23 -18 0 -11 49 10 62 11 7 20 21 20 30 0 10 17 33
38 53 20 19 31 35 24 35 -7 0 -15 -7 -18 -15 -7 -17 -74 -58 -82 -50 -9 8 50
61 77 70 19 6 21 9 10 16 -11 8 -8 15 16 35 17 14 42 32 58 40 22 12 27 12 27
1 0 -18 -29 -44 -54 -48 -27 -5 -33 -29 -7 -29 11 0 23 5 26 10 3 6 17 10 29
10 18 0 25 7 29 26 11 57 2 64 -82 65 -42 0 -134 1 -204 2 -71 1 -131 -2 -134
-6z m212 -27 c3 -5 -3 -10 -14 -10 -12 0 -21 5 -21 10 0 6 6 10 14 10 8 0 18
-4 21 -10z m110 -6 c-35 -27 -75 -45 -75 -34 0 13 60 50 80 50 11 -1 10 -4 -5
-16z m515 6 c0 -5 -6 -10 -14 -10 -8 0 -18 5 -21 10 -3 6 3 10 14 10 12 0 21
-4 21 -10z m130 5 c0 -8 -82 -47 -87 -41 -7 6 58 46 75 46 6 0 12 -2 12 -5z
m51 -23 c-6 -11 -23 -25 -38 -31 -16 -6 -38 -18 -50 -27 -13 -9 -23 -12 -23
-6 0 17 109 97 118 87 2 -2 -1 -12 -7 -23z m-621 -889 c0 -11 -20 -29 -50 -46
-28 -16 -50 -23 -50 -18 0 17 -18 13 -40 -9 -11 -11 -26 -20 -32 -20 -7 0 5
16 27 35 22 19 45 33 52 30 6 -2 26 7 44 21 39 29 49 30 49 7z m630 -7 c0 -7
-21 -23 -47 -37 -64 -32 -67 -33 -59 -20 12 18 -13 12 -36 -9 -12 -11 -25 -20
-30 -20 -14 0 4 29 22 35 10 3 21 13 24 21 4 9 13 13 24 10 11 -4 32 4 51 19
34 24 51 25 51 1z m-630 -50 c0 -7 -7 -19 -15 -26 -19 -16 -19 -34 0 -27 20 8
28 -8 10 -23 -8 -7 -15 -18 -15 -24 -1 -18 -81 -51 -89 -37 -5 8 -13 5 -26 -9
-25 -27 -32 -25 -40 10 -5 23 -1 37 21 64 16 19 39 38 53 41 13 3 36 15 49 26
29 22 52 25 52 5z m630 2 c0 -6 -10 -23 -22 -36 l-23 -25 23 6 c46 11 15 -43
-42 -74 -43 -23 -46 -23 -46 -4 0 10 -8 6 -25 -10 -32 -33 -45 -31 -45 6 0 38
42 95 77 104 15 3 38 15 51 26 28 21 52 25 52 7z m-630 -126 c0 -4 -5 -13 -12
-20 -7 -7 -16 -12 -20 -12 -13 0 -9 28 5 33 19 8 27 8 27 -1z m628 -4 c-6 -16
-36 -34 -44 -25 -9 9 15 37 33 37 8 0 13 -5 11 -12z m-628 -47 c0 -10 -40 -51
-99 -101 -37 -32 -53 -60 -33 -60 4 0 28 20 52 45 38 38 80 59 80 39 0 -15
-36 -64 -47 -64 -7 0 -22 -13 -35 -30 -18 -26 -28 -30 -66 -30 l-45 0 6 42 c4
31 15 50 41 74 20 18 45 35 56 39 11 3 20 10 20 15 0 5 12 15 28 23 33 18 42
20 42 8z m630 1 c0 -10 -19 -29 -98 -99 -34 -30 -49 -50 -43 -56 6 -6 27 7 57
37 45 43 84 60 84 35 0 -11 -68 -79 -80 -79 -4 0 -10 -9 -13 -20 -4 -16 -14
-20 -51 -20 l-46 0 0 40 c0 50 10 60 149 152 29 20 41 22 41 10z m-770 -40 c0
-4 -5 -13 -12 -20 -18 -18 -28 -15 -28 8 0 13 7 20 20 20 11 0 20 -4 20 -8z
m620 -6 c0 -7 -7 -19 -15 -26 -13 -11 -15 -8 -15 14 0 16 5 26 15 26 8 0 15
-6 15 -14z m-486 -131 c4 -11 -1 -15 -19 -15 -26 0 -34 15 -12 23 20 9 25 8
31 -8z m624 -3 c2 -7 -6 -12 -17 -12 -21 0 -27 11 -14 24 9 9 26 2 31 -12z"/>
<path d="M3734 3248 l-19 -23 25 20 c14 11 27 21 29 22 2 2 0 3 -6 3 -5 0 -18
-10 -29 -22z"/>
<path d="M4361 3248 c-14 -23 -14 -23 8 -4 22 20 25 26 13 26 -4 0 -13 -10
-21 -22z"/>
<path d="M11028 4107 c7 -8 7 -18 2 -27 -16 -25 -11 -45 19 -90 33 -49 93 -90
133 -90 51 0 73 79 42 146 -23 48 -64 67 -131 62 -29 -3 -53 -1 -53 4 0 4 -5
8 -11 8 -8 0 -8 -4 -1 -13z"/>
<path d="M3720 4100 c-13 -8 -13 -10 2 -10 9 0 20 5 23 10 8 13 -5 13 -25 0z"/>
<path d="M8940 3903 c-64 -7 -154 -43 -199 -78 -24 -19 -47 -35 -51 -35 -9 0
-70 -95 -70 -109 0 -5 -9 -19 -21 -29 -11 -11 -22 -37 -25 -58 -3 -22 -9 -55
-14 -74 -5 -19 -12 -66 -16 -103 -4 -37 -10 -70 -15 -73 -9 -5 -4 -24 14 -61
6 -13 8 -26 4 -29 -3 -4 3 -24 13 -45 11 -21 20 -47 20 -57 0 -27 28 -79 45
-86 8 -3 15 -11 15 -19 0 -15 110 -106 160 -132 80 -42 235 -26 368 37 46 21
75 45 112 89 29 34 50 70 50 83 0 13 6 36 14 51 16 31 11 103 -10 124 -11 12
-16 12 -29 1 -14 -11 -15 -26 -10 -87 7 -66 5 -78 -19 -126 -16 -35 -41 -64
-69 -84 -53 -38 -191 -78 -239 -69 -42 8 -138 97 -138 129 0 12 -7 33 -16 45
-9 13 -14 33 -10 45 3 11 0 27 -6 35 -18 21 -22 173 -6 184 7 5 101 8 208 8
232 0 233 0 287 6 l42 5 7 56 c10 81 -11 185 -55 267 -43 81 -112 136 -200
161 -31 8 -64 20 -73 25 -10 6 -21 9 -25 8 -5 0 -24 -3 -43 -5z m87 -49 c33
-9 60 -61 68 -132 4 -34 11 -64 16 -67 4 -3 3 -17 -3 -31 -9 -20 -9 -27 1 -33
8 -5 13 -38 14 -97 l2 -89 -173 -3 c-154 -2 -173 -1 -179 14 -12 32 16 214 37
244 11 15 20 33 20 39 0 6 5 11 10 11 6 0 10 11 10 24 0 14 5 28 10 31 6 3 10
15 10 26 0 10 5 19 11 19 6 0 24 11 41 25 29 25 62 30 105 19z m96 -10 c9 -10
-4 -34 -19 -34 -8 0 -14 2 -14 4 0 2 -3 11 -6 20 -4 11 0 16 13 16 11 0 22 -3
26 -6z m-348 -55 c-48 -49 -94 -83 -102 -76 -9 10 38 67 76 92 57 37 69 29 26
-16z m421 -19 c8 0 14 -4 14 -10 0 -5 7 -7 16 -3 12 4 15 1 12 -13 -2 -10 -13
-20 -25 -22 -12 -2 -33 -15 -47 -29 -29 -29 -31 -29 -40 9 -5 21 -1 30 15 42
12 8 18 19 15 24 -3 6 0 12 6 15 7 2 15 0 16 -4 2 -5 10 -9 18 -9z m-426 -38
c0 -5 -10 -14 -22 -21 -21 -10 -21 -11 -2 -6 19 5 21 1 20 -42 -1 -27 -5 -54
-10 -61 -4 -7 -5 -23 -2 -36 6 -24 -1 -30 -76 -60 -46 -18 -54 -56 -13 -56 14
0 25 -4 25 -10 0 -5 7 -7 15 -4 8 4 15 12 15 20 0 7 -6 11 -14 8 -8 -3 -17 -1
-21 5 -3 6 -1 11 5 11 6 0 9 4 5 9 -7 12 31 25 45 16 16 -10 12 -72 -5 -79
-18 -7 -20 -47 -2 -43 7 1 13 -12 15 -37 3 -33 -1 -43 -32 -71 -20 -18 -44
-36 -53 -40 -15 -5 -15 -7 -3 -15 10 -7 11 -10 3 -10 -7 0 -13 -6 -13 -14 0
-7 -9 -16 -20 -19 -13 -3 -20 0 -20 8 0 7 -5 15 -12 17 -19 7 -25 55 -16 133
2 18 -3 35 -11 41 -13 10 -13 15 0 35 11 16 13 33 8 52 -8 31 7 96 26 112 8 5
15 21 17 35 2 16 11 26 28 30 18 4 25 13 25 30 0 17 11 30 40 46 45 25 55 28
55 16z m494 -56 c-4 -18 -1 -25 15 -29 30 -7 26 -22 -14 -53 -19 -14 -32 -31
-29 -36 6 -10 -31 -47 -68 -68 -14 -8 -18 -7 -18 5 0 9 16 25 35 37 38 22 42
38 5 18 -41 -22 -41 -4 1 38 51 50 49 65 -3 18 -20 -19 -39 -31 -42 -28 -14
14 -3 30 39 56 24 16 42 33 38 38 -6 11 14 28 35 28 8 0 10 -8 6 -24z m50
-115 c3 -5 -10 -18 -30 -30 -42 -25 -44 -25 -44 -6 0 8 12 21 28 29 32 18 39
19 46 7z m-9 -118 c-8 -34 -21 -43 -62 -43 -50 0 -48 17 4 44 61 32 67 32 58
-1z m21 -230 c-11 -11 -17 4 -9 23 7 18 8 18 11 1 2 -10 1 -21 -2 -24z m-566
-22 c0 -4 -14 -18 -31 -30 -43 -32 -63 -12 -23 22 25 22 54 26 54 8z m8 -50
c7 -4 15 -20 16 -35 2 -14 11 -35 20 -45 9 -9 16 -27 16 -39 0 -12 4 -22 8
-22 4 0 28 -18 52 -40 32 -29 39 -40 25 -38 -11 2 -27 8 -35 13 -8 5 -35 12
-60 15 -34 4 -47 10 -55 27 -5 13 -14 22 -20 22 -42 -5 -56 28 -23 53 l23 18
-43 0 c-31 0 -42 4 -38 13 3 6 9 20 12 30 4 10 12 16 20 13 7 -3 18 2 24 10
14 16 38 18 58 5z"/>
<path d="M8610 3410 c0 -11 7 -20 15 -20 13 0 14 4 5 20 -6 11 -13 20 -15 20
-3 0 -5 -9 -5 -20z"/>
<path d="M14653 3899 c-59 -10 -140 -46 -198 -88 -38 -28 -53 -47 -91 -116 -9
-16 -24 -38 -33 -49 -17 -19 -35 -103 -47 -216 -4 -36 -10 -69 -14 -75 -10
-12 10 -107 33 -159 10 -22 15 -47 12 -56 -3 -11 1 -20 10 -24 8 -3 15 -12 15
-19 0 -8 9 -22 20 -32 11 -10 20 -24 20 -32 0 -7 4 -13 9 -13 6 0 22 -11 36
-24 14 -13 50 -41 80 -61 44 -31 65 -38 118 -42 60 -5 192 16 236 37 79 37 99
49 125 75 17 17 38 40 46 50 56 74 81 223 41 244 -34 19 -53 -24 -40 -92 13
-72 -10 -136 -69 -186 -55 -48 -153 -84 -227 -85 -44 -1 -56 4 -98 39 -51 42
-77 81 -77 115 0 11 -4 20 -9 20 -13 0 -20 35 -10 53 6 10 4 17 -7 21 -12 4
-15 14 -11 34 3 15 1 48 -4 74 -8 33 -7 53 1 68 11 21 17 21 218 21 114 0 218
0 232 0 67 -1 85 8 98 49 6 22 12 51 12 66 0 51 -42 189 -71 232 -16 24 -29
47 -29 51 0 16 -125 88 -175 101 -27 7 -54 17 -59 21 -11 10 -21 10 -93 -2z
m111 -49 c30 -11 67 -66 65 -95 -1 -11 1 -27 4 -35 12 -33 17 -99 7 -105 -15
-9 -12 -25 5 -25 10 0 15 -10 15 -32 0 -18 0 -45 1 -60 0 -16 0 -44 -1 -63
l-2 -35 -170 1 c-195 0 -193 -1 -177 99 5 30 10 71 11 90 2 33 39 107 61 121
5 4 7 11 4 16 -4 6 0 19 8 29 8 10 15 27 15 37 0 9 6 17 14 17 8 0 16 7 20 15
11 30 74 43 120 25z m94 -22 c5 -25 -25 -23 -38 3 -10 18 -9 20 12 17 12 -2
24 -11 26 -20z m-348 -43 c-42 -42 -100 -83 -100 -70 0 16 39 61 74 86 62 46
78 36 26 -16z m442 -22 c29 -13 29 -43 0 -43 -8 0 -30 -11 -48 -25 l-32 -24
-6 25 c-5 17 -2 32 9 43 8 10 15 22 15 28 0 13 23 23 30 14 3 -4 17 -12 32
-18z m-452 -32 c0 -5 -16 -19 -36 -31 -19 -12 -33 -24 -30 -27 2 -3 18 5 35
18 17 12 32 21 35 18 6 -7 -16 -164 -25 -175 -5 -7 -23 -14 -39 -17 -55 -12
-89 -67 -40 -67 10 0 20 -6 23 -12 3 -10 10 -8 23 5 18 16 18 17 -4 17 -12 0
-22 5 -22 10 0 6 5 10 11 10 5 0 8 4 5 9 -6 8 15 21 35 21 17 0 10 -78 -7 -88
-12 -7 -14 -14 -7 -27 5 -9 14 -15 19 -13 5 1 10 -14 12 -35 3 -32 -2 -42 -33
-71 -20 -19 -43 -37 -51 -40 -8 -3 -12 -10 -9 -16 3 -5 1 -10 -5 -10 -7 0 -10
-7 -6 -15 3 -8 1 -15 -3 -15 -5 0 -17 -3 -25 -6 -12 -5 -15 -2 -10 10 4 10 1
16 -9 16 -14 0 -34 70 -27 95 16 62 17 75 4 75 -18 0 -18 21 0 45 10 14 11 26
4 46 -11 32 4 100 27 119 8 7 15 21 15 32 0 12 11 23 30 29 21 8 29 16 27 32
-1 15 9 27 38 44 46 26 45 26 45 14z m504 -56 c-5 -19 -2 -25 10 -25 26 0 18
-28 -14 -52 -21 -15 -28 -27 -24 -40 3 -10 1 -18 -5 -18 -5 0 -24 -13 -42 -30
-18 -16 -36 -27 -40 -24 -14 8 1 29 39 52 20 13 28 20 17 16 -50 -17 -55 -17
-49 -1 3 9 21 28 40 42 19 14 34 31 34 36 0 6 -17 -3 -37 -20 -36 -30 -63 -40
-63 -23 0 14 43 49 68 57 14 4 21 12 18 21 -5 14 19 33 42 34 8 0 10 -8 6 -25z
m46 -117 c0 -13 -53 -48 -70 -48 -17 0 3 31 29 45 33 18 41 18 41 3z m-6 -115
c-9 -36 -21 -44 -64 -41 -45 4 -43 17 6 45 53 30 66 29 58 -4z m22 -230 c-11
-11 -19 6 -11 24 8 17 8 17 12 0 3 -10 2 -21 -1 -24z m-576 -24 c0 -14 -41
-48 -57 -49 -21 0 -15 20 14 45 27 23 43 24 43 4z m18 -51 c5 -7 13 -27 16
-45 4 -17 14 -37 22 -44 8 -6 14 -19 14 -28 1 -9 23 -34 50 -56 31 -25 44 -41
35 -43 -8 -2 -25 4 -37 12 -12 9 -39 16 -60 16 -39 0 -67 20 -69 48 0 10 -3
12 -6 5 -3 -9 -10 -10 -24 -3 -23 13 -25 38 -4 46 28 11 15 24 -25 24 -40 0
-53 13 -25 24 8 3 15 12 15 20 0 9 6 13 13 10 8 -3 20 2 27 11 15 18 44 20 58
3z"/>
<path d="M14345 3420 c-4 -6 -2 -17 4 -23 15 -15 25 -2 13 19 -7 12 -11 13
-17 4z"/>
<path d="M15815 3883 c-11 -3 -57 -21 -103 -40 -95 -40 -118 -38 -108 9 l6 31
-62 -7 c-211 -22 -272 -27 -292 -22 -30 7 -66 -4 -66 -20 0 -10 14 -14 48 -14
42 0 52 -4 84 -37 39 -42 68 -92 68 -120 0 -10 -7 -29 -16 -42 -14 -19 -14
-25 -3 -32 11 -6 11 -14 0 -44 -8 -24 -9 -40 -3 -48 7 -8 6 -24 -3 -49 -19
-57 -26 -98 -15 -98 17 0 10 -54 -10 -80 -24 -31 -25 -36 -2 -42 14 -4 17 -15
16 -70 -1 -42 -8 -75 -18 -91 -11 -16 -15 -34 -11 -50 8 -32 -6 -40 -104 -60
-40 -9 -76 -18 -79 -22 -19 -18 46 -25 258 -25 129 0 279 -3 334 -7 93 -6 98
-5 94 13 -3 17 -13 19 -86 20 -97 1 -123 17 -141 89 -16 64 -14 98 9 123 11
12 20 26 20 32 0 5 -9 10 -20 10 -29 0 -26 38 6 71 27 28 25 61 -2 38 -8 -6
-14 -10 -14 -8 -6 83 -4 362 3 366 5 3 7 16 4 30 -9 51 144 169 210 161 39 -4
38 -22 -2 -44 -68 -36 -83 -115 -35 -182 37 -49 56 -57 107 -43 77 21 119 74
107 136 -3 20 -10 38 -15 41 -5 3 -9 15 -9 28 0 28 -43 69 -94 90 -21 9 -39
15 -40 15 0 -1 -10 -3 -21 -6z m-235 -38 c0 -10 -10 -15 -32 -15 -31 1 -32 1
-14 15 25 19 46 19 46 0z m-145 -15 c4 -6 -8 -10 -29 -10 -19 0 -41 -3 -50 -6
-9 -3 -16 -1 -16 4 0 19 84 30 95 12z m93 -32 c-6 -18 -28 -21 -28 -4 0 9 7
16 16 16 9 0 14 -5 12 -12z m-81 -45 c-7 -38 1 -57 19 -42 8 6 14 17 14 24 0
14 70 46 83 38 11 -7 -12 -43 -29 -43 -19 0 -36 -42 -20 -53 19 -13 -23 -36
-65 -35 -33 0 -40 4 -45 24 -4 13 -1 31 5 38 9 11 9 15 -1 19 -10 4 -8 10 6
21 11 9 16 16 10 16 -8 0 16 19 25 20 2 0 1 -12 -2 -27z m518 -3 c10 -32 -3
-73 -36 -113 -26 -31 -37 -37 -69 -37 -44 0 -61 17 -37 35 10 7 17 20 17 28 0
9 15 23 33 31 47 21 71 41 63 55 -6 9 -11 9 -21 1 -8 -7 -15 -7 -19 -1 -7 11
9 19 41 20 13 1 24 -7 28 -19z m-155 -79 c0 -14 -18 -23 -30 -16 -6 4 -8 11
-5 16 8 12 35 12 35 0z m-252 -73 c-2 -24 -10 -36 -30 -46 -16 -7 -28 -18 -28
-23 0 -6 5 -7 10 -4 14 9 13 -8 -2 -23 -14 -14 -42 -16 -33 -2 8 13 4 13 -39
-5 -30 -13 -37 -13 -42 -2 -7 19 13 67 29 67 7 0 37 16 67 35 30 19 59 35 63
35 5 0 7 -15 5 -32z m-121 -4 c-3 -3 -12 -4 -19 -1 -8 3 -5 6 6 6 11 1 17 -2
13 -5z m143 -105 c0 -5 -20 -18 -45 -30 -25 -12 -45 -27 -45 -35 0 -8 -17 -33
-37 -56 l-38 -43 35 28 c119 94 130 99 130 52 0 -21 -53 -70 -120 -110 -9 -6
-15 -16 -12 -23 2 -6 -2 -12 -9 -12 -7 0 -10 -3 -7 -6 4 -3 33 15 65 40 32 25
62 46 66 46 5 0 7 -15 5 -32 -2 -23 -11 -36 -28 -45 -14 -7 -18 -13 -10 -13 8
0 21 -14 29 -31 12 -27 11 -32 -6 -48 -11 -10 -29 -24 -42 -30 -16 -9 -20 -16
-12 -25 13 -15 4 -26 -21 -26 -10 0 -18 -3 -18 -8 0 -13 -39 -32 -45 -22 -3 5
9 17 27 26 29 15 30 18 14 24 -16 5 -11 12 32 46 28 21 51 42 52 47 1 17 -22
4 -82 -47 -34 -30 -66 -52 -70 -50 -22 14 -4 47 42 80 28 20 48 39 45 42 -2 3
-13 -2 -23 -11 -23 -21 -32 -21 -32 -2 0 9 -6 12 -15 9 -18 -7 -21 21 -4 32 8
4 7 9 -2 15 -10 6 -9 12 5 28 17 19 17 21 3 21 -11 0 -17 8 -17 24 0 17 12 31
43 51 23 14 34 24 25 21 -31 -9 -28 10 5 34 65 49 117 66 117 39z m-10 -389
c0 -5 -7 -10 -15 -10 -8 0 -15 5 -15 10 0 6 7 10 15 10 8 0 15 -4 15 -10z m-1
-46 c1 -1 0 -7 -4 -13 -4 -7 -22 -9 -45 -5 -30 5 -45 2 -68 -15 -17 -11 -35
-21 -41 -21 -22 0 -10 16 32 42 33 21 50 25 82 21 22 -3 42 -7 44 -9z m4 -48
c6 -15 -36 -31 -54 -21 -5 4 -29 -5 -54 -19 -24 -14 -48 -26 -54 -26 -21 0
-11 29 12 36 12 3 29 12 37 19 30 25 105 33 113 11z"/>
<path d="M6023 3848 c-37 -41 -107 -157 -128 -218 -19 -52 -14 -140 11 -205 8
-22 17 -48 21 -57 3 -10 13 -18 23 -18 10 0 25 -7 34 -15 8 -8 28 -15 45 -15
16 0 67 -9 113 -21 46 -11 106 -25 133 -31 28 -5 56 -15 64 -21 7 -6 23 -16
34 -22 48 -24 75 -122 55 -203 -12 -50 -59 -96 -117 -113 -34 -10 -47 -9 -98
11 -113 43 -182 80 -199 105 -9 14 -23 60 -31 103 -15 78 -61 190 -72 175 -27
-33 -55 -363 -32 -377 5 -3 20 8 32 26 13 18 28 36 34 40 23 17 61 6 111 -33
72 -55 142 -80 224 -80 69 0 100 10 165 52 49 32 68 54 88 99 18 41 30 173 17
186 -5 5 -11 35 -13 67 -4 45 -10 62 -26 73 -11 8 -21 21 -21 28 0 8 -7 17
-16 20 -8 3 -12 11 -9 17 4 6 -2 13 -13 16 -11 3 -18 11 -16 18 4 9 -15 14
-67 17 -52 4 -74 10 -81 22 -7 12 -24 16 -66 16 -32 0 -66 6 -77 13 -11 8 -35
17 -54 21 -18 3 -48 15 -67 26 -63 40 -54 141 20 225 50 56 93 66 179 41 70
-20 106 -50 140 -118 15 -29 43 -71 62 -93 29 -33 36 -38 45 -25 6 8 8 29 4
45 -7 37 -7 71 2 160 l6 70 -24 -23 c-14 -12 -42 -31 -63 -42 l-37 -19 -33 24
c-47 37 -139 65 -210 65 -56 0 -64 -3 -92 -32z m417 -133 c0 -8 -4 -15 -10
-15 -5 0 -10 7 -10 15 0 8 5 15 10 15 6 0 10 -7 10 -15z m-465 -175 c-3 -5
-11 -10 -16 -10 -6 0 -7 5 -4 10 3 6 11 10 16 10 6 0 7 -4 4 -10z m45 -30 c0
-5 -5 -10 -11 -10 -5 0 -7 5 -4 10 3 6 8 10 11 10 2 0 4 -4 4 -10z m15 -20
c-3 -5 3 -10 14 -10 11 0 23 5 26 10 9 14 58 13 73 -2 21 -21 13 -38 -18 -45
-17 -3 -33 -10 -36 -14 -9 -16 20 -10 60 12 21 11 45 18 54 16 11 -2 -3 -14
-38 -30 -41 -20 -64 -25 -91 -21 -22 4 -39 2 -43 -5 -10 -16 -51 -14 -66 4 -6
8 -9 19 -5 26 5 8 1 9 -14 4 -15 -4 -21 -2 -21 8 0 8 23 23 53 35 63 25 60 24
52 12z m305 -75 c0 -11 7 -14 25 -9 14 3 25 2 25 -4 0 -5 -12 -13 -27 -17 -16
-4 -23 -9 -16 -12 6 -2 28 0 47 6 33 9 39 7 66 -21 17 -16 30 -35 30 -42 0 -7
10 -32 21 -56 20 -41 20 -44 4 -56 -9 -7 -14 -17 -11 -22 3 -5 -5 -19 -18 -31
-18 -17 -26 -19 -31 -10 -5 7 -1 17 9 25 22 16 11 37 -15 29 -24 -8 -37 20
-21 46 16 26 15 27 -13 21 -13 -2 -36 -1 -50 2 -21 5 -24 11 -19 31 7 30 -3
31 -45 8 -41 -24 -53 -7 -16 23 37 29 22 31 -40 4 -54 -23 -75 -25 -75 -7 0
14 80 57 105 57 8 0 15 7 15 15 0 13 25 34 43 35 4 0 7 -7 7 -15z m-84 -14
c-5 -8 -145 -61 -161 -61 -4 0 -2 7 5 15 7 8 23 15 35 15 12 0 28 6 35 14 16
20 97 36 86 17z m-176 -25 c0 -3 -4 -8 -10 -11 -5 -3 -10 -1 -10 4 0 6 5 11
10 11 6 0 10 -2 10 -4z m-100 -335 c3 -1 -10 -9 -28 -18 -34 -16 -48 -13 -39
10 4 10 43 15 67 8z m510 -5 c0 -15 -18 -31 -26 -23 -7 7 7 37 17 37 5 0 9 -6
9 -14z"/>
<path d="M5996 3465 c-11 -8 -18 -17 -15 -19 2 -3 15 4 29 14 14 11 21 20 15
19 -5 0 -19 -6 -29 -14z"/>
<path d="M2695 3861 c-11 -5 -39 -15 -63 -22 -71 -21 -192 -146 -192 -198 0
-27 53 -92 91 -112 52 -26 91 -24 129 7 80 68 77 153 -5 181 -40 13 -44 44 -9
72 15 11 34 21 43 21 9 0 27 7 39 16 16 11 31 13 55 8 17 -5 57 -8 87 -9 48 0
56 -3 67 -25 20 -39 16 -123 -6 -151 -15 -19 -17 -28 -8 -47 8 -17 8 -29 -1
-42 -6 -10 -9 -34 -5 -53 11 -69 -24 -90 -172 -102 -104 -9 -174 -27 -229 -59
-37 -21 -50 -39 -84 -108 -35 -74 -39 -88 -32 -128 10 -57 29 -110 41 -110 5
0 9 -6 9 -12 1 -21 81 -73 145 -95 91 -30 165 -30 217 2 55 32 79 53 101 88
23 36 39 34 68 -7 32 -46 66 -71 120 -92 74 -28 108 -27 169 4 76 39 114 107
129 229 12 95 2 163 -24 163 -18 0 -29 -58 -21 -107 8 -52 8 -52 2 -106 -12
-100 -68 -162 -123 -135 -47 23 -64 58 -67 134 -1 38 -5 75 -9 81 -5 7 1 21
13 33 23 23 26 40 6 40 -11 0 -13 19 -9 98 2 53 5 117 6 142 2 52 11 70 35 71
10 1 7 4 -8 8 -22 6 -26 14 -33 76 -5 39 -8 78 -8 87 0 9 -7 22 -15 29 -8 6
-14 17 -14 23 0 25 -48 56 -120 79 -81 26 -278 43 -315 28z m314 -50 c18 -11
5 -31 -20 -31 -12 0 -19 7 -19 20 0 21 16 26 39 11z m61 -46 c0 -8 -13 -21
-30 -30 -59 -31 -70 -11 -12 23 45 26 42 25 42 7z m30 -44 c0 -11 -9 -21 -21
-24 -12 -3 -19 -12 -17 -19 5 -14 -14 -36 -55 -62 -36 -22 -50 -11 -18 13 13
10 19 20 13 22 -6 2 -8 16 -5 32 4 19 11 27 27 27 11 0 30 7 40 15 26 20 36
19 36 -4z m-526 0 c8 -12 -24 -38 -56 -46 -36 -9 -36 7 -2 34 28 22 49 27 58
12z m56 -37 c0 -11 6 -13 19 -9 13 4 24 -1 35 -17 23 -32 20 -46 -15 -79 -26
-24 -40 -29 -81 -29 -45 0 -49 2 -43 20 5 16 2 20 -19 20 -18 0 -24 4 -20 15
4 8 -1 17 -10 21 -24 9 -19 24 7 24 13 0 38 11 57 25 38 28 70 33 70 9z m500
-39 c0 -19 -9 -29 -35 -42 -19 -9 -35 -21 -35 -27 0 -5 -7 -18 -17 -28 -23
-25 -5 -22 42 7 22 13 44 25 49 25 4 0 5 -21 1 -47 -5 -27 -7 -58 -7 -71 2
-24 -34 -72 -53 -72 -6 0 -12 -7 -12 -15 0 -12 6 -12 34 5 32 19 33 19 33 1 0
-20 -60 -71 -83 -71 -8 0 -17 -7 -21 -15 -7 -19 -66 -21 -66 -2 0 7 7 22 15
33 19 25 19 31 -5 37 -24 6 -26 30 -5 51 8 8 15 26 15 40 0 13 6 27 13 29 6 2
0 3 -15 1 -38 -5 -37 19 2 47 24 19 27 25 17 37 -10 12 -9 16 3 20 8 3 28 18
43 34 16 15 33 28 38 28 5 0 9 5 9 10 0 6 9 10 20 10 15 0 20 -7 20 -25z
m-213 -265 c7 -14 8 -30 3 -39 -4 -9 -4 -74 1 -144 4 -71 4 -138 -1 -150 -16
-41 -81 -107 -127 -127 -55 -24 -67 -25 -84 -4 -20 24 -47 141 -37 159 6 9 5
15 -2 15 -20 0 -23 31 -5 50 16 18 17 20 2 20 -22 0 -23 43 -2 60 9 7 13 21
10 31 -7 21 14 59 33 59 9 0 11 7 7 19 -8 26 37 50 106 58 27 3 52 10 55 15 9
14 28 4 41 -22z m-276 -39 c20 -18 20 -18 -18 -51 -30 -27 -33 -32 -15 -28 17
5 22 2 22 -12 0 -10 -7 -23 -15 -30 -13 -10 -13 -15 -3 -21 10 -6 10 -17 1
-50 -9 -36 -9 -45 3 -54 12 -9 9 -16 -21 -45 -19 -18 -35 -39 -35 -44 1 -6 9
-1 19 12 11 12 29 22 40 22 17 0 21 -6 21 -30 0 -16 -4 -30 -10 -30 -5 0 -10
-8 -10 -19 0 -22 -22 -43 -36 -33 -6 4 -16 22 -23 40 -8 18 -21 32 -30 32 -14
0 -14 -2 -1 -10 12 -7 12 -12 3 -21 -10 -10 -14 -8 -19 7 -4 10 -18 28 -31 40
-53 46 -66 116 -32 162 9 12 15 31 12 42 -6 22 33 90 51 90 7 0 21 9 30 19 16
17 28 23 69 30 4 0 17 -7 28 -18z m483 -29 c14 -22 -7 -50 -42 -56 -20 -3 -38
-3 -41 -1 -5 6 59 65 70 65 4 0 10 -4 13 -8z m-120 -71 c8 -12 -31 -44 -43
-36 -6 3 -11 15 -11 26 0 14 7 19 24 19 14 0 27 -4 30 -9z m96 -1 c0 -5 -9
-14 -21 -20 -11 -7 -19 -14 -16 -17 3 -2 14 1 26 8 27 18 39 4 17 -20 -11 -12
-14 -21 -7 -26 16 -9 13 -41 -4 -55 -20 -17 -19 -24 8 -35 19 -9 22 -16 19
-54 -2 -25 -8 -53 -13 -63 -16 -30 -55 -22 -85 17 -23 31 -25 39 -15 61 17 38
14 45 -16 38 -28 -5 -28 -5 7 24 19 17 33 33 30 35 -3 3 -20 9 -38 14 -31 8
-32 9 -17 31 9 12 24 22 33 22 9 0 30 11 46 25 31 26 46 31 46 15z m-437 -305
c3 -20 1 -25 -12 -23 -9 2 -17 13 -19 26 -5 31 24 29 31 -3z m502 5 c3 -5 1
-10 -4 -10 -6 0 -11 5 -11 10 0 6 2 10 4 10 3 0 8 -4 11 -10z m44 -36 c2 -2 2
-7 -2 -10 -9 -10 -57 5 -57 17 0 10 48 4 59 -7z"/>
<path d="M2555 3630 c-3 -5 -1 -10 4 -10 6 0 11 5 11 10 0 6 -2 10 -4 10 -3 0
-8 -4 -11 -10z"/>
<path d="M2500 3230 c0 -5 5 -10 10 -10 6 0 10 5 10 10 0 6 -4 10 -10 10 -5 0
-10 -4 -10 -10z"/>
<path d="M3018 3171 c-15 -18 -15 -19 5 -25 11 -3 29 0 39 5 19 10 19 11 1 24
-24 19 -26 18 -45 -4z"/>
<path d="M3038 3083 c6 -2 18 -2 25 0 6 3 1 5 -13 5 -14 0 -19 -2 -12 -5z"/>
<path d="M3060 3020 c0 -5 9 -10 21 -10 11 0 17 5 14 10 -3 6 -13 10 -21 10
-8 0 -14 -4 -14 -10z"/>
<path d="M5055 3860 c-11 -4 -39 -14 -63 -21 -77 -23 -182 -135 -184 -197 -1
-40 41 -93 97 -121 39 -20 50 -21 74 -11 36 15 87 67 101 104 15 39 -13 87
-60 102 -45 15 -51 44 -14 73 15 11 34 21 43 21 9 0 27 7 39 16 16 11 32 13
55 8 17 -4 55 -6 82 -5 70 2 78 -6 83 -83 3 -51 0 -72 -13 -92 -13 -21 -15
-32 -7 -49 8 -17 7 -28 -3 -42 -9 -12 -12 -33 -8 -64 5 -42 3 -49 -20 -63 -15
-11 -63 -21 -124 -27 -141 -14 -191 -26 -249 -59 -42 -24 -56 -39 -78 -87 -15
-32 -33 -70 -40 -84 -13 -26 -12 -39 10 -133 4 -15 31 -52 60 -82 44 -44 65
-57 122 -73 38 -12 95 -21 126 -21 51 0 64 5 115 40 31 22 65 53 74 70 23 39
41 38 70 -5 30 -43 65 -72 103 -81 16 -4 38 -13 49 -20 30 -21 74 -16 135 14
79 40 116 107 130 233 11 99 3 154 -20 154 -20 0 -34 -90 -20 -124 22 -54 -23
-195 -69 -218 -33 -16 -80 4 -103 43 -24 41 -33 203 -12 211 18 7 19 33 1 33
-11 0 -13 20 -10 88 9 196 13 221 41 223 10 1 6 4 -8 8 -18 5 -25 14 -26 32
-1 63 -18 150 -30 160 -8 6 -14 17 -14 23 -2 51 -146 102 -310 110 -58 3 -114
1 -125 -4z m314 -49 c18 -11 5 -31 -20 -31 -18 0 -26 20 -12 33 8 9 15 9 32
-2z m55 -62 c-21 -20 -74 -36 -74 -22 0 13 72 53 83 46 5 -3 1 -14 -9 -24z
m44 -28 c2 -7 -5 -15 -17 -18 -12 -3 -21 -9 -21 -14 0 -24 -18 -44 -63 -73
-36 -22 -50 -11 -18 13 13 10 19 20 13 22 -6 2 -8 16 -5 32 4 19 11 27 27 27
11 0 30 7 41 15 21 17 37 15 43 -4z m-534 0 c8 -12 -24 -38 -56 -46 -36 -9
-36 7 -2 34 28 22 49 27 58 12z m56 -37 c0 -11 6 -15 20 -11 24 6 50 -17 50
-45 0 -11 -14 -33 -31 -49 -26 -24 -40 -29 -81 -29 -45 0 -49 2 -43 20 5 16 2
20 -14 20 -14 0 -21 6 -21 20 0 11 -7 20 -15 20 -8 0 -15 5 -15 10 0 6 12 10
28 10 15 1 41 12 57 25 34 28 65 32 65 9z m503 -26 c7 -20 -12 -48 -38 -58
-12 -5 -30 -23 -38 -40 l-16 -31 46 25 c25 14 47 26 49 26 2 0 2 -33 -1 -72
-4 -65 -7 -76 -34 -100 -33 -30 -30 -46 6 -23 21 14 23 14 23 -4 0 -20 -59
-71 -83 -71 -8 0 -17 -7 -21 -15 -7 -20 -66 -20 -66 -1 0 8 7 21 15 30 8 8 15
19 15 25 0 6 -7 11 -15 11 -10 0 -15 10 -15 30 0 20 5 30 15 30 11 0 13 7 9
29 -4 20 -2 31 7 34 8 2 2 2 -13 0 -38 -6 -37 20 2 49 20 15 27 25 20 32 -14
14 -12 26 4 26 8 0 25 12 38 28 41 46 82 64 91 40z m-210 -286 c3 -15 3 -31 0
-36 -9 -14 -3 -206 8 -233 18 -49 -63 -151 -150 -188 l-43 -19 -23 27 c-25 28
-50 123 -39 150 3 10 1 17 -5 17 -18 0 -13 48 7 59 16 10 16 10 -1 11 -25 0
-32 26 -14 54 9 13 13 32 11 43 -4 15 4 28 28 47 18 14 28 26 21 26 -19 0 -4
26 21 38 13 6 45 14 72 17 27 4 55 11 63 15 22 12 38 2 44 -28z m-293 -28 c0
-8 4 -13 9 -9 5 3 12 1 15 -4 3 -5 -10 -23 -29 -40 -30 -26 -33 -31 -15 -31
24 0 26 -22 5 -40 -17 -14 -21 -35 -5 -25 15 9 12 -32 -5 -65 -8 -15 -20 -31
-27 -34 -7 -3 -1 -4 14 -1 40 8 41 -8 3 -45 -19 -19 -35 -38 -35 -44 0 -5 10
0 23 12 34 32 57 29 57 -8 0 -20 -5 -30 -15 -30 -9 0 -15 -6 -14 -12 3 -28 -2
-38 -21 -38 -14 0 -20 7 -20 23 0 29 -18 47 -46 47 -28 0 -68 36 -79 70 -12
38 -7 89 9 106 10 9 13 25 10 43 -9 46 87 132 159 140 4 1 7 -6 7 -15z m495
-34 c14 -22 -6 -48 -42 -53 -20 -4 -39 -5 -41 -3 -6 7 32 46 45 46 7 0 13 5
13 10 0 13 17 13 25 0z m-121 -69 c3 -4 -3 -16 -14 -26 -23 -21 -47 -8 -37 19
7 17 42 22 51 7z m96 0 c0 -6 -10 -17 -22 -25 -18 -13 -19 -16 -5 -16 9 0 17
5 17 10 0 6 9 10 20 10 26 0 26 -16 -1 -31 -15 -8 -18 -14 -10 -22 14 -14 15
-57 1 -57 -5 0 -10 -7 -10 -15 0 -8 7 -15 15 -15 8 0 15 -3 16 -7 0 -5 2 -15
4 -25 2 -9 -1 -37 -7 -62 -9 -42 -12 -46 -38 -46 -21 0 -36 9 -55 34 -24 32
-25 35 -10 69 8 19 23 38 32 40 10 2 7 3 -7 1 -14 -1 -33 -6 -42 -9 -33 -13
-18 10 32 50 47 37 48 39 29 53 -18 13 -23 12 -40 -7 -18 -19 -18 -21 -3 -21
10 0 15 -2 12 -5 -3 -3 -19 -2 -36 1 -30 6 -31 7 -15 30 8 13 23 24 32 24 9 0
30 11 46 25 32 26 45 31 45 16z m-562 -262 c-2 -6 -8 -10 -13 -10 -5 0 -11 4
-13 10 -2 6 4 11 13 11 9 0 15 -5 13 -11z m122 -28 c0 -5 3 -16 6 -25 4 -10 1
-16 -9 -16 -20 0 -30 17 -23 35 6 16 26 21 26 6z m505 -11 c3 -5 1 -10 -4 -10
-6 0 -11 5 -11 10 0 6 2 10 4 10 3 0 8 -4 11 -10z m23 -26 c12 -4 22 -10 22
-15 0 -15 -37 -10 -50 6 -13 16 -8 18 28 9z"/>
<path d="M4917 3633 c-4 -3 -7 -11 -7 -17 0 -6 5 -5 12 2 6 6 9 14 7 17 -3 3
-9 2 -12 -2z"/>
<path d="M5368 3363 c7 -3 16 -2 19 1 4 3 -2 6 -13 5 -11 0 -14 -3 -6 -6z"/>
<path d="M4860 3230 c0 -5 5 -10 10 -10 6 0 10 5 10 10 0 6 -4 10 -10 10 -5 0
-10 -4 -10 -10z"/>
<path d="M5420 3020 c0 -5 9 -10 20 -10 11 0 20 5 20 10 0 6 -9 10 -20 10 -11
0 -20 -4 -20 -10z"/>
<path d="M12343 3856 c-23 -6 -45 -14 -49 -19 -4 -4 -15 -7 -23 -7 -22 0 -115
-82 -141 -125 -42 -67 -18 -131 66 -180 57 -34 77 -32 125 13 87 77 83 157 -8
181 -38 10 -42 43 -7 70 15 11 34 21 43 21 9 0 27 7 39 16 16 11 32 13 55 8
17 -4 55 -6 83 -5 63 2 79 -11 88 -74 8 -50 2 -81 -22 -108 -13 -15 -14 -22
-4 -38 10 -15 10 -24 0 -42 -7 -12 -11 -45 -10 -73 3 -47 1 -51 -25 -63 -15
-7 -82 -19 -148 -27 -136 -15 -167 -23 -226 -56 -35 -19 -48 -37 -83 -109
l-42 -86 15 -67 c12 -58 21 -75 60 -115 58 -60 138 -93 238 -99 l72 -4 63 45
c35 25 70 56 77 71 20 36 31 33 72 -17 20 -23 54 -51 75 -61 21 -11 51 -25 66
-33 39 -19 71 -16 133 13 45 21 63 38 91 81 30 46 35 66 44 151 11 102 4 157
-21 157 -17 0 -31 -103 -17 -122 14 -17 -7 -137 -29 -176 -38 -65 -107 -65
-145 -1 -24 41 -33 203 -12 211 18 7 19 33 1 33 -14 0 -15 42 -2 195 8 100 12
115 33 116 10 0 5 5 -11 11 -22 8 -27 15 -24 30 8 29 -13 140 -29 159 -8 8
-14 20 -14 25 -3 68 -310 137 -447 100z m339 -46 c6 0 6 -6 -2 -15 -15 -19
-50 -20 -50 -2 0 19 12 29 28 22 7 -3 18 -5 24 -5z m34 -67 c-28 -24 -56 -30
-56 -13 0 14 62 50 73 43 6 -3 -2 -17 -17 -30z m50 -14 c4 -7 -2 -19 -12 -28
-11 -9 -26 -27 -33 -41 -12 -24 -80 -65 -90 -54 -3 3 5 14 19 24 14 11 20 20
14 20 -6 0 -9 13 -6 30 3 22 10 30 26 30 11 0 30 7 40 15 24 18 33 19 42 4z
m-532 -7 c9 -15 -11 -34 -48 -42 -20 -4 -36 -6 -36 -3 0 2 12 15 26 28 27 25
49 32 58 17z m56 -38 c0 -12 6 -15 25 -10 18 5 27 1 35 -13 18 -34 11 -59 -23
-85 -39 -30 -117 -37 -117 -12 0 8 6 17 13 19 6 3 -3 6 -20 6 -24 1 -33 6 -33
17 0 9 -8 23 -17 31 -17 13 -16 14 7 9 18 -3 35 3 60 24 39 33 70 39 70 14z
m505 -24 c12 -19 -6 -48 -34 -58 -16 -6 -35 -24 -44 -42 l-16 -31 46 25 c25
14 47 26 49 26 2 0 2 -32 0 -72 -3 -66 -6 -74 -35 -100 -17 -15 -28 -28 -24
-28 5 0 1 -5 -7 -10 -8 -5 -10 -10 -4 -10 6 0 23 9 37 20 15 12 28 16 32 11 7
-13 -16 -51 -31 -51 -6 0 -17 -7 -24 -15 -7 -8 -21 -15 -31 -15 -11 0 -19 -7
-19 -15 0 -10 -11 -15 -35 -15 -38 0 -46 17 -20 44 8 8 15 19 15 25 0 6 -7 11
-15 11 -10 0 -15 10 -15 30 0 20 5 30 15 30 11 0 14 7 9 24 -4 17 0 27 13 35
15 10 12 11 -14 6 -43 -9 -45 16 -3 47 18 13 27 25 21 31 -6 6 6 23 29 46 63
59 92 73 105 51z m-214 -279 c1 -9 0 -64 -1 -123 -1 -60 3 -122 10 -142 9 -29
8 -40 -9 -73 -25 -50 -85 -105 -140 -128 l-43 -19 -23 27 c-25 28 -50 123 -39
150 3 10 1 17 -5 17 -18 0 -13 48 7 59 15 9 15 10 1 11 -24 0 -32 29 -15 55 8
12 12 32 9 43 -3 14 4 26 26 43 19 14 27 25 20 30 -19 11 43 47 96 54 28 4 56
11 64 15 20 11 41 1 42 -19z m-291 -37 c0 -10 6 -14 15 -10 26 10 16 -11 -20
-42 l-34 -31 25 -3 26 -3 -21 -27 c-22 -28 -27 -43 -11 -33 26 16 3 -79 -24
-98 -6 -4 1 -5 17 -1 36 8 35 -7 -4 -46 -17 -17 -29 -33 -27 -36 3 -2 11 2 18
11 7 8 21 15 31 15 14 0 19 -7 19 -30 0 -16 -4 -30 -9 -30 -5 0 -11 -10 -13
-22 -4 -32 -48 -39 -48 -8 0 27 -22 50 -49 50 -11 0 -32 11 -47 25 -34 32 -47
124 -21 150 11 10 14 25 11 44 -9 46 87 132 159 140 4 1 7 -6 7 -15z m500 -41
c0 -29 -13 -40 -53 -47 l-39 -7 19 25 c10 14 24 26 31 26 6 0 12 5 12 10 0 6
7 10 15 10 8 0 15 -8 15 -17z m-120 -68 c0 -12 -28 -35 -43 -35 -9 0 -17 32
-11 41 9 15 54 10 54 -6z m90 6 c0 -6 -10 -17 -22 -25 -18 -13 -19 -16 -5 -16
9 0 17 5 17 10 0 6 9 10 21 10 27 0 20 -17 -15 -38 -22 -13 -30 -14 -33 -4 -7
17 -20 15 -43 -8 -17 -17 -18 -20 -3 -20 9 0 14 -2 11 -5 -3 -3 -19 -2 -36 1
-31 6 -31 7 -14 30 9 13 25 24 34 24 9 0 30 11 45 25 30 26 43 31 43 16z m10
-107 c0 -13 -4 -24 -10 -24 -18 0 -11 -28 9 -33 21 -5 25 -41 10 -99 -13 -49
-43 -51 -88 -4 l-32 33 17 36 c10 20 24 38 33 40 9 2 7 3 -4 1 -11 -1 -30 -6
-42 -9 -39 -12 -25 10 33 53 60 44 74 46 74 6z m-570 -160 c0 -9 -5 -14 -12
-12 -18 6 -21 28 -4 28 9 0 16 -7 16 -16z m124 -30 c9 -25 7 -34 -8 -34 -19 0
-29 17 -22 35 7 20 22 19 30 -1z m506 -4 c0 -5 -4 -10 -10 -10 -5 0 -10 5 -10
10 0 6 5 10 10 10 6 0 10 -4 10 -10z m18 -26 c12 -4 22 -10 22 -15 0 -15 -37
-10 -50 6 -13 16 -8 18 28 9z"/>
<path d="M12255 3650 c-3 -5 -1 -10 4 -10 6 0 11 5 11 10 0 6 -2 10 -4 10 -3
0 -8 -4 -11 -10z"/>
<path d="M12212 3644 c4 -4 3 -15 -3 -26 -9 -17 -8 -18 10 -6 26 16 26 24 4
32 -10 4 -14 4 -11 0z"/>
<path d="M12668 3363 c7 -3 16 -2 19 1 4 3 -2 6 -13 5 -11 0 -14 -3 -6 -6z"/>
<path d="M12160 3230 c0 -5 5 -10 10 -10 6 0 10 5 10 10 0 6 -4 10 -10 10 -5
0 -10 -4 -10 -10z"/>
<path d="M12720 3020 c0 -5 9 -10 20 -10 11 0 20 5 20 10 0 6 -9 10 -20 10
-11 0 -20 -4 -20 -10z"/>
<path d="M16395 3857 c-16 -5 -48 -16 -70 -24 -69 -24 -175 -141 -175 -193 0
-59 110 -150 165 -136 52 13 115 88 115 136 0 27 -52 80 -78 80 -49 0 -26 75
26 85 15 3 41 13 58 21 20 10 40 13 60 8 16 -4 54 -8 84 -8 48 -1 56 -4 67
-26 20 -40 16 -117 -8 -151 -17 -24 -18 -33 -9 -44 10 -12 10 -21 0 -44 -6
-16 -9 -38 -6 -49 11 -34 -4 -73 -33 -83 -14 -6 -80 -17 -147 -25 -204 -24
-246 -47 -305 -168 -40 -80 -40 -81 -29 -141 20 -106 81 -167 203 -205 129
-41 209 -20 292 74 22 25 45 46 51 46 6 0 24 -19 41 -43 30 -41 50 -54 136
-91 53 -22 75 -20 144 14 54 27 64 37 93 92 27 54 32 75 37 168 5 92 3 107
-11 120 -28 23 -35 -3 -33 -130 1 -79 -3 -123 -12 -140 -41 -77 -100 -93 -145
-40 -26 32 -33 57 -39 152 -3 47 0 61 15 75 22 20 23 33 2 33 -13 0 -15 13
-10 98 3 53 6 114 6 135 0 47 15 77 38 78 10 1 7 4 -8 8 -26 7 -33 32 -43 150
-2 19 -8 36 -15 39 -7 2 -12 11 -12 20 0 25 -39 57 -85 72 -22 7 -56 18 -75
26 -46 17 -246 25 -285 11z m319 -43 c22 -8 20 -21 -4 -29 -25 -8 -41 1 -33
20 6 16 13 18 37 9z m66 -49 c0 -14 -48 -45 -70 -45 -21 0 -4 23 30 42 42 22
40 22 40 3z m30 -45 c0 -11 -7 -20 -15 -20 -8 0 -21 -16 -29 -35 -8 -19 -21
-35 -29 -35 -8 0 -20 -7 -27 -15 -7 -8 -20 -15 -29 -15 -12 1 -9 7 12 25 15
14 24 25 18 25 -6 0 -9 13 -8 30 2 25 6 30 27 30 14 0 34 7 44 15 27 20 36 19
36 -5z m-530 -4 c0 -18 -19 -33 -53 -41 -33 -9 -34 1 -5 32 24 25 58 31 58 9z
m57 -32 c3 -8 12 -13 21 -9 31 12 57 -48 34 -80 -17 -24 -64 -45 -102 -45 -37
0 -41 2 -35 20 5 17 2 20 -20 20 -14 0 -24 4 -20 9 3 5 -2 16 -10 24 -20 21
-19 30 4 24 12 -3 32 6 53 24 37 32 66 37 75 13z m503 -39 c0 -19 -9 -29 -35
-42 -19 -9 -35 -21 -35 -27 0 -5 -7 -18 -17 -28 -23 -26 -2 -22 42 8 48 32 65
21 46 -31 -7 -19 -10 -44 -6 -55 7 -21 -30 -80 -50 -80 -7 0 -12 -7 -12 -15 0
-12 7 -11 34 6 l33 21 0 -21 c0 -22 -63 -71 -92 -71 -10 0 -18 -7 -18 -15 0
-10 -10 -15 -28 -15 -40 0 -44 9 -22 40 25 35 25 36 0 43 -24 6 -27 45 -4 54
9 3 14 13 11 25 -3 10 2 26 11 35 16 15 15 16 -11 9 -39 -9 -37 24 4 48 26 15
28 20 17 33 -11 13 -11 17 1 21 7 2 32 22 53 43 48 46 78 51 78 14z m-223
-247 c6 -11 12 -132 16 -325 1 -43 -59 -115 -124 -148 -28 -14 -56 -25 -62
-25 -19 0 -47 33 -47 56 0 13 -4 25 -9 28 -15 9 -23 76 -11 91 8 9 7 14 -5 19
-19 7 -19 30 1 50 14 15 14 16 0 16 -18 0 -23 55 -6 65 6 4 10 14 8 23 -3 22
23 62 40 62 9 0 11 7 7 19 -8 26 37 50 106 58 27 3 52 10 55 14 8 13 22 11 31
-3z m-283 -54 c3 -8 10 -13 15 -9 5 3 12 1 15 -4 3 -5 -11 -24 -31 -42 -30
-26 -33 -31 -15 -27 26 7 29 -9 8 -38 -10 -13 -11 -23 -4 -31 14 -17 2 -59
-23 -84 l-20 -20 26 7 c35 9 32 -12 -7 -54 -19 -19 -26 -30 -15 -27 9 4 17 11
17 17 0 5 10 8 23 6 16 -2 22 -10 22 -30 1 -17 -4 -28 -13 -28 -8 0 -11 -7 -7
-19 6 -20 -15 -44 -30 -33 -6 4 -17 20 -25 36 -19 36 -41 46 -33 15 4 -15 3
-20 -5 -15 -7 4 -12 12 -12 18 0 12 -50 58 -63 58 -5 0 -5 5 -2 10 4 6 2 17
-4 24 -16 19 -10 77 10 104 9 12 15 31 12 42 -6 23 33 90 52 90 8 0 18 7 23
15 4 9 21 20 38 24 41 13 41 13 48 -5z m494 -51 c-2 -21 -10 -29 -37 -35 -31
-9 -60 0 -33 9 6 3 12 10 12 16 0 11 32 33 53 36 5 0 7 -11 5 -26z m-118 -58
c0 -16 -34 -38 -44 -28 -3 3 -6 15 -6 25 0 13 7 18 25 18 15 0 25 -6 25 -15z
m95 5 c3 -5 -7 -16 -22 -24 -15 -8 -22 -15 -15 -16 7 0 21 5 32 12 26 16 40 0
16 -18 -16 -11 -17 -17 -8 -26 16 -16 15 -43 -3 -58 -20 -17 -19 -24 8 -35 23
-10 23 -17 11 -92 -7 -46 -34 -58 -68 -32 -41 32 -49 54 -35 94 10 27 19 35
39 36 18 1 20 3 7 6 -10 3 -32 -1 -48 -7 -16 -7 -33 -9 -37 -5 -4 4 -1 10 7
13 8 3 25 15 38 28 13 13 33 29 44 35 l21 11 -21 14 c-24 17 -43 10 -39 -14 2
-13 -5 -17 -29 -17 -18 0 -33 4 -33 9 0 15 32 46 48 46 8 0 27 11 44 25 33 28
35 29 43 15z m-437 -308 c2 -15 -2 -22 -12 -22 -11 0 -16 9 -16 26 0 31 23 28
28 -4z m541 -28 c2 -2 2 -7 -2 -10 -8 -9 -47 6 -47 17 0 9 37 3 49 -7z"/>
<path d="M16265 3630 c-3 -5 -1 -10 4 -10 6 0 11 5 11 10 0 6 -2 10 -4 10 -3
0 -8 -4 -11 -10z"/>
<path d="M16210 3230 c0 -5 5 -10 11 -10 5 0 7 5 4 10 -3 6 -8 10 -11 10 -2 0
-4 -4 -4 -10z"/>
<path d="M16770 3019 c0 -5 10 -9 22 -9 12 0 18 3 14 7 -10 11 -36 12 -36 2z"/>
<path d="M11265 3640 c3 -5 8 -10 11 -10 2 0 4 5 4 10 0 6 -5 10 -11 10 -5 0
-7 -4 -4 -10z"/>
<path d="M3705 3597 c-17 -9 -20 -27 -5 -27 5 0 24 9 42 20 l33 20 -28 -2
c-15 -1 -34 -6 -42 -11z"/>
<path d="M4325 3590 c-16 -18 -16 -20 -2 -20 9 0 31 9 49 20 l33 20 -31 0
c-18 0 -38 -8 -49 -20z"/>
<path d="M16062 3518 c-16 -16 -15 -33 4 -48 13 -11 19 -10 36 8 18 17 19 23
8 36 -15 19 -32 20 -48 4z"/>
<path d="M5970 2973 c0 -10 5 -25 10 -33 7 -11 10 -7 10 18 0 17 -4 32 -10 32
-5 0 -10 -8 -10 -17z"/>
<path d="M16010 2930 c0 -5 5 -10 10 -10 6 0 10 5 10 10 0 6 -4 10 -10 10 -5
0 -10 -4 -10 -10z"/>
<path d="M16015 2895 c-14 -13 -25 -31 -25 -40 0 -19 35 -55 54 -55 42 0 62
73 28 103 -24 22 -28 22 -57 -8z"/>
</g>
</svg>
