<svg width="1600" height="1200" xmlns="http://www.w3.org/2000/svg">
 <!-- Created with Method Draw - http://github.com/duopixel/Method-Draw/ -->
 <defs>
  <filter height="200%" width="200%" y="-50%" x="-50%" id="svg_20_blur">
   <feGaussianBlur stdDeviation="0" in="SourceGraphic"/>
  </filter>
 </defs>
 <g>
  <title>background</title>
  <rect fill="none" id="canvas_background" height="1202" width="1602" y="-1" x="-1"/>
  <g display="none" overflow="visible" y="0" x="0" height="100%" width="100%" id="canvasGrid">
   <rect fill="url(#gridpattern)" stroke-width="0" y="0" x="0" height="100%" width="100%"/>
  </g>
 </g>
 <g>
  <title>Layer 1</title>
  <metadata transform="matrix(0.011983479143522548,0,0,0.011983479143522548,0,0) ">Created by potrace 1.16, written by Peter Selinger 2001-2019</metadata>
  <path stroke="#000" opacity="0.42" filter="url(#svg_20_blur)" id="svg_20" d="m27,245.82468c-1.63725,0 3.93818,-2.82965 3.93818,-6.22292c0,-2.829 0.42071,-5.57564 1.63725,-5.57564c0.84155,0 2.10839,2.74664 2.5291,5.57564c0.84154,4.11897 -6.41698,6.22292 -8.10453,6.22292zm286.28801,161.45673c3.74576,0 4.58718,0.7257 2.4788,5.57498c-1.21655,3.39327 -3.74564,6.22227 -4.96218,6.22227c-1.26672,0 -2.5291,-2.829 -2.5291,-6.22227c0,-3.4765 1.68768,-5.57498 5.01248,-5.57498zm-261.51326,-197.49795c-3.74563,-1.37299 -4.16647,-8.32556 0,-10.42469c2.10826,-0.64641 3.32493,1.37277 3.32493,5.57564c0,3.47606 -1.21667,5.49612 -3.32493,4.84905zm-46.6902,219.63731c5.01248,-2.02027 5.01248,-3.47234 3.32493,-8.24254c-1.26239,-3.47234 -1.68309,-7.67477 -0.84155,-9.04798c0.42071,-2.10286 2.5291,0 3.74564,4.11941c1.68755,5.57564 2.9498,6.30572 6.27473,2.829c2.06267,-2.09892 3.74564,-3.47563 3.74564,-1.37277c0,1.37277 1.26684,0 2.90409,-2.829c2.52922,-4.11941 2.94993,-13.17112 0.42084,-18.02061c-2.05809,-4.11941 -12.50376,-2.7462 -15.40785,2.09891c-1.68309,3.47672 -2.94993,2.75058 -4.58718,-3.47169c-2.52909,-10.34605 -2.52909,-11.79856 3.3248,-12.44497c5.01248,0 5.01248,0 0.84155,-4.20243c-2.1038,-2.02027 -4.16635,-6.22226 -4.16635,-8.9689c0,-6.95214 5.80818,-11.07155 8.33728,-6.22205c0.84154,2.01984 2.47892,4.11941 4.16647,4.11941c3.32493,0 19.19919,-23.51345 19.19919,-28.36295c0,-2.10263 1.64184,-3.4754 3.32493,-2.10263c2.06255,0.72986 5.80831,-1.37277 9.60425,-4.8495c5.38289,-5.5752 5.38289,-6.22227 2.47879,-15.27025c-2.05808,-6.22226 -4.58718,-8.32556 -10.4412,-8.32556c-6.64973,0 -8.33728,1.37343 -10.39537,9.69899c-0.84613,5.57498 -3.3751,9.69461 -5.01247,9.69461c-2.9041,0 -3.74564,-6.21854 -0.84155,-9.69461c1.26225,-1.37343 2.1038,-6.22227 2.1038,-11.07176c0,-7.59592 -0.84155,-8.96891 -6.27473,-6.94841c-5.43319,1.37277 -5.43319,0.7257 -4.16648,-9.69943c0.84155,-6.22205 2.05809,-11.79725 2.90422,-12.44432c0.84155,-0.7257 1.68297,-6.94841 1.68297,-13.17067c0,-12.44563 2.48338,-14.54455 7.07515,-5.57564c2.10367,4.84927 3.37064,5.57564 4.16634,1.37277c0.84155,-2.7462 3.79135,-3.39327 8.38312,-2.0205c6.22902,2.74664 6.64973,2.0205 5.80818,-6.22226c-0.42071,-4.84884 -0.846,-10.42448 -1.26671,-11.79725c0,-2.09957 -2.05809,-4.8495 -4.54147,-6.94907c-5.01248,-3.47541 -6.27473,-11.79725 -1.68755,-11.79725c1.26684,0 2.48326,-1.37343 2.48326,-4.12379c0,-2.09957 2.52922,-3.47234 5.85402,-2.82944c4.59177,0.72987 7.07057,-2.0194 13.3453,-16.56328c4.59176,-10.42514 7.91657,-16.00034 8.3374,-13.17134c0.42071,3.47235 2.5291,5.49218 4.59164,5.49218c3.32493,0 3.74577,-2.01983 2.52922,-11.06782c-0.42529,-6.2227 -2.52922,-13.81774 -3.79593,-17.29446c-3.74576,-7.67784 -3.74576,-16.64675 0,-13.9012c2.9498,2.75058 12.12863,-4.84512 12.12863,-9.6944c0,-2.10285 1.22112,-3.47606 2.90409,-3.47606c1.68767,0 2.48338,4.20221 2.48338,9.69877c0,6.94841 0.84155,9.69505 2.94993,7.67455c1.63725,-1.45228 2.90422,-5.57564 2.90422,-8.32162c0,-8.326 13.34517,-22.8701 16.66997,-18.74697c1.26697,1.37387 2.5291,0 2.95464,-4.84884c1.21642,-9.69877 8.75341,-17.29447 12.07821,-12.44497c1.68767,2.01984 3.32505,1.37343 3.75035,-0.72571c0.84142,-2.75036 4.16634,-4.84949 7.91198,-5.497c3.74564,-0.7257 8.75811,-3.47606 10.8665,-6.30506c7.91198,-8.96891 15.82868,-8.32184 19.15348,1.37759c2.10839,6.94797 2.9498,6.94797 2.9498,2.09847c0,-6.2227 1.64197,-6.94841 11.66234,-4.84883c15.87439,2.75036 18.35777,2.75036 24.21179,-0.72637c3.74564,-2.02027 5.01235,-1.37321 5.01235,4.20178c0,3.47672 1.21667,6.22292 2.90422,6.22292c1.26226,0 2.4788,-2.0205 2.4788,-4.12335c0,-5.57498 6.70015,-8.32162 12.55405,-5.57498c4.54147,2.75036 4.96218,3.47541 3.74563,22.14308c-0.4207,11.15084 0,18.74654 0.79584,18.74654c0.84142,0 1.68755,-4.8495 1.68755,-11.79791c0,-11.71883 4.58718,-16.56438 6.27473,-6.94863c0.42084,3.47257 1.63725,2.09914 2.4788,-3.39304c2.10851,-14.54827 6.70015,-6.9528 5.43318,8.9689c-1.26213,13.17068 -1.26213,13.17068 2.48351,8.32118c2.10826,-2.09913 3.74551,-7.59504 3.74551,-11.06782c0,-3.47628 1.26697,-7.59942 2.95006,-9.05192c3.32467,-2.74555 7.07502,7.67521 5.8539,15.27397c-0.42071,3.473 -0.42071,6.22271 0.7957,6.22271c0.84613,0 1.68768,-2.01984 1.68768,-3.47607c0,-2.02028 2.06254,-2.74664 4.59164,-1.37277c5.42873,2.09913 6.22443,7.67411 1.63738,11.06738c-1.21654,1.45623 -2.48338,4.84949 -2.48338,7.67893c0,4.8495 0.846,4.8495 5.43318,0c7.49128,-8.32162 10.81608,-7.67893 12.08304,1.37277c0.84142,4.8495 2.48326,6.95236 4.16635,4.8495c1.68755,-0.72614 5.43319,2.10286 8.33741,6.94841c2.52909,4.12313 6.27473,7.5957 7.96228,7.5957c2.48338,0 2.48338,3.4765 1.63725,13.17483c-0.84142,10.42514 -0.84142,11.79791 1.68767,7.59614c3.3248,-6.86999 4.58719,-6.22336 5.80831,3.47168c0.42071,4.8495 3.37052,8.32557 6.69545,10.4247c3.74563,1.37759 5.80831,4.84928 5.80831,8.97263c0,4.20221 1.26212,9.04798 2.52909,11.79834c3.32493,4.84884 2.4788,19.39295 -1.26697,24.24222c-1.26212,1.45251 -2.90396,0.72637 -3.3248,-1.37277c-0.84142,-2.10329 -3.74563,-2.10329 -9.17895,0c-8.75811,4.84512 -10.39536,6.22227 -8.33728,12.52361c1.26684,4.11941 15.83314,2.74664 23.79096,-2.10285c2.48339,-2.09936 3.32493,0 3.32493,9.69899c0,6.94797 -0.84154,12.44497 -2.1038,12.44497c-0.84613,0 -1.64183,2.09891 -1.64183,5.57498c0,8.32512 2.06267,7.59504 7.49585,-2.09957c2.89951,-5.57498 4.58706,-6.95213 6.64973,-3.47541c2.1038,3.47541 2.5291,3.47541 2.5291,-2.09957c0,-3.39743 -0.84613,-6.22227 -2.10826,-6.22227c-0.79583,0 -1.64196,-2.75036 -1.64196,-5.497c0,-3.47563 1.22112,-6.22227 2.90409,-6.22227c1.26684,0 2.94993,1.37277 2.94993,3.39327c0,2.10373 1.64183,4.84928 3.75022,5.57564c2.89963,2.10329 3.74564,4.84949 3.3248,13.17111c-0.846,15.9206 0.84167,20.77054 7.07057,18.02434c2.94993,-1.37759 4.58705,0 3.32492,2.7462c-0.37499,1.37277 0,4.84949 0.84155,6.3009c3.3751,4.12358 2.10826,13.81884 -1.63738,13.81884c-4.59164,0 -5.85402,3.47541 -3.37051,9.69834c1.68296,3.47606 2.9498,4.11941 4.58705,1.37321c3.79594,-6.94841 4.59177,-1.37321 5.01248,26.34617c0,13.89638 0.84155,24.96858 1.68309,24.96858c2.06255,0 1.26684,15.27397 -1.68309,21.49624c-1.64184,3.47234 -1.64184,6.86539 -0.42071,9.69439c2.9498,6.22293 0,24.24354 -3.75035,24.24354c-3.32467,0 -9.59953,13.17068 -9.59953,19.39338c0,7.59986 -5.38289,0 -6.64973,-8.32184c-1.26225,-7.59548 -1.26225,-7.59548 -2.10838,-2.10286c-0.79571,6.30529 3.75022,25.69867 7.54169,31.19458c2.48326,4.20286 -2.10838,11.15084 -5.43331,8.32184c-1.68768,-1.37277 -2.48338,-5.49218 -2.48338,-9.69461c0,-11.79725 -10.44121,-41.53713 -18.35778,-52.68753c-4.21205,-5.497 -7.95782,-11.71927 -7.95782,-13.81818c0,-4.20243 -13.34975,-17.29447 -20.84103,-21.49668c-4.17106,-2.10286 -5.43331,-1.37299 -5.43331,4.20221c0,4.11941 -0.79571,5.49218 -2.48338,4.11941c-3.74564,-2.74664 -5.43319,3.47672 -2.10826,9.69899c4.59164,7.59548 3.79593,16.64674 -1.21654,13.17068c-3.37064,-2.09914 -3.79148,-1.37343 -2.5291,10.42491c0.42071,6.86934 1.26684,15.9206 1.26684,20.04001c0,4.20243 0.84142,6.94907 1.68297,6.94907c1.22125,0 1.64183,-1.37343 0.79583,-3.47234c-0.42071,-2.1033 0.42542,-4.12336 2.10826,-4.12336c1.26696,0 2.48338,2.74993 2.48338,5.49613c0,2.82944 -1.64171,5.57498 -4.59164,4.84993c-2.4788,0 -4.58718,-2.02049 -4.58718,-3.3937c0,-6.30573 -11.2415,-49.21563 -14.5663,-55.51697c-3.74577,-6.86999 -1.26238,-8.9689 -30.86165,23.59559c-4.58706,4.8495 -9.59954,15.27398 -12.12863,22.87011c-2.06267,7.59504 -5.38748,15.27397 -7.07057,16.64674c-1.68755,1.37343 -7.91657,12.44498 -13.34988,24.24288c-23.37025,51.95744 -19.57432,58.18015 -17.93694,164.28617c7.07503,80.40274 7.07503,80.40274 7.07503,80.40274c-16.67469,0 -16.67469,0 -16.67469,0c-13.766,0 -13.766,0 -13.766,0c1.26225,-74.18464 1.26225,-74.18464 1.26225,-74.18464c0.84142,-6.2181 1.26684,-18.74588 1.68768,-25.69494c0.42071,-4.12314 -11.70805,-22.14375 -11.28721,-26.26272c0,-3.47607 12.54946,6.22292 12.54946,2.7462c2.06255,-50.58467 0,-90.82788 -5.43331,-112.24526c-1.26225,-13.17134 -11.70792,-55.51281 -13.34517,-55.51281c-0.42084,0 -3.37064,-4.12313 -6.27473,-8.97263c-5.01261,-9.04754 -7.07057,-9.69505 -35.03258,-12.44497c-30.01998,-2.82528 -30.01998,-2.82528 -30.01998,-2.82528c-7.11628,9.69505 -7.11628,9.69505 -7.11628,9.69505c-4.16635,6.30507 -8.33728,10.4247 -9.55395,10.4247c-2.52909,0 -12.97476,14.54761 -17.51623,22.86879c-0.42071,0 -0.84142,-0.72505 -0.84142,-1.37277c-0.42083,0 -0.42083,0 -0.42083,-0.72614c-0.42071,-2.01984 -0.84601,-4.12314 -1.68755,-6.22227c2.52909,-3.47607 4.59164,-5.57893 5.43318,-4.84884c1.26226,1.37277 2.48339,0 2.48339,-3.47672c0,-3.47235 -2.48339,-4.84928 -9.13311,-3.47235c-7.96241,2.09957 -10.02496,2.82528 -11.28721,11.06804c-2.06268,4.20221 -2.48339,10.42492 -1.26226,15.27441c-0.42542,6.22227 -0.42542,10.42448 0,10.42448c0.42071,0 0.84142,-1.37277 2.1038,-2.829c0,0.72636 0.42071,1.45623 0.84601,2.10286c-4.17094,2.09913 -6.27932,8.32184 -5.85403,14.5441c-2.10826,2.829 -4.17093,4.20221 -6.6999,6.30135c0,0 0,-0.72571 -0.37512,-0.72571c1.64184,-6.22227 2.48338,-13.17133 2.90409,-23.59581c0.84613,-11.71927 0.42071,-19.39338 -0.84142,-19.39338c-0.84154,0 -1.68755,2.829 -1.68755,6.94775c0.42059,3.47672 -0.37512,6.94907 -2.05821,7.59613c-1.26684,0.72571 -2.10826,-0.64706 -2.10826,-4.11941c0,-8.32556 -1.63738,-8.32556 -5.3876,-0.72986c-1.68296,2.829 -5.00789,6.2227 -7.91198,7.67893c-3.79594,2.01984 -5.01248,0.64641 -6.70003,-6.94907c-1.26225,-6.22226 -2.1038,-13.17483 -1.26225,-15.92104c0.4207,-3.47606 0.4207,-6.30134 -1.21655,-6.30134c-4.59176,0 -1.26684,-11.0722 4.16635,-13.17506zm35.874,-159.35386c-2.52909,-0.72571 -4.59177,-2.74621 -5.43318,-5.57521c-0.42084,-4.12313 -0.84155,-4.12313 -0.84155,0c0,2.829 -1.68755,4.8495 -3.32493,5.57521c-2.9498,0 -2.9498,0.72614 0.42084,3.47672c2.05796,1.37277 4.16634,3.47169 4.58705,3.47169c0.375,0 2.48339,-2.09892 4.59177,-3.47169c3.74564,-3.47672 3.74564,-3.47672 0,-3.47672zm330.72758,111.59819c0.79583,1.37343 1.63738,-0.72986 1.63738,-4.20221c0,-2.74992 -0.84155,-5.49656 -1.63738,-5.49656c-1.26671,0 -2.10826,1.37321 -2.10826,3.39327c0,2.10329 0.84155,4.93229 2.10826,6.3055zm-2.9498,6.22271c-0.42071,-2.1033 -2.48339,-4.84928 -4.17093,-4.84928c-1.21655,0 -2.05809,2.74598 -1.21655,4.84928c0.375,2.09913 2.06255,3.47256 3.74564,3.47256c1.64184,0 2.06255,-1.37343 1.64184,-3.47256zm-3.74564,31.19085c1.26225,0 2.9498,-0.72571 2.9498,-1.37277c0,-1.45623 -1.68755,-2.829 -2.9498,-4.20243c-1.64184,-1.37321 -2.90422,-0.64707 -2.90422,1.37343c0,2.10285 1.26238,4.20177 2.90422,4.20177zm3.32493,-65.85821c1.68296,-1.37386 2.52896,-3.4765 2.1038,-5.497c-1.26238,-4.92791 -8.33295,-4.92791 -8.33295,0c0,5.497 2.47893,7.59614 6.22915,5.497zm-22.9037,-51.96226c-2.10839,2.1033 -3.37064,6.22271 -2.95006,8.32557c2.10838,5.49283 4.59189,4.11941 6.69557,-4.8495c2.06267,-8.32556 1.22112,-9.69833 -3.74551,-3.47607zm-7.96241,106.74892c10.86637,18.66703 11.28721,19.39339 11.28721,13.17112c0,-3.47234 -0.84155,-6.30134 -2.10839,-6.30134c-1.21641,0 -3.3248,-3.47673 -4.58705,-7.59548c-1.21667,-4.12379 -3.74564,-8.32622 -5.80831,-8.32622c-3.79135,0 -3.79135,0.73009 1.21654,9.05192zm-8.75366,-32.64751c2.52464,0 3.74577,-1.37277 2.10393,-2.02006c-1.26226,-1.37321 -3.32493,-1.37321 -4.58718,0c-1.26697,0.64729 0,2.02006 2.48325,2.02006zm-12.08291,-94.22115c1.26225,2.09957 5.00789,4.84577 8.33269,6.22292c5.85415,2.09892 6.27486,2.09892 2.94993,-3.47606c-3.79135,-6.86999 -14.18672,-8.96891 -11.28262,-2.74686zm-25.43293,-114.99081c-1.26225,2.01984 -1.68296,6.22227 -1.26225,8.96825c0.84154,5.57564 3.32493,0.72636 3.32493,-7.59548c0,-4.20243 -0.42084,-4.84949 -2.06268,-1.37277zm12.50375,149.65882c3.32493,3.47191 4.59177,3.47191 6.27945,-1.37715c3.3248,-7.59592 1.21641,-11.06782 -5.01261,-6.22205c-5.01247,3.39699 -5.01247,3.39699 -1.26684,7.5992zm-8.33269,-34.66801c6.27473,-7.59482 6.27473,-7.59482 1.26226,-7.59482c-3.37064,0 -5.85403,2.74554 -7.11628,7.59482c-0.79584,4.84577 -1.64184,7.59613 -1.22113,7.59613c0,0 3.32493,-4.12357 7.07515,-7.59613zm-9.17895,112.32456c2.89951,7.59613 7.91211,7.59613 6.27473,-0.72614c-0.42071,-2.74993 -0.846,-6.22227 -0.846,-6.95236c0,-0.64706 -1.68309,-0.64706 -3.74564,0.73009c-3.37064,1.37321 -3.37064,3.47234 -1.68309,6.94841zm-12.92904,-28.44509c3.3248,7.59592 5.01247,8.32162 8.75811,2.74664c2.48338,-3.47234 2.48338,-3.47234 0,-4.11941c-1.26226,0 -4.58718,-0.73009 -7.49128,-2.1033c-4.17093,-2.7462 -4.17093,-2.7462 -1.26683,3.47607zm-0.42071,-75.55763c2.10825,0 4.59164,-11.07155 3.32492,-14.54389c-1.63738,-3.47607 -5.00802,2.09892 -5.00802,8.32162c0,3.47629 0.84155,6.22227 1.6831,6.22227zm-20.41587,47.11232c-2.52909,2.829 -2.10826,3.47673 1.21667,3.47673c2.10826,0 4.58706,-1.37759 5.43319,-3.47673c1.26213,-5.4959 -2.90422,-5.4959 -6.64986,0zm0.42084,61.00981c0.375,0.73008 1.63725,-0.72614 2.90409,-4.11941c1.26213,-2.829 5.00802,-6.30507 7.91199,-7.6785c3.74563,-2.09957 5.43331,-5.49262 5.43331,-10.42491c0,-11.71445 -5.85402,-8.24276 -12.08317,6.95257c-2.52897,7.67477 -4.58706,13.89748 -4.16622,15.27025zm-4.59164,-31.91743c3.74551,-7.59504 3.74551,-8.97263 0.79558,-11.07176c-3.3248,-2.74664 -5.8036,3.47672 -5.8036,14.5441c-0.42529,8.32556 -0.42529,8.32556 5.00802,-3.47234zm-6.69557,-81.77968c0.42071,5.57498 1.26226,4.84927 3.74551,-5.49657c2.95006,-11.06804 2.95006,-12.52426 0.42084,-12.52426c-1.63725,0 -3.32493,2.09957 -3.74564,5.57585c-0.84155,2.74599 -0.84155,9.05171 -0.42071,12.44498zm-2.06267,-56.8076c0,2.82528 0.7957,9.69505 1.64183,14.54411c1.26226,9.69877 1.26226,9.69877 2.5291,1.37321c1.63725,-8.32118 0,-20.76616 -2.5291,-20.76616c-1.22112,0 -1.64183,2.09848 -1.64183,4.84884zm-29.21969,22.86573c-2.06255,4.84949 -2.06255,9.69899 -0.42529,24.24288c0.84613,10.42469 2.95451,20.84961 4.17093,22.8701c2.10838,3.47607 2.52909,0 2.9498,-21.49295c0,-26.26338 -2.10826,-34.58828 -6.69544,-25.62003zm3.74564,73.4585c0.42083,1.37343 1.26225,-1.37321 0.84154,-5.49635c0,-4.20242 -0.42071,-4.84949 -1.26225,-2.09913c-0.37513,2.7462 -0.37513,6.22227 0.42071,7.59548zm15.03284,-65.13294c-0.42071,1.37343 -0.42071,11.0722 0.84155,21.49295c1.26684,18.02434 1.64183,18.75004 2.06267,5.57893c0.42071,-21.49668 -0.42084,-31.92116 -2.90422,-27.07188zm-14.1913,195.47767c2.5291,-8.32556 6.69557,-22.22304 9.59966,-30.54794c3.3248,-8.96957 5.43319,-20.76682 6.27473,-32.56472c1.22113,-18.66768 1.22113,-18.66768 1.22113,-18.66768c-5.01248,10.34584 -5.01248,10.34584 -5.01248,10.34584c-2.48338,5.57564 -4.16647,11.79791 -4.16647,13.89748c0,5.49612 -7.91657,40.16348 -10.39995,46.38618c-1.26226,3.47169 -3.37064,11.15084 -3.74564,16.64675c-2.10838,15.91775 1.64184,13.17111 6.22902,-5.49591zm-29.59927,71.35521c1.26684,13.81774 1.26684,13.81774 5.43332,-15.92126c2.48338,-16.00056 6.22901,-41.61577 8.75811,-57.53724c3.3248,-20.11975 4.59164,-36.76649 4.59164,-60.28301c0,-30.54488 -0.42529,-31.19194 -3.75009,-27.71522c-7.53712,8.96869 -11.70805,33.93727 -13.39114,82.42237c-0.79571,24.9734 -1.64184,49.94198 -2.48326,55.43854c-0.42083,5.5752 0,16.00012 0.84142,23.59582zm0.84613,-177.37843c1.63725,6.86978 3.32493,12.44498 3.32493,12.44498c0.42071,0 2.47867,-4.20243 4.16635,-9.69834c2.10825,-4.84555 5.43318,-10.42075 6.69557,-12.44125c4.96663,-6.30506 6.22889,-25.69845 2.06254,-38.86956c-3.32493,-11.79791 -12.50375,-24.97296 -14.19143,-20.77054c-0.84142,1.37321 -2.05796,14.54827 -2.90409,29.81852c-1.68296,22.86945 -1.68296,29.82158 0.84613,39.51619zm-2.52909,-158.71008c0.84154,1.37715 1.68296,0.64706 1.68296,-1.45185c0,-2.75036 -0.84142,-5.497 -1.68296,-6.86999c-1.26684,-1.45601 -2.06268,-0.72615 -2.06268,2.02049c0,2.09914 0.79584,4.8495 2.06268,6.30135zm-135.11289,186.34623c5.80818,0.72987 5.80818,0.72987 5.80818,0.72987c5.85402,0 11.70804,-8.97263 11.70804,-16.64675c0,-4.84949 -0.42071,-4.84949 -17.51622,15.91688zm2.48338,-19.3936c0,2.10395 0.84154,4.20243 2.10838,4.20243c2.05809,0 7.91199,-12.44498 6.64973,-14.54389c-1.26684,-2.829 -8.75811,6.22205 -8.75811,10.34146zm4.59164,-47.75874c6.27486,13.82147 9.17895,15.19468 12.50375,6.22205c3.37064,-8.32118 0.42084,-13.89682 -9.60412,-15.91732c-8.33282,-2.10329 -8.33282,-2.10329 -2.89963,9.69527zm-4.59164,-38.86606c0,1.45185 2.9498,4.84512 6.27473,7.67412c15.40797,13.17133 18.35777,13.17133 17.93694,0.64772c0,-7.59613 -6.27473,-24.24332 -8.75812,-24.24332c-2.9498,0 -15.45355,13.17112 -15.45355,15.92148zm22.5287,98.42336c4.58719,0 5.0079,-2.09957 1.26226,-5.49284c-1.68755,-0.72987 -3.32493,0 -3.74564,2.0205c-0.84613,2.09847 0.42071,3.47234 2.48338,3.47234zm3.32493,-162.83015c-2.90422,-3.47651 -6.65444,-4.84928 -8.3374,-3.47651c-2.9041,2.75036 -2.48339,3.47651 1.68296,5.57498c2.06267,1.37759 6.27944,2.75058 8.33741,3.39765c2.48338,0 2.48338,-1.37715 -1.68297,-5.49612zm-0.375,24.96858c2.47867,0 2.9041,-0.72614 1.21655,-2.82528c-1.21655,-0.64663 -2.90422,-0.64663 -3.74577,0.72636c-0.42071,1.37278 0.84155,2.74664 2.52922,2.09892zm2.47867,15.92169c-5.85389,0 -5.85389,0.64641 -2.47867,6.22205c4.16635,6.22227 5.38289,6.94797 7.07057,2.7462c2.90396,-5.49284 0.84142,-8.96825 -4.5919,-8.96825zm8.33754,-78.30427c-1.68768,-3.47606 -2.10839,2.74664 -1.26239,10.34212c0.42071,4.84949 2.10381,9.05126 2.94994,9.05126c1.63725,0 0.4207,-15.27397 -1.68755,-19.39338zm13.34517,91.47429c-0.84142,0.64773 1.26684,4.8495 3.75022,8.326c2.52909,3.47235 4.58705,4.84534 4.58705,2.74621c0,-4.84884 -7.07043,-13.90055 -8.33727,-11.07221zm-10.44121,4.8495c-3.74564,4.84993 -1.63725,17.29425 3.79148,19.39382c2.90409,1.37299 7.49586,6.94863 10.39995,12.44453c2.52909,5.57564 4.58705,7.67894 4.58705,5.57564c0,-6.94841 -16.67009,-40.24299 -18.77848,-37.41399zm17.09552,57.5379c-2.48325,-11.155 -5.38747,-16.64784 -10.82079,-20.12391c-4.16634,-2.7462 -8.33727,-4.20177 -9.59953,-3.4719c-1.26684,0.7257 3.74564,9.69461 10.8665,20.1193c13.34517,18.02062 13.34517,18.02062 9.55382,3.47651zm22.14912,-106.74936c-0.84154,0 -1.68767,2.74664 -1.68767,5.49284c0,3.47606 0.84613,5.57564 1.68767,5.57564c1.21655,0 2.06268,-2.09958 2.06268,-5.57564c0,-2.7462 -0.84613,-5.49284 -2.06268,-5.49284zm-3.79135,56.80759c0,4.84884 7.11628,1.37321 10.02037,-4.84949c4.16648,-10.42448 3.74564,-13.17112 -1.68755,-13.17112c-3.74563,0 -8.33282,9.69921 -8.33282,18.02061zm12.12876,-149.65947c-1.26684,8.9689 -2.10839,16.56438 -1.68755,17.29446c1.26671,2.74664 4.59177,-18.02017 4.59177,-26.34573c0,-3.47234 -1.26697,0.73009 -2.90422,9.05127zm21.6827,139.96048c-2.10838,0 -3.74576,1.37759 -3.74576,4.12314c0,2.09957 1.21654,3.47672 2.47879,3.47672c1.68755,0 3.32493,-1.37715 3.75023,-3.47672c0.84154,-2.74555 -0.4253,-4.12314 -2.48326,-4.12314zm-5.0126,130.26544c2.48338,12.52799 6.22902,24.24288 8.3374,27.07188c2.10839,2.09957 6.27473,11.79834 8.75812,21.49668c2.48338,9.69504 5.01247,17.29074 5.43331,17.29074c2.05796,0 -2.10839,-63.756 -5.01248,-83.15311c-2.52922,-16.64302 -3.32505,-31.91743 -2.90422,-56.16031c0.375,-18.02017 0,-33.94165 -0.84142,-35.31464c-0.42083,-1.37321 -3.32492,-1.37321 -5.85402,0c-4.59177,2.7462 -5.01247,4.8495 -5.01247,20.12347c0,11.7151 -0.84168,18.02061 -2.90422,20.76615c-5.8539,6.22293 -5.43319,41.53735 0,67.87914zm-12.08292,-92.8475c-0.84154,-10.4247 -1.68296,-11.79791 -6.27473,-11.79791c-5.43331,0 -5.43331,0.72615 -5.01248,15.27025c0,8.97263 0.84601,19.39711 1.26672,24.24266c0.42083,4.8495 2.06267,9.69833 3.74576,10.4247c3.3248,3.4765 7.07044,-20.76616 6.27473,-38.1397zm-6.27473,69.97805c-3.74576,-8.32184 -6.27473,-17.29074 -6.64986,-19.39338c0,-2.7462 -2.10825,-9.69461 -4.58718,-15.91732c-2.52909,-6.22226 -5.43319,-13.90076 -6.70002,-16.6474c-4.16635,-9.69833 -3.32493,-1.37277 1.26683,20.11975c2.9041,14.54761 7.91212,27.71894 13.76601,38.79049c10.82066,18.74631 12.08304,15.2709 2.90422,-6.95214zm-6.64986,34.02029c4.54147,0 4.16648,-0.72571 -2.10825,-11.79725c-4.16648,-6.94907 -7.07057,-14.54454 -7.07057,-18.02083c0,-2.74598 -5.43331,-12.52405 -11.70792,-21.49295c-6.22914,-9.05105 -12.08317,-18.01996 -12.92459,-20.76988c-0.84613,-3.47234 -1.26684,-3.47234 -1.26684,0.64707c0,4.20243 -2.05808,4.84883 -8.75811,2.7462c-4.58718,-1.37343 -8.33282,-1.37343 -8.33282,-0.64335c0,1.37321 1.68296,9.69505 3.37064,18.01996c2.90422,13.8184 4.16635,16.64784 13.3453,22.14024c5.80831,3.47606 14.987,11.79768 20.84103,18.01995c5.43331,6.30572 12.08304,11.15084 14.61213,11.15084zm-65.09814,23.51652c1.68754,0 4.17093,-1.37278 5.85389,-3.47541c2.90422,-4.84578 0.42542,-4.84578 -5.00789,0c-2.48338,2.10263 -2.90409,2.7497 -0.846,3.47541zm-4.58719,-17.29425c4.16648,-2.82484 17.51623,-5.5752 29.64498,-5.5752c22.89925,-0.64707 27.49089,-2.74555 18.31194,-6.94841c-2.90396,-1.37278 -9.55382,-4.8495 -14.98701,-8.32184c-9.59966,-6.22227 -29.22427,-4.12314 -31.28236,2.82593c-0.42529,1.3765 -2.52909,2.10264 -4.59164,1.3765c-4.16647,-2.10286 -8.3374,3.47278 -9.59966,14.54454c-1.68755,8.96825 1.26226,9.69833 12.50375,2.09848zm-33.34491,15.92147c0.84155,5.57564 5.01248,6.22227 8.33741,1.37278c2.05796,-2.74599 2.05796,-4.11876 0,-8.32119c-1.68755,-4.12379 -2.90409,-4.12379 -5.43319,-0.64706c-1.68755,2.02049 -2.90422,5.49284 -2.90422,7.59547zm-13.34529,48.48576c1.63738,0 2.47892,2.09957 1.63738,6.2227c-0.37513,2.829 -1.63738,5.57521 -2.48339,5.57521c-1.26225,0 -2.05808,-2.74621 -2.05808,-5.57521c0,-3.39326 1.21654,-6.2227 2.90409,-6.2227z" stroke-width="1.5" fill="#fff"/>
  <metadata transform="matrix(0.011983479143522548,0,0,0.011983479143522548,0,0) ">Created by potrace 1.16, written by Peter Selinger 2001-2019</metadata>
  <g stroke="null" id="svg_39">
   <g stroke="null" id="svg_24" fill="#000000" transform="matrix(0.09610105088946329,0,0,-0.1565598601760198,-31272.768459574952,-37521.97843638067) ">
    <path stroke="null" stroke-width="0" id="svg_25" d="m326541.48243,-242728.60369c-31,-13 -279,-21 -675,-23c-165,-1 -332,-3 -371,-4l-71,-2l5,-88c3,-59 1,-96 -7,-111c-9,-15 -9,-26 -2,-35c6,-7 9,-73 7,-170c-2,-166 1,-219 14,-211c5,3 7,64 5,135c-3,115 -1,131 14,143c10,6 21,27 24,45c6,30 5,32 -14,21c-18,-9 -20,-8 -17,8c2,12 13,18 30,19c28,1 98,47 98,65c0,5 7,9 15,9c8,0 15,-2 15,-4c0,-13 -31,-75 -43,-85c-13,-10 -23,-38 -32,-91c-1,-8 -10,-35 -19,-59c-30,-81 -63,-250 -36,-186c4,11 15,45 23,75c38,136 71,231 83,241c8,6 14,18 14,26c0,38 91,163 119,163c5,0 22,14 39,30c30,28 37,30 112,30l81,0l-1,-57c0,-32 0,-78 0,-103c0,-25 -6,-58 -12,-73c-9,-23 -8,-31 3,-38c11,-7 12,-12 1,-29c-10,-17 -10,-24 3,-44c10,-15 15,-42 14,-73c-1,-26 1,-58 5,-71c5,-14 3,-29 -5,-38c-9,-11 -9,-18 -1,-26c16,-16 15,-61 0,-77c-11,-10 -10,-15 4,-25c15,-11 17,-25 12,-96c-3,-46 -7,-87 -10,-91c-2,-4 0,-10 5,-13c10,-7 8,-316 -2,-333c-4,-7 -8,-32 -9,-57c0,-37 -6,-50 -37,-80c-47,-46 -83,-56 -198,-56c-55,0 -93,-4 -93,-10c0,-5 -1,-12 -2,-15c-2,-3 116,-7 262,-10c146,-3 346,-7 446,-10c171,-3 181,-2 192,16c7,11 10,23 8,28c-3,4 -53,11 -112,14c-83,5 -112,11 -134,27c-27,20 -28,22 -32,142c-2,68 -1,131 4,141c5,10 5,17 -1,17c-19,0 -23,41 -6,66c10,15 13,30 8,37c-5,7 -8,30 -6,52c10,183 14,293 13,365c-2,125 -10,427 -12,485l-3,50l49,3c61,4 98,-11 158,-62c33,-28 46,-46 42,-58c-4,-12 2,-17 23,-20c22,-2 33,-12 48,-45c11,-23 26,-42 33,-43c9,0 12,-10 10,-27c-2,-18 4,-34 15,-43c11,-9 23,-34 27,-55c13,-67 50,-208 62,-237c13,-34 26,-36 33,-5c10,49 21,383 13,394c-6,8 -3,25 8,49c13,28 15,39 6,42c-15,5 -15,35 0,50c9,9 8,12 -5,12c-14,0 -17,8 -15,36c2,37 -18,62 -36,44c-11,-11 -96,-2 -110,11c-13,11 -44,10 -76,-2zm-502,-45c15,-5 21,-12 17,-22c-4,-12 -1,-12 19,2c14,9 32,16 40,16c19,0 30,-31 14,-42c-9,-5 -9,-8 -1,-8c6,0 25,14 42,31c42,41 65,36 69,-17c3,-40 1,-43 -55,-81c-32,-22 -60,-48 -61,-58c-4,-17 13,-35 33,-35c6,0 4,4 -4,9c-10,6 -2,16 32,40c25,17 49,31 53,31c3,0 4,-18 0,-41c-4,-26 -3,-38 4,-34c17,11 11,-17 -7,-31c-17,-13 -17,-15 4,-31c21,-17 22,-20 8,-47c-11,-20 -12,-33 -5,-40c20,-20 11,-44 -19,-51c-16,-3 -35,-13 -42,-21c-6,-8 -27,-14 -46,-14c-28,0 -34,-3 -31,-17c4,-18 9,-19 43,-8c19,6 19,6 2,-8c-13,-11 -15,-17 -6,-22c7,-5 16,-1 21,9c5,9 15,16 22,16c7,0 21,9 31,20c10,11 22,17 26,14c15,-9 10,-44 -5,-44c-8,0 -21,-6 -28,-14c-21,-20 -59,-30 -68,-17c-3,7 -14,9 -23,6c-16,-7 -17,-35 -2,-68c6,-14 -3,-29 -36,-65c-63,-66 -72,-73 -81,-59c-12,19 -10,25 27,58c19,18 32,36 29,41c-3,5 2,18 12,29c26,29 11,33 -20,4c-27,-25 -56,-33 -56,-16c0,5 21,28 48,51c46,40 46,41 17,36c-16,-2 -38,-8 -49,-12c-14,-5 -17,-3 -15,11c4,19 66,69 129,104c19,11 28,21 20,21c-9,1 -5,5 8,11c31,12 18,31 -16,22c-30,-7 -51,-30 -52,-55c0,-10 -6,-15 -18,-11c-10,2 -26,-5 -36,-16c-24,-26 -46,-27 -46,-2c0,12 16,29 43,44c23,14 53,37 66,51c14,14 31,26 38,26c8,0 16,7 19,15c4,8 13,15 22,15c12,0 13,3 4,12c-9,9 -17,7 -35,-10c-13,-12 -29,-22 -35,-22c-7,0 -12,-7 -12,-15c0,-8 -5,-15 -12,-15c-6,0 -19,-6 -27,-14c-9,-7 -28,-16 -43,-20c-23,-5 -28,-3 -28,12c0,10 6,24 12,30c10,10 10,15 1,20c-17,10 -11,81 7,94c13,8 13,9 -1,5c-12,-4 -15,0 -11,19c2,13 -1,30 -7,38c-9,10 -8,21 1,42c10,22 10,28 0,32c-6,2 -12,16 -12,32c0,36 21,46 68,34zm212,-548c0,-13 -13,-40 -30,-61c-36,-46 -39,-61 -6,-40c31,21 37,10 29,-54c-6,-52 -16,-66 -82,-111c-11,-8 -21,-19 -21,-25c0,-5 -12,-18 -28,-29c-15,-10 -36,-32 -47,-49c-11,-16 -31,-37 -44,-46c-23,-15 -23,-15 -16,17c4,21 3,32 -4,32c-16,0 -11,118 7,160c16,37 208,229 230,230c6,0 12,-11 12,-24zm-22,-371c2,-16 -2,-47 -9,-69c-10,-31 -11,-40 -1,-44c17,-5 15,-33 -4,-60c-14,-21 -14,-22 5,-22c24,0 26,-8 9,-47c-17,-39 -62,-82 -133,-128c-33,-21 -78,-53 -99,-71c-59,-51 -77,-41 -23,11c43,41 62,85 37,85c-5,0 -10,6 -10,14c0,17 103,126 118,126c6,0 13,4 16,9c7,11 -45,1 -61,-11c-7,-6 -10,-15 -7,-20c4,-6 -2,-8 -14,-4c-14,5 -24,1 -31,-11c-7,-13 -13,-15 -21,-7c-19,19 0,62 36,85c19,11 34,24 34,28c0,4 11,14 25,21c29,15 33,30 8,30c-14,0 -14,2 2,20c10,11 13,20 7,20c-6,0 -18,-10 -26,-21c-16,-24 -76,-63 -83,-55c-8,8 48,69 87,95c21,14 36,19 38,12c6,-18 20,-13 49,19c32,36 47,34 51,-5zm14,-367c5,-98 -8,-118 -73,-118c-27,0 -49,2 -49,5c0,12 56,54 73,55c9,0 17,5 17,11c0,6 -9,9 -20,6c-11,-3 -22,-1 -25,4c-3,5 -22,-6 -41,-23c-32,-30 -84,-58 -105,-58c-24,0 -3,29 44,60c28,19 69,47 89,63c33,25 38,26 46,11c6,-11 11,-13 16,-5c4,6 0,14 -8,17c-19,7 -21,30 -3,37c31,13 35,6 39,-65z"/>
    <path stroke="null" stroke-width="0" id="svg_26" d="m335996.48243,-242744.60369c-101,-6 -116,-11 -109,-37c5,-23 -32,-150 -61,-207c-8,-15 -15,-40 -15,-55c0,-15 -6,-35 -13,-43c-15,-18 -28,-57 -52,-151c-9,-36 -21,-74 -25,-85c-5,-11 -14,-42 -20,-70c-6,-27 -24,-90 -40,-140c-16,-49 -38,-123 -50,-162c-13,-40 -27,-73 -32,-73c-4,0 -13,12 -18,28c-6,15 -15,35 -20,44c-6,10 -10,26 -10,37c0,10 -7,21 -14,24c-18,7 -57,89 -87,182c-12,39 -26,78 -30,87c-5,10 -9,27 -9,37c0,11 -5,23 -10,26c-6,3 -7,17 -4,29c4,16 0,25 -10,29c-9,4 -16,15 -16,26c0,11 -9,36 -20,56c-11,20 -20,43 -20,52c0,19 -18,79 -31,105c-5,10 -6,24 -3,33c4,9 -1,24 -11,35c-11,13 -15,28 -11,44c4,16 1,26 -9,30c-11,4 -15,20 -15,56l0,50l-197,0c-109,1 -244,3 -300,6c-73,4 -103,3 -103,-5c0,-15 33,-27 106,-40c50,-9 65,-17 96,-51c71,-79 82,-116 84,-285c1,-82 7,-204 12,-270c6,-66 14,-165 17,-220c3,-55 11,-158 16,-229c14,-169 8,-207 -42,-261c-49,-53 -73,-62 -172,-68c-81,-4 -101,-11 -77,-28c10,-7 60,-8 140,-3c69,4 186,8 260,9c74,1 145,5 158,9c30,10 23,32 -9,29c-77,-8 -96,-6 -130,17c-62,41 -70,66 -90,275c-9,105 -22,231 -28,280c-5,50 -13,189 -16,310c-4,121 -8,249 -10,285c-2,65 2,100 14,100c3,0 21,-31 40,-68c23,-47 31,-76 27,-90c-5,-16 -3,-22 8,-22c17,0 29,-30 21,-52c-4,-9 1,-18 10,-22c12,-4 14,-10 5,-25c-13,-26 -13,-31 5,-31c8,0 16,-6 17,-12c0,-7 2,-18 2,-24c1,-6 7,-18 14,-27c20,-23 41,-123 42,-190c0,-40 3,-56 11,-51c15,9 29,-14 29,-48c0,-18 5,-28 14,-28c15,0 32,-37 23,-47c-3,-3 5,-24 19,-48c13,-24 24,-52 24,-61c0,-10 9,-28 21,-40c17,-18 19,-26 9,-43c-9,-17 -8,-22 4,-27c15,-6 66,-88 66,-105c0,-5 8,-28 18,-52c36,-81 62,-152 62,-169c0,-13 19,-28 34,-28c2,0 6,22 9,50c6,51 26,118 82,275c18,50 45,131 60,180c16,50 39,122 52,160c12,39 29,95 37,125c31,118 68,246 82,277c8,17 17,52 20,77c4,25 13,51 20,57c8,6 14,19 14,28c0,23 12,37 38,45c19,6 22,4 22,-17c0,-16 -7,-26 -20,-30c-31,-8 -24,-27 10,-27c32,0 33,-1 35,-130c0,-19 3,-40 8,-47c9,-15 1,-116 -12,-140c-6,-12 -6,-25 0,-35c10,-18 6,-199 -5,-217c-4,-6 -3,-27 3,-47c7,-24 7,-73 0,-148c-6,-61 -10,-144 -10,-183c0,-53 -5,-77 -16,-89c-13,-13 -14,-17 -3,-24c11,-7 11,-15 -1,-46c-12,-31 -21,-39 -59,-51c-25,-7 -70,-17 -100,-21c-66,-9 -68,-28 -2,-25c152,4 284,13 293,18c5,4 15,2 22,-3c14,-12 339,6 434,24c53,10 35,30 -23,24c-27,-3 -88,-5 -136,-5c-121,0 -123,2 -125,156c0,66 -4,123 -7,126c-7,7 3,54 15,69c5,6 4,15 -1,20c-6,6 -6,22 -1,42c5,17 6,34 2,37c-5,2 -5,24 -1,47c5,24 11,115 15,203c5,107 12,167 21,182c11,18 11,22 -2,27c-14,5 -15,26 -12,145c3,120 6,142 22,160c17,19 17,21 3,21c-19,0 -21,20 -7,71c15,55 48,71 147,73c68,1 83,4 81,16c-3,13 -36,15 -223,16c-121,0 -242,-1 -270,-3zm105,-53c0,-6 -12,-15 -27,-21c-17,-7 -23,-13 -15,-16c7,-3 24,2 37,11c25,16 65,22 65,9c0,-16 -53,-61 -66,-56c-8,3 -14,0 -14,-5c0,-10 -19,-20 -93,-51c-37,-15 -36,-16 -34,24c3,42 27,73 67,87c17,5 30,14 30,19c0,5 11,9 25,9c14,0 25,-5 25,-10zm-900,-76c-10,-11 -9,-14 4,-14c13,0 16,-5 11,-20c-4,-12 -2,-20 5,-20c7,0 9,-7 6,-15c-3,-9 0,-18 8,-21c9,-3 12,-19 10,-48c-3,-32 0,-45 11,-50c22,-8 19,-21 -7,-33c-22,-10 -22,-10 10,-17c35,-8 42,-29 15,-45c-10,-6 -12,-11 -5,-11c24,0 11,-30 -20,-46c-18,-9 -44,-25 -57,-35c-28,-23 -41,-24 -41,-5c0,8 -7,22 -16,31c-14,14 -15,18 0,39c14,23 14,24 -5,19c-15,-4 -18,-2 -12,12c4,13 3,16 -5,11c-7,-4 -12,-1 -12,8c0,8 16,24 35,36c32,20 43,39 29,52c-3,3 -17,-5 -31,-18c-32,-30 -63,-32 -63,-4c0,11 4,20 9,20c5,0 12,11 15,25c3,13 19,31 34,39c15,9 22,15 16,16c-5,0 -25,-11 -44,-25c-19,-14 -40,-25 -47,-25c-24,0 -13,29 22,55c19,15 37,36 40,46c5,14 12,18 25,14c10,-3 21,-1 25,5c3,5 0,10 -7,10c-7,0 -2,9 12,20c14,10 26,24 26,29c3,24 7,25 11,3c3,-13 -1,-30 -7,-38zm1035,27c3,-5 1,-12 -5,-16c-5,-3 -7,-17 -4,-30c3,-12 1,-26 -4,-29c-7,-4 -7,-18 -1,-41c8,-29 8,-74 -1,-226c0,-4 -11,-10 -25,-13c-14,-4 -23,-11 -20,-15c9,-16 -7,-42 -31,-52c-13,-4 -24,-15 -24,-23c0,-7 -13,-16 -28,-19c-15,-3 -42,-19 -60,-36c-27,-27 -62,-41 -62,-26c0,14 25,55 34,55c6,0 23,11 38,25c15,14 30,25 34,25c15,0 65,43 61,53c-4,14 21,41 46,50c26,10 20,27 -10,27c-31,0 -64,-26 -56,-45c5,-14 -53,-74 -72,-75c-6,0 -19,-10 -29,-21c-13,-16 -20,-18 -29,-9c-9,8 -3,19 26,46c41,38 47,55 17,47c-11,-3 -20,-9 -20,-14c0,-5 -7,-9 -15,-9c-10,0 -15,10 -15,28c1,27 6,33 84,86c29,19 35,27 23,32c-17,6 -63,-20 -71,-42c-6,-14 -37,-19 -49,-7c-16,15 57,95 79,86c13,-5 27,24 19,38c-6,9 -23,-2 -52,-32c-9,-10 -25,-14 -40,-11c-21,4 -24,9 -18,31c6,27 56,81 74,81c16,0 105,49 116,64c17,22 79,33 90,17zm-915,-397c0,-4 -8,-13 -17,-21c-16,-12 -15,-13 11,-7c26,6 27,5 17,-13c-5,-11 -7,-24 -3,-28c4,-3 3,-5 -3,-3c-5,2 -10,-1 -10,-7c0,-5 6,-9 13,-9c6,1 12,-4 12,-11c0,-7 7,-16 16,-19c8,-3 12,-10 9,-16c-3,-5 -1,-10 4,-10c6,0 11,-9 11,-19c0,-11 4,-21 10,-23c5,-1 10,-18 12,-36c1,-19 6,-36 10,-38c15,-9 8,-20 -24,-38c-31,-19 -31,-19 -9,-28c13,-4 30,-4 40,2c18,9 31,4 31,-11c0,-4 -18,-16 -41,-27c-40,-20 -41,-20 -36,-1c7,27 2,25 -51,-27c-37,-36 -48,-42 -50,-29c-2,9 1,22 6,27c12,12 -2,30 -30,41c-21,7 -23,28 -7,44c9,9 5,14 -15,19c-26,6 -36,36 -16,49c6,3 10,13 10,22c0,12 -3,13 -13,4c-8,-6 -17,-8 -20,-5c-7,8 14,54 25,54c4,0 8,5 8,10c0,7 -7,7 -20,0c-32,-17 -43,-2 -23,31c10,16 22,29 28,29c5,0 16,9 23,20c7,11 21,20 32,20c11,0 20,5 20,11c0,5 -4,7 -10,4c-20,-13 -9,14 12,29c24,17 38,20 38,10zm797,-349c-27,-19 -21,-35 7,-22c13,6 22,17 19,23c-5,13 24,27 38,18c11,-7 11,-45 0,-63c-6,-9 -5,-21 2,-32c8,-13 8,-21 -2,-32c-9,-12 -9,-16 0,-19c9,-3 9,-9 0,-25c-6,-12 -8,-24 -3,-27c4,-2 5,-28 2,-57c-5,-49 -8,-55 -49,-76c-1,-1 3,-11 11,-22c8,-12 18,-18 21,-14c4,3 7,2 7,-4c0,-6 -10,-17 -22,-25c-25,-17 -15,-43 17,-43c28,0 25,-29 -2,-33c-13,-2 -23,-7 -23,-12c0,-5 10,-10 23,-12c15,-2 23,-11 25,-30c4,-34 -21,-49 -103,-61c-99,-14 -100,-14 -98,6c1,15 -4,17 -22,13c-19,-5 -22,-3 -18,13c2,10 18,28 34,40c36,27 39,50 3,26c-32,-21 -41,-13 -25,21c6,14 9,41 5,58c-5,29 -1,36 28,60c18,14 38,31 45,36c7,6 18,10 25,11c9,0 9,2 1,5c-6,3 -30,-4 -52,-15c-22,-12 -43,-21 -47,-21c-15,0 8,66 29,82l22,18l-25,-3c-24,-2 -25,0 -26,55c0,52 3,61 30,87c52,50 121,99 130,93c5,-3 2,-10 -7,-17zm-659,-45c17,0 15,-20 -3,-26c-8,-4 -15,-12 -15,-20c0,-8 -10,-14 -22,-15c-13,0 -18,-3 -11,-5c7,-3 10,-11 7,-19c-8,-21 35,-6 49,16c12,19 47,27 47,10c0,-4 -27,-27 -60,-50c-68,-48 -88,-71 -36,-42c20,11 43,18 51,15c9,-4 24,1 35,11c29,26 49,13 46,-29c-2,-22 1,-33 7,-29c6,4 8,-1 4,-13c-3,-10 -12,-41 -20,-69c-29,-100 -64,-189 -75,-193c-7,-2 -22,17 -33,43c-18,41 -19,48 -6,63c13,14 13,19 1,30c-7,6 -20,12 -29,12c-9,0 -15,9 -15,23c0,17 14,33 50,58c48,33 70,60 31,40c-10,-6 -21,-8 -24,-5c-3,4 -18,-3 -33,-15c-15,-11 -33,-21 -40,-21c-23,0 -28,23 -8,37c16,12 17,15 4,23c-8,5 -21,10 -27,10c-18,0 -16,25 2,40c8,7 15,16 15,21c0,5 -7,9 -15,9c-8,0 -15,-4 -15,-10c0,-19 -21,-10 -29,13c-7,17 -4,24 10,29c11,4 22,14 25,23c4,8 11,15 18,15c6,0 25,11 41,24c26,21 32,23 46,10c8,-8 21,-14 27,-14z"/>
    <path stroke="null" stroke-width="0" id="svg_27" d="m332725.48243,-242757.60369c-11,-4 -124,-7 -252,-6c-215,1 -232,0 -232,-16c0,-14 9,-18 43,-19c75,-3 119,-1 157,5c58,9 67,-5 81,-123c6,-57 9,-128 6,-157c-3,-30 -2,-68 3,-86c5,-18 11,-73 14,-121c5,-109 -5,-117 -64,-53c-26,28 -56,50 -79,56c-126,35 -244,-22 -373,-182c-15,-18 -39,-46 -53,-63c-22,-25 -26,-36 -21,-68c5,-26 1,-48 -13,-75c-14,-28 -16,-41 -8,-54c8,-12 7,-21 -3,-33c-17,-21 -17,-94 0,-105c9,-6 14,-28 15,-62c0,-38 5,-57 18,-66c9,-7 17,-19 17,-26c0,-7 17,-32 38,-56c20,-24 51,-68 67,-99c25,-46 35,-57 60,-59c17,-2 38,-11 48,-20c24,-21 114,-23 183,-4c55,16 139,83 178,144c10,15 22,25 27,22c12,-7 11,-121 -1,-129c-27,-17 5,-20 190,-22l200,-2l0,24c0,26 -17,35 -64,35c-31,0 -90,35 -108,62c-4,7 -7,51 -7,98c0,47 -3,117 -6,155c-19,185 -21,370 -6,389c8,9 7,18 -3,32c-10,13 -11,23 -4,31c6,7 8,23 5,35c-3,11 -2,29 4,39c6,11 5,20 -1,24c-6,3 -8,16 -5,28c3,12 7,54 9,93c2,40 7,77 11,84c11,17 6,306 -5,336c-10,25 -29,29 -66,14zm7,-141c-26,-25 -27,-32 -1,-24c15,5 20,2 20,-14c0,-11 -7,-26 -15,-35c-14,-13 -14,-16 1,-24c21,-11 11,-49 -15,-57c-11,-3 -21,-14 -23,-23c-4,-15 0,-17 26,-14c28,5 29,4 13,-12c-10,-10 -27,-15 -44,-13c-15,2 -35,0 -45,-4c-13,-7 -14,-13 -5,-34c13,-27 27,-33 27,-12c0,7 15,18 33,25c43,16 50,15 43,-3c-3,-8 -1,-26 4,-39c7,-19 4,-30 -11,-50c-11,-14 -27,-26 -34,-26c-8,0 -17,-5 -21,-12c-5,-8 2,-9 25,-5c23,5 33,3 38,-8c6,-18 -37,-86 -52,-82c-5,2 -15,-1 -22,-7c-44,-39 -44,-39 -68,-26c-43,23 -38,46 18,87c46,34 49,38 29,41c-13,2 -31,-3 -40,-11c-19,-16 -42,-12 -42,6c0,7 16,23 34,35c23,16 33,29 29,39c-5,14 -9,13 -24,-5c-17,-22 -38,-29 -40,-14c-10,66 -8,77 18,103c43,41 54,57 44,63c-5,3 -14,0 -20,-8c-16,-19 -54,-8 -45,13c4,9 7,29 6,44c-1,20 6,32 27,45c15,9 26,22 24,28c-2,6 16,17 39,25c24,7 52,25 63,38c18,22 20,23 23,7c2,-10 -6,-27 -17,-37zm-304,-410c34,-12 72,-57 73,-83c0,-11 12,-38 27,-59c26,-37 28,-48 29,-141c0,-56 6,-110 12,-122c6,-11 11,-40 11,-65c0,-24 0,-51 1,-59c0,-8 -2,-49 -5,-90c-7,-91 -35,-155 -100,-227c-47,-53 -47,-53 -108,-53c-61,0 -61,0 -109,52c-47,50 -59,80 -38,93c15,9 12,25 -5,25c-9,0 -16,10 -16,23c-3,42 -6,65 -13,82c-3,10 -1,24 5,31c6,7 7,19 3,26c-20,31 -6,318 16,360c5,10 7,24 4,33c-4,10 2,24 15,36c12,11 19,24 16,29c-7,11 21,78 42,102c19,21 94,25 140,7zm311,-208c8,-25 -8,-59 -33,-65c-14,-4 -25,-11 -25,-17c0,-6 7,-8 15,-5c8,3 22,9 30,12c12,5 15,-5 13,-57c0,-35 -5,-74 -10,-87c-5,-15 -4,-21 2,-17c6,4 10,-8 10,-29c0,-27 -4,-36 -17,-36c-14,0 -13,-3 5,-23c17,-18 22,-36 22,-79l0,-56l-47,-26c-46,-26 -46,-26 -64,-7c-23,24 -17,44 17,60c31,14 29,45 -4,49c-28,4 -29,19 -1,27c22,7 22,36 0,43c-9,3 -11,0 -5,-9c6,-12 5,-12 -8,-1c-13,10 -16,26 -13,63c2,27 6,53 10,59c3,5 -1,10 -10,10c-9,0 -14,4 -11,9c13,21 15,82 3,87c-17,6 -16,47 2,68c10,12 23,15 40,12c22,-5 23,-4 9,4c-10,6 -18,15 -18,20c0,13 83,5 88,-9zm-570,-65c2,-22 -3,-47 -12,-60c-10,-16 -11,-27 -4,-34c14,-14 -16,-57 -55,-76c-45,-22 -85,-56 -68,-56c8,0 22,6 30,14c16,14 88,56 96,56c3,0 5,-8 5,-18c0,-22 -26,-48 -55,-55c-19,-4 -18,-5 2,-6c12,0 25,4 28,9c3,6 10,10 16,10c13,0 11,-97 -2,-105c-6,-5 -4,-12 8,-20c17,-13 17,-14 -1,-34c-17,-19 -17,-21 -3,-21c20,0 23,-26 5,-33c-10,-3 -10,-8 1,-21c12,-14 11,-20 -9,-41c-13,-14 -20,-28 -17,-32c4,-3 7,-1 7,6c0,18 54,9 58,-10c2,-12 -6,-16 -40,-16c-24,0 -51,-4 -60,-8c-13,-5 -18,-3 -18,9c0,9 4,16 8,16c4,0 15,16 24,35l16,36l-29,6c-30,6 -40,23 -14,23c8,0 15,7 15,16c0,10 -6,14 -15,10c-18,-6 -20,16 -4,45c10,19 9,19 -10,9c-12,-6 -21,-17 -21,-25c0,-19 -21,-19 -45,-1c-19,14 -19,16 -2,50c9,20 22,36 28,36c15,0 7,43 -10,48c-8,3 -11,0 -7,-6c3,-5 -5,-17 -19,-26c-29,-19 -45,-3 -22,22c9,9 19,30 23,45c3,16 14,31 23,34c24,9 55,43 38,43c-7,0 -18,-5 -24,-11c-15,-15 -63,0 -63,20c0,9 18,34 41,55c38,34 39,38 20,43c-12,3 -21,8 -21,12c1,13 28,41 41,41c10,0 10,-3 1,-12c-16,-16 -15,-38 1,-38c7,0 31,13 53,30c21,16 44,28 49,26c6,-1 11,-19 13,-40z"/>
    <path stroke="null" stroke-width="0" id="svg_28" d="m338461.48243,-242756.60369c-9,-5 -120,-9 -249,-8c-128,1 -235,-2 -238,-6c-3,-5 -1,-13 3,-17c13,-13 142,-18 191,-8c65,14 79,1 88,-79c4,-37 9,-115 10,-173c1,-58 5,-156 10,-217c9,-132 5,-137 -58,-67c-45,48 -83,63 -166,64c-59,0 -168,-58 -221,-119c-23,-25 -52,-58 -66,-74c-72,-79 -78,-88 -75,-133c1,-24 -5,-56 -13,-72c-8,-16 -12,-39 -9,-51c3,-11 1,-27 -4,-34c-14,-17 -10,-92 5,-110c13,-15 20,-93 9,-103c-3,-4 5,-15 18,-26c14,-11 25,-26 25,-34c0,-8 16,-31 35,-53c28,-31 32,-40 20,-45c-29,-11 -16,-86 16,-86c21,0 24,16 9,54c-16,43 -1,29 23,-21c18,-40 28,-49 52,-51c17,-2 37,-9 45,-16c36,-32 99,-34 190,-9c43,12 68,28 113,72c32,31 63,66 68,79c5,12 13,22 18,22c15,0 25,-104 12,-128c-6,-11 -11,-22 -11,-24c0,-2 90,-4 200,-5c184,-1 200,0 200,16c0,27 -21,41 -64,41c-32,1 -50,8 -80,34l-38,33l-4,129c-2,71 -8,190 -13,264c-8,128 -6,219 4,248c3,7 0,22 -5,33c-6,11 -8,24 -4,30c4,6 8,59 10,118c4,98 10,186 15,186c1,0 3,61 5,135c6,195 -13,247 -76,211zm30,-116c0,-9 -6,-18 -14,-21c-23,-9 -28,-33 -5,-27c24,7 27,-28 3,-48c-14,-12 -14,-14 0,-25c20,-14 12,-38 -20,-59c-34,-22 -32,-44 4,-37c25,5 26,4 13,-12c-11,-13 -23,-16 -45,-12c-45,8 -59,-4 -43,-37c13,-28 27,-36 27,-14c0,7 16,19 36,26c38,14 55,8 36,-11c-8,-8 -9,-15 -1,-25c18,-21 1,-61 -31,-78c-38,-20 -38,-29 0,-21c26,5 30,2 30,-15c0,-22 -36,-74 -50,-74c-5,0 -20,-10 -35,-23c-33,-29 -55,-25 -75,11c-14,26 -14,29 10,48c14,11 35,24 48,29c12,5 22,16 22,24c0,17 -41,9 -53,-11c-6,-10 -13,-11 -28,-2c-20,10 -20,12 -4,30c10,10 26,21 36,24c11,4 19,13 19,22c0,10 -6,13 -16,9c-9,-3 -18,-6 -20,-6c-3,0 -2,-4 1,-10c3,-5 -3,-10 -14,-10c-18,0 -21,6 -21,50c0,43 4,52 23,61c12,5 27,21 34,34c11,26 5,33 -13,15c-6,-6 -17,-8 -25,-5c-14,5 -15,16 -10,98c1,4 15,13 32,19c22,7 27,14 20,21c-8,8 2,15 31,25c24,8 49,23 56,33c16,23 42,25 42,4zm-329,-435c39,-11 64,-40 75,-86c4,-16 15,-39 26,-50c26,-29 46,-153 30,-188c-10,-22 -2,-67 19,-101c7,-11 4,-148 -5,-233c-7,-66 -44,-139 -100,-198c-43,-44 -46,-46 -98,-43c-70,3 -87,12 -125,64c-34,45 -41,69 -23,80c17,11 11,25 -11,25c-13,0 -19,5 -16,13c2,7 1,35 -3,62c-4,28 -4,57 1,66c4,9 5,20 1,23c-21,22 -5,357 19,372c4,2 6,11 2,20c-3,8 1,22 10,32c8,9 17,33 21,52c3,19 15,50 26,68c18,29 24,32 67,32c27,0 64,-5 84,-10zm265,-201c4,-8 9,-8 17,0c15,15 24,14 31,-5c10,-27 -3,-53 -36,-70c-16,-8 -28,-18 -25,-21c3,-2 15,1 27,7c32,17 41,-2 35,-73c-4,-67 -18,-89 -49,-81c-14,3 -28,-1 -36,-11c-22,-26 -1,-31 40,-8c44,24 50,21 50,-20c0,-22 -4,-28 -15,-23c-21,8 -19,-7 4,-28c14,-12 19,-32 20,-75l1,-58l-45,-24c-25,-13 -45,-26 -45,-29c0,-3 19,-5 42,-5c39,0 43,-2 46,-27c3,-23 -1,-28 -20,-28c-13,-1 -34,-7 -48,-15c-33,-19 -37,-19 -43,5c-4,17 -2,20 14,15c10,-4 19,-2 19,4c0,17 -33,81 -42,81c-19,0 -6,30 21,46c32,19 32,54 0,54c-23,0 -25,18 -4,26c16,7 21,44 5,44c-5,0 -7,-8 -3,-17c4,-13 1,-12 -11,4c-16,21 -16,98 -1,123c3,5 -1,10 -9,10c-16,0 -22,21 -9,34c11,11 11,50 0,58c-6,3 -11,17 -13,31c-3,33 27,61 58,52c20,-5 20,-4 6,5c-10,6 -18,15 -18,20c0,14 27,13 36,-1zm-524,-80c-2,-24 -8,-49 -14,-56c-5,-7 -7,-17 -3,-23c14,-22 -5,-55 -42,-75c-21,-11 -40,-23 -43,-26c-3,-3 -15,-11 -27,-18c-15,-7 -23,-21 -23,-36c0,-16 -6,-25 -15,-25c-8,0 -15,-5 -15,-12c0,-9 -3,-9 -11,-1c-9,9 -6,19 10,39c11,15 21,35 21,45c0,11 4,19 8,19c5,0 22,11 38,25c29,25 20,34 -15,16c-28,-16 -63,-2 -59,23c3,23 165,159 183,153c5,-2 9,-23 7,-48zm-4,-166c-2,-10 -18,-27 -36,-39c-18,-13 -29,-25 -24,-28c5,-3 18,1 28,9c10,8 22,15 26,15c8,0 2,-86 -7,-100c-4,-6 -1,-18 6,-26c10,-12 10,-20 1,-35c-10,-16 -9,-19 3,-19c20,0 19,-9 -2,-33c-17,-18 -17,-19 1,-29c17,-9 16,-11 -4,-25c-14,-10 -25,-12 -32,-5c-6,6 -6,12 1,16c21,13 11,26 -21,26c-30,1 -31,2 -15,14c21,16 23,48 2,40c-17,-7 -19,9 -5,37c6,10 7,19 3,19c-14,0 -29,-14 -36,-32c-7,-19 -27,-25 -27,-8c0,6 -7,10 -16,10c-13,0 -15,6 -9,27c9,37 23,53 41,46c8,-3 14,0 14,6c0,6 -4,11 -10,11c-5,0 -7,6 -4,14c3,8 0,17 -6,21c-11,7 4,20 50,41c8,4 17,10 20,13c8,9 44,30 53,30c5,1 7,-7 5,-16z"/>
    <path stroke="null" stroke-width="0" id="svg_29" d="m327924.48243,-242800.60369c-7,-12 -5,-13 77,-26c41,-7 81,-18 89,-26c17,-17 24,-77 24,-225c1,-125 -2,-150 -22,-174c-11,-14 -11,-16 3,-16c22,0 23,-92 1,-110c-20,-16 -19,-30 1,-30c14,0 16,-10 12,-64c-2,-42 -10,-71 -21,-84c-23,-25 -22,-35 3,-27c15,5 20,2 20,-13c0,-11 -7,-25 -15,-32c-19,-15 -19,-30 -1,-30c10,0 14,-39 18,-187c6,-245 1,-290 -35,-317c-17,-13 -44,-21 -76,-22c-51,-1 -71,-9 -71,-25c0,-11 33,-10 260,11c106,9 138,8 210,-5c90,-17 168,-17 420,4c113,10 147,9 209,-4c88,-18 128,-19 160,-2c46,23 34,33 -46,36c-46,1 -87,8 -100,17c-12,8 -31,14 -42,14c-10,0 -22,7 -25,16c-10,26 -7,69 6,82c8,8 8,15 -1,26c-10,12 -9,21 5,46c10,16 22,30 26,30c4,0 8,7 8,15c0,8 -8,15 -18,15c-28,0 -34,11 -17,36c13,21 13,24 -3,33c-16,9 -16,12 2,46c18,33 18,36 2,48c-15,11 -18,39 -21,240c-3,187 -1,229 11,241c16,16 19,36 5,36c-4,0 -11,39 -14,87c-5,73 -4,90 10,106c15,16 15,19 3,27c-8,5 -15,24 -15,42c0,43 -17,48 -28,9c-4,-17 -12,-31 -17,-31c-6,0 -10,-4 -10,-10c0,-5 7,-7 15,-4c8,4 15,2 15,-4c0,-17 -27,-63 -50,-84c-12,-11 -19,-23 -15,-26c3,-3 12,4 21,16c8,12 22,22 30,22c20,0 18,-40 -3,-56c-17,-13 -17,-14 5,-20c30,-9 28,-30 -5,-43c-55,-23 -118,-59 -119,-67c0,-5 -4,-17 -9,-27c-15,-34 3,-28 56,21c65,59 99,74 99,42c0,-12 -9,-24 -22,-30c-13,-5 -18,-9 -13,-10c6,0 4,-4 -4,-9c-8,-5 -16,-16 -17,-25c-2,-13 2,-14 18,-5c11,6 23,8 26,4c9,-9 -54,-65 -74,-65c-16,0 -16,-1 1,-14c16,-12 21,-11 39,5c11,11 23,19 28,19c14,0 9,-60 -6,-66c-17,-7 -10,-34 7,-31c8,1 12,-24 12,-81c0,-77 -2,-85 -25,-104l-25,-21l28,7c39,9 35,-11 -12,-54c-41,-37 -88,-52 -77,-24c4,9 -7,5 -26,-11c-29,-24 -32,-25 -41,-9c-8,14 -3,23 23,46c36,29 36,38 1,41c-25,2 -27,16 -6,43c19,25 19,42 -1,61c-14,15 -13,18 13,39c27,22 27,23 4,17c-20,-5 -23,-3 -18,11c4,9 3,14 -2,11c-5,-3 -13,0 -16,6c-4,6 11,29 34,51c42,42 49,69 8,30c-39,-36 -67,-21 -32,18c15,16 10,60 -6,60c-17,0 -9,62 11,91c21,28 21,28 1,41c-16,10 -18,16 -9,32c14,26 49,55 67,56c11,0 11,3 1,15c-10,12 -8,19 11,36c19,16 20,18 4,10c-11,-5 -33,-23 -49,-40c-17,-17 -33,-31 -38,-31c-16,0 -8,49 11,62c10,7 19,17 19,23c0,5 9,12 19,16c17,7 17,8 -2,8c-16,1 -13,7 18,32c21,17 36,34 33,36c-3,3 -24,-11 -47,-31c-42,-36 -59,-44 -59,-28c0,17 57,60 95,72c22,7 50,17 62,23c11,5 26,7 31,3c11,-7 22,25 22,67l0,27l-75,1c-273,2 -345,1 -347,-7c-2,-5 30,-14 71,-21c45,-7 81,-19 92,-30c21,-22 39,-127 29,-163c-4,-14 -4,-48 1,-75c8,-52 -7,-155 -23,-155c-4,0 -8,-4 -8,-10c0,-5 7,-10 15,-10c20,0 20,-65 0,-104c-10,-18 -12,-32 -6,-36c6,-3 13,-24 16,-46c6,-37 0,-59 -33,-128c-2,-4 5,-5 17,-1c25,8 28,-10 6,-39c-19,-25 -19,-36 0,-36c12,0 15,-24 16,-147c1,-82 1,-168 2,-193c1,-94 -6,-134 -29,-157c-25,-25 -90,-40 -113,-26c-9,5 -47,11 -86,12c-38,1 -83,9 -99,17c-16,8 -35,14 -43,14c-23,0 -38,47 -26,80c6,15 8,40 6,54c-4,18 3,35 22,58l28,33l-26,3c-29,4 -35,20 -15,40c9,9 7,16 -6,31c-17,19 -17,21 0,51c16,27 17,32 4,40c-8,5 -16,24 -17,42c-1,18 -2,40 -3,48c-1,8 -1,69 -1,135c0,66 -2,145 -4,174c-3,39 1,63 13,83c12,20 13,31 6,36c-6,4 -14,46 -16,94c-5,70 -3,89 10,102c15,14 15,17 -2,29c-14,10 -15,18 -7,39c7,20 7,29 -3,37c-16,13 -26,4 -26,-22c0,-11 -8,-29 -17,-39c-16,-18 -16,-18 0,-12c33,12 13,-55 -25,-84c-10,-7 -18,-17 -18,-23c0,-5 9,0 20,11c39,39 66,18 34,-28c-14,-20 -14,-23 0,-28c25,-10 19,-31 -14,-44c-16,-7 -35,-18 -41,-26c-6,-8 -20,-14 -30,-14c-20,0 -49,-36 -49,-62c0,-13 14,-4 53,32c47,44 92,69 104,56c8,-8 -8,-46 -18,-46c-16,0 -41,-29 -34,-39c3,-6 12,-8 20,-4c8,3 15,1 15,-4c0,-12 -50,-59 -70,-66c-9,-3 -5,-6 10,-6c15,-1 32,5 38,11c10,10 15,10 22,-2c14,-21 12,-36 -5,-54c-19,-18 -20,-37 -1,-30c16,6 29,-22 19,-39c-4,-7 -6,-35 -5,-62c3,-40 -1,-56 -19,-79l-22,-28l21,6c33,11 29,-29 -5,-51c-16,-10 -31,-22 -35,-27c-9,-14 -46,-18 -53,-6c-4,6 -17,2 -33,-11l-27,-21l-3,23c-3,16 4,29 22,42c33,24 33,37 1,37c-30,0 -31,12 -4,56c18,30 19,35 5,40c-22,8 -20,23 7,53c12,14 15,20 6,13c-14,-10 -19,-8 -34,14c-17,26 -17,26 24,67c42,41 49,68 8,29c-13,-12 -29,-22 -35,-22c-16,0 -15,25 2,39c14,12 10,57 -5,67c-16,10 -9,55 12,86l21,29l-21,6c-17,4 -20,10 -15,27c7,24 52,65 72,66c9,0 10,4 1,18c-11,18 -13,17 -35,-5c-13,-13 -28,-23 -34,-23c-18,0 -11,49 10,62c11,7 20,21 20,30c0,10 17,33 38,53c20,19 31,35 24,35c-7,0 -15,-7 -18,-15c-7,-17 -74,-58 -82,-50c-9,8 50,61 77,70c19,6 21,9 10,16c-11,8 -8,15 16,35c17,14 42,32 58,40c22,12 27,12 27,1c0,-18 -29,-44 -54,-48c-27,-5 -33,-29 -7,-29c11,0 23,5 26,10c3,6 17,10 29,10c18,0 25,7 29,26c11,57 2,64 -82,65c-42,0 -134,1 -204,2c-71,1 -131,-2 -134,-6zm397,-991c0,-7 -7,-19 -15,-26c-19,-16 -19,-34 0,-27c20,8 28,-8 10,-23c-8,-7 -15,-18 -15,-24c-1,-18 -81,-51 -89,-37c-5,8 -13,5 -26,-9c-25,-27 -32,-25 -40,10c-5,23 -1,37 21,64c16,19 39,38 53,41c13,3 36,15 49,26c29,22 52,25 52,5zm630,2c0,-6 -10,-23 -22,-36l-23,-25l23,6c46,11 15,-43 -42,-74c-43,-23 -46,-23 -46,-4c0,10 -8,6 -25,-10c-32,-33 -45,-31 -45,6c0,38 42,95 77,104c15,3 38,15 51,26c28,21 52,25 52,7zm-630,-177c0,-10 -40,-51 -99,-101c-37,-32 -53,-60 -33,-60c4,0 28,20 52,45c38,38 80,59 80,39c0,-15 -36,-64 -47,-64c-7,0 -22,-13 -35,-30c-18,-26 -28,-30 -66,-30l-45,0l6,42c4,31 15,50 41,74c20,18 45,35 56,39c11,3 20,10 20,15c0,5 12,15 28,23c33,18 42,20 42,8zm630,1c0,-10 -19,-29 -98,-99c-34,-30 -49,-50 -43,-56c6,-6 27,7 57,37c45,43 84,60 84,35c0,-11 -68,-79 -80,-79c-4,0 -10,-9 -13,-20c-4,-16 -14,-20 -51,-20l-46,0l0,40c0,50 10,60 149,152c29,20 41,22 41,10z"/>
    <path stroke="null" stroke-width="0" id="svg_30" d="m335529.48243,-243030.60369c7,-8 7,-18 2,-27c-16,-25 -11,-45 19,-90c33,-49 93,-90 133,-90c51,0 73,79 42,146c-23,48 -64,67 -131,62c-29,-3 -53,-1 -53,4c0,4 -5,8 -11,8c-8,0 -8,-4 -1,-13z"/>
    <path stroke="null" stroke-width="0" id="svg_31" d="m333441.48243,-243234.60369c-64,-7 -154,-43 -199,-78c-24,-19 -47,-35 -51,-35c-9,0 -70,-95 -70,-109c0,-5 -9,-19 -21,-29c-11,-11 -22,-37 -25,-58c-3,-22 -9,-55 -14,-74c-5,-19 -12,-66 -16,-103c-4,-37 -10,-70 -15,-73c-9,-5 -4,-24 14,-61c6,-13 8,-26 4,-29c-3,-4 3,-24 13,-45c11,-21 20,-47 20,-57c0,-27 28,-79 45,-86c8,-3 15,-11 15,-19c0,-15 110,-106 160,-132c80,-42 235,-26 368,37c46,21 75,45 112,89c29,34 50,70 50,83c0,13 6,36 14,51c16,31 11,103 -10,124c-11,12 -16,12 -29,1c-14,-11 -15,-26 -10,-87c7,-66 5,-78 -19,-126c-16,-35 -41,-64 -69,-84c-53,-38 -191,-78 -239,-69c-42,8 -138,97 -138,129c0,12 -7,33 -16,45c-9,13 -14,33 -10,45c3,11 0,27 -6,35c-18,21 -22,173 -6,184c7,5 101,8 208,8c232,0 233,0 287,6l42,5l7,56c10,81 -11,185 -55,267c-43,81 -112,136 -200,161c-31,8 -64,20 -73,25c-10,6 -21,9 -25,8c-5,0 -24,-3 -43,-5zm87,-49c33,-9 60,-61 68,-132c4,-34 11,-64 16,-67c4,-3 3,-17 -3,-31c-9,-20 -9,-27 1,-33c8,-5 13,-38 14,-97l2,-89l-173,-3c-154,-2 -173,-1 -179,14c-12,32 16,214 37,244c11,15 20,33 20,39c0,6 5,11 10,11c6,0 10,11 10,24c0,14 5,28 10,31c6,3 10,15 10,26c0,10 5,19 11,19c6,0 24,11 41,25c29,25 62,30 105,19zm-257,-122c0,-5 -10,-14 -22,-21c-21,-10 -21,-11 -2,-6c19,5 21,1 20,-42c-1,-27 -5,-54 -10,-61c-4,-7 -5,-23 -2,-36c6,-24 -1,-30 -76,-60c-46,-18 -54,-56 -13,-56c14,0 25,-4 25,-10c0,-5 7,-7 15,-4c8,4 15,12 15,20c0,7 -6,11 -14,8c-8,-3 -17,-1 -21,5c-3,6 -1,11 5,11c6,0 9,4 5,9c-7,12 31,25 45,16c16,-10 12,-72 -5,-79c-18,-7 -20,-47 -2,-43c7,1 13,-12 15,-37c3,-33 -1,-43 -32,-71c-20,-18 -44,-36 -53,-40c-15,-5 -15,-7 -3,-15c10,-7 11,-10 3,-10c-7,0 -13,-6 -13,-14c0,-7 -9,-16 -20,-19c-13,-3 -20,0 -20,8c0,7 -5,15 -12,17c-19,7 -25,55 -16,133c2,18 -3,35 -11,41c-13,10 -13,15 0,35c11,16 13,33 8,52c-8,31 7,96 26,112c8,5 15,21 17,35c2,16 11,26 28,30c18,4 25,13 25,30c0,17 11,30 40,46c45,25 55,28 55,16zm-2,-591c7,-4 15,-20 16,-35c2,-14 11,-35 20,-45c9,-9 16,-27 16,-39c0,-12 4,-22 8,-22c4,0 28,-18 52,-40c32,-29 39,-40 25,-38c-11,2 -27,8 -35,13c-8,5 -35,12 -60,15c-34,4 -47,10 -55,27c-5,13 -14,22 -20,22c-42,-5 -56,28 -23,53l23,18l-43,0c-31,0 -42,4 -38,13c3,6 9,20 12,30c4,10 12,16 20,13c7,-3 18,2 24,10c14,16 38,18 58,5z"/>
    <path stroke="null" stroke-width="0" id="svg_32" d="m339154.48243,-243238.60369c-59,-10 -140,-46 -198,-88c-38,-28 -53,-47 -91,-116c-9,-16 -24,-38 -33,-49c-17,-19 -35,-103 -47,-216c-4,-36 -10,-69 -14,-75c-10,-12 10,-107 33,-159c10,-22 15,-47 12,-56c-3,-11 1,-20 10,-24c8,-3 15,-12 15,-19c0,-8 9,-22 20,-32c11,-10 20,-24 20,-32c0,-7 4,-13 9,-13c6,0 22,-11 36,-24c14,-13 50,-41 80,-61c44,-31 65,-38 118,-42c60,-5 192,16 236,37c79,37 99,49 125,75c17,17 38,40 46,50c56,74 81,223 41,244c-34,19 -53,-24 -40,-92c13,-72 -10,-136 -69,-186c-55,-48 -153,-84 -227,-85c-44,-1 -56,4 -98,39c-51,42 -77,81 -77,115c0,11 -4,20 -9,20c-13,0 -20,35 -10,53c6,10 4,17 -7,21c-12,4 -15,14 -11,34c3,15 1,48 -4,74c-8,33 -7,53 1,68c11,21 17,21 218,21c114,0 218,0 232,0c67,-1 85,8 98,49c6,22 12,51 12,66c0,51 -42,189 -71,232c-16,24 -29,47 -29,51c0,16 -125,88 -175,101c-27,7 -54,17 -59,21c-11,10 -21,10 -93,-2zm111,-49c30,-11 67,-66 65,-95c-1,-11 1,-27 4,-35c12,-33 17,-99 7,-105c-15,-9 -12,-25 5,-25c10,0 15,-10 15,-32c0,-18 0,-45 1,-60c0,-16 0,-44 -1,-63l-2,-35l-170,1c-195,0 -193,-1 -177,99c5,30 10,71 11,90c2,33 39,107 61,121c5,4 7,11 4,16c-4,6 0,19 8,29c8,10 15,27 15,37c0,9 6,17 14,17c8,0 16,7 20,15c11,30 74,43 120,25zm-264,-119c0,-5 -16,-19 -36,-31c-19,-12 -33,-24 -30,-27c2,-3 18,5 35,18c17,12 32,21 35,18c6,-7 -16,-164 -25,-175c-5,-7 -23,-14 -39,-17c-55,-12 -89,-67 -40,-67c10,0 20,-6 23,-12c3,-10 10,-8 23,5c18,16 18,17 -4,17c-12,0 -22,5 -22,10c0,6 5,10 11,10c5,0 8,4 5,9c-6,8 15,21 35,21c17,0 10,-78 -7,-88c-12,-7 -14,-14 -7,-27c5,-9 14,-15 19,-13c5,1 10,-14 12,-35c3,-32 -2,-42 -33,-71c-20,-19 -43,-37 -51,-40c-8,-3 -12,-10 -9,-16c3,-5 1,-10 -5,-10c-7,0 -10,-7 -6,-15c3,-8 1,-15 -3,-15c-5,0 -17,-3 -25,-6c-12,-5 -15,-2 -10,10c4,10 1,16 -9,16c-14,0 -34,70 -27,95c16,62 17,75 4,75c-18,0 -18,21 0,45c10,14 11,26 4,46c-11,32 4,100 27,119c8,7 15,21 15,32c0,12 11,23 30,29c21,8 29,16 27,32c-1,15 9,27 38,44c46,26 45,26 45,14zm8,-593c5,-7 13,-27 16,-45c4,-17 14,-37 22,-44c8,-6 14,-19 14,-28c1,-9 23,-34 50,-56c31,-25 44,-41 35,-43c-8,-2 -25,4 -37,12c-12,9 -39,16 -60,16c-39,0 -67,20 -69,48c0,10 -3,12 -6,5c-3,-9 -10,-10 -24,-3c-23,13 -25,38 -4,46c28,11 15,24 -25,24c-40,0 -53,13 -25,24c8,3 15,12 15,20c0,9 6,13 13,10c8,-3 20,2 27,11c15,18 44,20 58,3z"/>
    <path stroke="null" stroke-width="0" id="svg_33" d="m340316.48243,-243254.60369c-11,-3 -57,-21 -103,-40c-95,-40 -118,-38 -108,9l6,31l-62,-7c-211,-22 -272,-27 -292,-22c-30,7 -66,-4 -66,-20c0,-10 14,-14 48,-14c42,0 52,-4 84,-37c39,-42 68,-92 68,-120c0,-10 -7,-29 -16,-42c-14,-19 -14,-25 -3,-32c11,-6 11,-14 0,-44c-8,-24 -9,-40 -3,-48c7,-8 6,-24 -3,-49c-19,-57 -26,-98 -15,-98c17,0 10,-54 -10,-80c-24,-31 -25,-36 -2,-42c14,-4 17,-15 16,-70c-1,-42 -8,-75 -18,-91c-11,-16 -15,-34 -11,-50c8,-32 -6,-40 -104,-60c-40,-9 -76,-18 -79,-22c-19,-18 46,-25 258,-25c129,0 279,-3 334,-7c93,-6 98,-5 94,13c-3,17 -13,19 -86,20c-97,1 -123,17 -141,89c-16,64 -14,98 9,123c11,12 20,26 20,32c0,5 -9,10 -20,10c-29,0 -26,38 6,71c27,28 25,61 -2,38c-8,-6 -14,-10 -14,-8c-6,83 -4,362 3,366c5,3 7,16 4,30c-9,51 144,169 210,161c39,-4 38,-22 -2,-44c-68,-36 -83,-115 -35,-182c37,-49 56,-57 107,-43c77,21 119,74 107,136c-3,20 -10,38 -15,41c-5,3 -9,15 -9,28c0,28 -43,69 -94,90c-21,9 -39,15 -40,15c0,-1 -10,-3 -21,-6zm-235,-394c0,-5 -20,-18 -45,-30c-25,-12 -45,-27 -45,-35c0,-8 -17,-33 -37,-56l-38,-43l35,28c119,94 130,99 130,52c0,-21 -53,-70 -120,-110c-9,-6 -15,-16 -12,-23c2,-6 -2,-12 -9,-12c-7,0 -10,-3 -7,-6c4,-3 33,15 65,40c32,25 62,46 66,46c5,0 7,-15 5,-32c-2,-23 -11,-36 -28,-45c-14,-7 -18,-13 -10,-13c8,0 21,-14 29,-31c12,-27 11,-32 -6,-48c-11,-10 -29,-24 -42,-30c-16,-9 -20,-16 -12,-25c13,-15 4,-26 -21,-26c-10,0 -18,-3 -18,-8c0,-13 -39,-32 -45,-22c-3,5 9,17 27,26c29,15 30,18 14,24c-16,5 -11,12 32,46c28,21 51,42 52,47c1,17 -22,4 -82,-47c-34,-30 -66,-52 -70,-50c-22,14 -4,47 42,80c28,20 48,39 45,42c-2,3 -13,-2 -23,-11c-23,-21 -32,-21 -32,-2c0,9 -6,12 -15,9c-18,-7 -21,21 -4,32c8,4 7,9 -2,15c-10,6 -9,12 5,28c17,19 17,21 3,21c-11,0 -17,8 -17,24c0,17 12,31 43,51c23,14 34,24 25,21c-31,-9 -28,10 5,34c65,49 117,66 117,39z"/>
    <path stroke="null" stroke-width="0" id="svg_34" d="m330524.48243,-243289.60369c-37,-41 -107,-157 -128,-218c-19,-52 -14,-140 11,-205c8,-22 17,-48 21,-57c3,-10 13,-18 23,-18c10,0 25,-7 34,-15c8,-8 28,-15 45,-15c16,0 67,-9 113,-21c46,-11 106,-25 133,-31c28,-5 56,-15 64,-21c7,-6 23,-16 34,-22c48,-24 75,-122 55,-203c-12,-50 -59,-96 -117,-113c-34,-10 -47,-9 -98,11c-113,43 -182,80 -199,105c-9,14 -23,60 -31,103c-15,78 -61,190 -72,175c-27,-33 -55,-363 -32,-377c5,-3 20,8 32,26c13,18 28,36 34,40c23,17 61,6 111,-33c72,-55 142,-80 224,-80c69,0 100,10 165,52c49,32 68,54 88,99c18,41 30,173 17,186c-5,5 -11,35 -13,67c-4,45 -10,62 -26,73c-11,8 -21,21 -21,28c0,8 -7,17 -16,20c-8,3 -12,11 -9,17c4,6 -2,13 -13,16c-11,3 -18,11 -16,18c4,9 -15,14 -67,17c-52,4 -74,10 -81,22c-7,12 -24,16 -66,16c-32,0 -66,6 -77,13c-11,8 -35,17 -54,21c-18,3 -48,15 -67,26c-63,40 -54,141 20,225c50,56 93,66 179,41c70,-20 106,-50 140,-118c15,-29 43,-71 62,-93c29,-33 36,-38 45,-25c6,8 8,29 4,45c-7,37 -7,71 2,160l6,70l-24,-23c-14,-12 -42,-31 -63,-42l-37,-19l-33,24c-47,37 -139,65 -210,65c-56,0 -64,-3 -92,-32zm12,-358c-3,-5 3,-10 14,-10c11,0 23,5 26,10c9,14 58,13 73,-2c21,-21 13,-38 -18,-45c-17,-3 -33,-10 -36,-14c-9,-16 20,-10 60,12c21,11 45,18 54,16c11,-2 -3,-14 -38,-30c-41,-20 -64,-25 -91,-21c-22,4 -39,2 -43,-5c-10,-16 -51,-14 -66,4c-6,8 -9,19 -5,26c5,8 1,9 -14,4c-15,-4 -21,-2 -21,8c0,8 23,23 53,35c63,25 60,24 52,12zm305,-75c0,-11 7,-14 25,-9c14,3 25,2 25,-4c0,-5 -12,-13 -27,-17c-16,-4 -23,-9 -16,-12c6,-2 28,0 47,6c33,9 39,7 66,-21c17,-16 30,-35 30,-42c0,-7 10,-32 21,-56c20,-41 20,-44 4,-56c-9,-7 -14,-17 -11,-22c3,-5 -5,-19 -18,-31c-18,-17 -26,-19 -31,-10c-5,7 -1,17 9,25c22,16 11,37 -15,29c-24,-8 -37,20 -21,46c16,26 15,27 -13,21c-13,-2 -36,-1 -50,2c-21,5 -24,11 -19,31c7,30 -3,31 -45,8c-41,-24 -53,-7 -16,23c37,29 22,31 -40,4c-54,-23 -75,-25 -75,-7c0,14 80,57 105,57c8,0 15,7 15,15c0,13 25,34 43,35c4,0 7,-7 7,-15z"/>
    <path stroke="null" stroke-width="0" id="svg_35" d="m327196.48243,-243276.60369c-11,-5 -39,-15 -63,-22c-71,-21 -192,-146 -192,-198c0,-27 53,-92 91,-112c52,-26 91,-24 129,7c80,68 77,153 -5,181c-40,13 -44,44 -9,72c15,11 34,21 43,21c9,0 27,7 39,16c16,11 31,13 55,8c17,-5 57,-8 87,-9c48,0 56,-3 67,-25c20,-39 16,-123 -6,-151c-15,-19 -17,-28 -8,-47c8,-17 8,-29 -1,-42c-6,-10 -9,-34 -5,-53c11,-69 -24,-90 -172,-102c-104,-9 -174,-27 -229,-59c-37,-21 -50,-39 -84,-108c-35,-74 -39,-88 -32,-128c10,-57 29,-110 41,-110c5,0 9,-6 9,-12c1,-21 81,-73 145,-95c91,-30 165,-30 217,2c55,32 79,53 101,88c23,36 39,34 68,-7c32,-46 66,-71 120,-92c74,-28 108,-27 169,4c76,39 114,107 129,229c12,95 2,163 -24,163c-18,0 -29,-58 -21,-107c8,-52 8,-52 2,-106c-12,-100 -68,-162 -123,-135c-47,23 -64,58 -67,134c-1,38 -5,75 -9,81c-5,7 1,21 13,33c23,23 26,40 6,40c-11,0 -13,19 -9,98c2,53 5,117 6,142c2,52 11,70 35,71c10,1 7,4 -8,8c-22,6 -26,14 -33,76c-5,39 -8,78 -8,87c0,9 -7,22 -15,29c-8,6 -14,17 -14,23c0,25 -48,56 -120,79c-81,26 -278,43 -315,28zm-65,-177c0,-11 6,-13 19,-9c13,4 24,-1 35,-17c23,-32 20,-46 -15,-79c-26,-24 -40,-29 -81,-29c-45,0 -49,2 -43,20c5,16 2,20 -19,20c-18,0 -24,4 -20,15c4,8 -1,17 -10,21c-24,9 -19,24 7,24c13,0 38,11 57,25c38,28 70,33 70,9zm500,-39c0,-19 -9,-29 -35,-42c-19,-9 -35,-21 -35,-27c0,-5 -7,-18 -17,-28c-23,-25 -5,-22 42,7c22,13 44,25 49,25c4,0 5,-21 1,-47c-5,-27 -7,-58 -7,-71c2,-24 -34,-72 -53,-72c-6,0 -12,-7 -12,-15c0,-12 6,-12 34,5c32,19 33,19 33,1c0,-20 -60,-71 -83,-71c-8,0 -17,-7 -21,-15c-7,-19 -66,-21 -66,-2c0,7 7,22 15,33c19,25 19,31 -5,37c-24,6 -26,30 -5,51c8,8 15,26 15,40c0,13 6,27 13,29c6,2 0,3 -15,1c-38,-5 -37,19 2,47c24,19 27,25 17,37c-10,12 -9,16 3,20c8,3 28,18 43,34c16,15 33,28 38,28c5,0 9,5 9,10c0,6 9,10 20,10c15,0 20,-7 20,-25zm-213,-265c7,-14 8,-30 3,-39c-4,-9 -4,-74 1,-144c4,-71 4,-138 -1,-150c-16,-41 -81,-107 -127,-127c-55,-24 -67,-25 -84,-4c-20,24 -47,141 -37,159c6,9 5,15 -2,15c-20,0 -23,31 -5,50c16,18 17,20 2,20c-22,0 -23,43 -2,60c9,7 13,21 10,31c-7,21 14,59 33,59c9,0 11,7 7,19c-8,26 37,50 106,58c27,3 52,10 55,15c9,14 28,4 41,-22zm-276,-39c20,-18 20,-18 -18,-51c-30,-27 -33,-32 -15,-28c17,5 22,2 22,-12c0,-10 -7,-23 -15,-30c-13,-10 -13,-15 -3,-21c10,-6 10,-17 1,-50c-9,-36 -9,-45 3,-54c12,-9 9,-16 -21,-45c-19,-18 -35,-39 -35,-44c1,-6 9,-1 19,12c11,12 29,22 40,22c17,0 21,-6 21,-30c0,-16 -4,-30 -10,-30c-5,0 -10,-8 -10,-19c0,-22 -22,-43 -36,-33c-6,4 -16,22 -23,40c-8,18 -21,32 -30,32c-14,0 -14,-2 -1,-10c12,-7 12,-12 3,-21c-10,-10 -14,-8 -19,7c-4,10 -18,28 -31,40c-53,46 -66,116 -32,162c9,12 15,31 12,42c-6,22 33,90 51,90c7,0 21,9 30,19c16,17 28,23 69,30c4,0 17,-7 28,-18zm459,-101c0,-5 -9,-14 -21,-20c-11,-7 -19,-14 -16,-17c3,-2 14,1 26,8c27,18 39,4 17,-20c-11,-12 -14,-21 -7,-26c16,-9 13,-41 -4,-55c-20,-17 -19,-24 8,-35c19,-9 22,-16 19,-54c-2,-25 -8,-53 -13,-63c-16,-30 -55,-22 -85,17c-23,31 -25,39 -15,61c17,38 14,45 -16,38c-28,-5 -28,-5 7,24c19,17 33,33 30,35c-3,3 -20,9 -38,14c-31,8 -32,9 -17,31c9,12 24,22 33,22c9,0 30,11 46,25c31,26 46,31 46,15z"/>
    <path stroke="null" stroke-width="0" id="svg_36" d="m329556.48243,-243277.60369c-11,-4 -39,-14 -63,-21c-77,-23 -182,-135 -184,-197c-1,-40 41,-93 97,-121c39,-20 50,-21 74,-11c36,15 87,67 101,104c15,39 -13,87 -60,102c-45,15 -51,44 -14,73c15,11 34,21 43,21c9,0 27,7 39,16c16,11 32,13 55,8c17,-4 55,-6 82,-5c70,2 78,-6 83,-83c3,-51 0,-72 -13,-92c-13,-21 -15,-32 -7,-49c8,-17 7,-28 -3,-42c-9,-12 -12,-33 -8,-64c5,-42 3,-49 -20,-63c-15,-11 -63,-21 -124,-27c-141,-14 -191,-26 -249,-59c-42,-24 -56,-39 -78,-87c-15,-32 -33,-70 -40,-84c-13,-26 -12,-39 10,-133c4,-15 31,-52 60,-82c44,-44 65,-57 122,-73c38,-12 95,-21 126,-21c51,0 64,5 115,40c31,22 65,53 74,70c23,39 41,38 70,-5c30,-43 65,-72 103,-81c16,-4 38,-13 49,-20c30,-21 74,-16 135,14c79,40 116,107 130,233c11,99 3,154 -20,154c-20,0 -34,-90 -20,-124c22,-54 -23,-195 -69,-218c-33,-16 -80,4 -103,43c-24,41 -33,203 -12,211c18,7 19,33 1,33c-11,0 -13,20 -10,88c9,196 13,221 41,223c10,1 6,4 -8,8c-18,5 -25,14 -26,32c-1,63 -18,150 -30,160c-8,6 -14,17 -14,23c-2,51 -146,102 -310,110c-58,3 -114,1 -125,-4zm-65,-176c0,-11 6,-15 20,-11c24,6 50,-17 50,-45c0,-11 -14,-33 -31,-49c-26,-24 -40,-29 -81,-29c-45,0 -49,2 -43,20c5,16 2,20 -14,20c-14,0 -21,6 -21,20c0,11 -7,20 -15,20c-8,0 -15,5 -15,10c0,6 12,10 28,10c15,1 41,12 57,25c34,28 65,32 65,9zm503,-26c7,-20 -12,-48 -38,-58c-12,-5 -30,-23 -38,-40l-16,-31l46,25c25,14 47,26 49,26c2,0 2,-33 -1,-72c-4,-65 -7,-76 -34,-100c-33,-30 -30,-46 6,-23c21,14 23,14 23,-4c0,-20 -59,-71 -83,-71c-8,0 -17,-7 -21,-15c-7,-20 -66,-20 -66,-1c0,8 7,21 15,30c8,8 15,19 15,25c0,6 -7,11 -15,11c-10,0 -15,10 -15,30c0,20 5,30 15,30c11,0 13,7 9,29c-4,20 -2,31 7,34c8,2 2,2 -13,0c-38,-6 -37,20 2,49c20,15 27,25 20,32c-14,14 -12,26 4,26c8,0 25,12 38,28c41,46 82,64 91,40zm-210,-286c3,-15 3,-31 0,-36c-9,-14 -3,-206 8,-233c18,-49 -63,-151 -150,-188l-43,-19l-23,27c-25,28 -50,123 -39,150c3,10 1,17 -5,17c-18,0 -13,48 7,59c16,10 16,10 -1,11c-25,0 -32,26 -14,54c9,13 13,32 11,43c-4,15 4,28 28,47c18,14 28,26 21,26c-19,0 -4,26 21,38c13,6 45,14 72,17c27,4 55,11 63,15c22,12 38,2 44,-28zm-293,-28c0,-8 4,-13 9,-9c5,3 12,1 15,-4c3,-5 -10,-23 -29,-40c-30,-26 -33,-31 -15,-31c24,0 26,-22 5,-40c-17,-14 -21,-35 -5,-25c15,9 12,-32 -5,-65c-8,-15 -20,-31 -27,-34c-7,-3 -1,-4 14,-1c40,8 41,-8 3,-45c-19,-19 -35,-38 -35,-44c0,-5 10,0 23,12c34,32 57,29 57,-8c0,-20 -5,-30 -15,-30c-9,0 -15,-6 -14,-12c3,-28 -2,-38 -21,-38c-14,0 -20,7 -20,23c0,29 -18,47 -46,47c-28,0 -68,36 -79,70c-12,38 -7,89 9,106c10,9 13,25 10,43c-9,46 87,132 159,140c4,1 7,-6 7,-15zm470,-103c0,-6 -10,-17 -22,-25c-18,-13 -19,-16 -5,-16c9,0 17,5 17,10c0,6 9,10 20,10c26,0 26,-16 -1,-31c-15,-8 -18,-14 -10,-22c14,-14 15,-57 1,-57c-5,0 -10,-7 -10,-15c0,-8 7,-15 15,-15c8,0 15,-3 16,-7c0,-5 2,-15 4,-25c2,-9 -1,-37 -7,-62c-9,-42 -12,-46 -38,-46c-21,0 -36,9 -55,34c-24,32 -25,35 -10,69c8,19 23,38 32,40c10,2 7,3 -7,1c-14,-1 -33,-6 -42,-9c-33,-13 -18,10 32,50c47,37 48,39 29,53c-18,13 -23,12 -40,-7c-18,-19 -18,-21 -3,-21c10,0 15,-2 12,-5c-3,-3 -19,-2 -36,1c-30,6 -31,7 -15,30c8,13 23,24 32,24c9,0 30,11 46,25c32,26 45,31 45,16z"/>
    <path stroke="null" stroke-width="0" id="svg_37" d="m336844.48243,-243281.60369c-23,-6 -45,-14 -49,-19c-4,-4 -15,-7 -23,-7c-22,0 -115,-82 -141,-125c-42,-67 -18,-131 66,-180c57,-34 77,-32 125,13c87,77 83,157 -8,181c-38,10 -42,43 -7,70c15,11 34,21 43,21c9,0 27,7 39,16c16,11 32,13 55,8c17,-4 55,-6 83,-5c63,2 79,-11 88,-74c8,-50 2,-81 -22,-108c-13,-15 -14,-22 -4,-38c10,-15 10,-24 0,-42c-7,-12 -11,-45 -10,-73c3,-47 1,-51 -25,-63c-15,-7 -82,-19 -148,-27c-136,-15 -167,-23 -226,-56c-35,-19 -48,-37 -83,-109l-42,-86l15,-67c12,-58 21,-75 60,-115c58,-60 138,-93 238,-99l72,-4l63,45c35,25 70,56 77,71c20,36 31,33 72,-17c20,-23 54,-51 75,-61c21,-11 51,-25 66,-33c39,-19 71,-16 133,13c45,21 63,38 91,81c30,46 35,66 44,151c11,102 4,157 -21,157c-17,0 -31,-103 -17,-122c14,-17 -7,-137 -29,-176c-38,-65 -107,-65 -145,-1c-24,41 -33,203 -12,211c18,7 19,33 1,33c-14,0 -15,42 -2,195c8,100 12,115 33,116c10,0 5,5 -11,11c-22,8 -27,15 -24,30c8,29 -13,140 -29,159c-8,8 -14,20 -14,25c-3,68 -310,137 -447,100zm-53,-172c0,-12 6,-15 25,-10c18,5 27,1 35,-13c18,-34 11,-59 -23,-85c-39,-30 -117,-37 -117,-12c0,8 6,17 13,19c6,3 -3,6 -20,6c-24,1 -33,6 -33,17c0,9 -8,23 -17,31c-17,13 -16,14 7,9c18,-3 35,3 60,24c39,33 70,39 70,14zm505,-24c12,-19 -6,-48 -34,-58c-16,-6 -35,-24 -44,-42l-16,-31l46,25c25,14 47,26 49,26c2,0 2,-32 0,-72c-3,-66 -6,-74 -35,-100c-17,-15 -28,-28 -24,-28c5,0 1,-5 -7,-10c-8,-5 -10,-10 -4,-10c6,0 23,9 37,20c15,12 28,16 32,11c7,-13 -16,-51 -31,-51c-6,0 -17,-7 -24,-15c-7,-8 -21,-15 -31,-15c-11,0 -19,-7 -19,-15c0,-10 -11,-15 -35,-15c-38,0 -46,17 -20,44c8,8 15,19 15,25c0,6 -7,11 -15,11c-10,0 -15,10 -15,30c0,20 5,30 15,30c11,0 14,7 9,24c-4,17 0,27 13,35c15,10 12,11 -14,6c-43,-9 -45,16 -3,47c18,13 27,25 21,31c-6,6 6,23 29,46c63,59 92,73 105,51zm-214,-279c1,-9 0,-64 -1,-123c-1,-60 3,-122 10,-142c9,-29 8,-40 -9,-73c-25,-50 -85,-105 -140,-128l-43,-19l-23,27c-25,28 -50,123 -39,150c3,10 1,17 -5,17c-18,0 -13,48 7,59c15,9 15,10 1,11c-24,0 -32,29 -15,55c8,12 12,32 9,43c-3,14 4,26 26,43c19,14 27,25 20,30c-19,11 43,47 96,54c28,4 56,11 64,15c20,11 41,1 42,-19zm-291,-37c0,-10 6,-14 15,-10c26,10 16,-11 -20,-42l-34,-31l25,-3l26,-3l-21,-27c-22,-28 -27,-43 -11,-33c26,16 3,-79 -24,-98c-6,-4 1,-5 17,-1c36,8 35,-7 -4,-46c-17,-17 -29,-33 -27,-36c3,-2 11,2 18,11c7,8 21,15 31,15c14,0 19,-7 19,-30c0,-16 -4,-30 -9,-30c-5,0 -11,-10 -13,-22c-4,-32 -48,-39 -48,-8c0,27 -22,50 -49,50c-11,0 -32,11 -47,25c-34,32 -47,124 -21,150c11,10 14,25 11,44c-9,46 87,132 159,140c4,1 7,-6 7,-15zm480,-210c0,-13 -4,-24 -10,-24c-18,0 -11,-28 9,-33c21,-5 25,-41 10,-99c-13,-49 -43,-51 -88,-4l-32,33l17,36c10,20 24,38 33,40c9,2 7,3 -4,1c-11,-1 -30,-6 -42,-9c-39,-12 -25,10 33,53c60,44 74,46 74,6z"/>
    <path stroke="null" stroke-width="0" id="svg_38" d="m340896.48243,-243280.60369c-16,-5 -48,-16 -70,-24c-69,-24 -175,-141 -175,-193c0,-59 110,-150 165,-136c52,13 115,88 115,136c0,27 -52,80 -78,80c-49,0 -26,75 26,85c15,3 41,13 58,21c20,10 40,13 60,8c16,-4 54,-8 84,-8c48,-1 56,-4 67,-26c20,-40 16,-117 -8,-151c-17,-24 -18,-33 -9,-44c10,-12 10,-21 0,-44c-6,-16 -9,-38 -6,-49c11,-34 -4,-73 -33,-83c-14,-6 -80,-17 -147,-25c-204,-24 -246,-47 -305,-168c-40,-80 -40,-81 -29,-141c20,-106 81,-167 203,-205c129,-41 209,-20 292,74c22,25 45,46 51,46c6,0 24,-19 41,-43c30,-41 50,-54 136,-91c53,-22 75,-20 144,14c54,27 64,37 93,92c27,54 32,75 37,168c5,92 3,107 -11,120c-28,23 -35,-3 -33,-130c1,-79 -3,-123 -12,-140c-41,-77 -100,-93 -145,-40c-26,32 -33,57 -39,152c-3,47 0,61 15,75c22,20 23,33 2,33c-13,0 -15,13 -10,98c3,53 6,114 6,135c0,47 15,77 38,78c10,1 7,4 -8,8c-26,7 -33,32 -43,150c-2,19 -8,36 -15,39c-7,2 -12,11 -12,20c0,25 -39,57 -85,72c-22,7 -56,18 -75,26c-46,17 -246,25 -285,11zm-58,-173c3,-8 12,-13 21,-9c31,12 57,-48 34,-80c-17,-24 -64,-45 -102,-45c-37,0 -41,2 -35,20c5,17 2,20 -20,20c-14,0 -24,4 -20,9c3,5 -2,16 -10,24c-20,21 -19,30 4,24c12,-3 32,6 53,24c37,32 66,37 75,13zm503,-39c0,-19 -9,-29 -35,-42c-19,-9 -35,-21 -35,-27c0,-5 -7,-18 -17,-28c-23,-26 -2,-22 42,8c48,32 65,21 46,-31c-7,-19 -10,-44 -6,-55c7,-21 -30,-80 -50,-80c-7,0 -12,-7 -12,-15c0,-12 7,-11 34,6l33,21l0,-21c0,-22 -63,-71 -92,-71c-10,0 -18,-7 -18,-15c0,-10 -10,-15 -28,-15c-40,0 -44,9 -22,40c25,35 25,36 0,43c-24,6 -27,45 -4,54c9,3 14,13 11,25c-3,10 2,26 11,35c16,15 15,16 -11,9c-39,-9 -37,24 4,48c26,15 28,20 17,33c-11,13 -11,17 1,21c7,2 32,22 53,43c48,46 78,51 78,14zm-223,-247c6,-11 12,-132 16,-325c1,-43 -59,-115 -124,-148c-28,-14 -56,-25 -62,-25c-19,0 -47,33 -47,56c0,13 -4,25 -9,28c-15,9 -23,76 -11,91c8,9 7,14 -5,19c-19,7 -19,30 1,50c14,15 14,16 0,16c-18,0 -23,55 -6,65c6,4 10,14 8,23c-3,22 23,62 40,62c9,0 11,7 7,19c-8,26 37,50 106,58c27,3 52,10 55,14c8,13 22,11 31,-3zm-283,-54c3,-8 10,-13 15,-9c5,3 12,1 15,-4c3,-5 -11,-24 -31,-42c-30,-26 -33,-31 -15,-27c26,7 29,-9 8,-38c-10,-13 -11,-23 -4,-31c14,-17 2,-59 -23,-84l-20,-20l26,7c35,9 32,-12 -7,-54c-19,-19 -26,-30 -15,-27c9,4 17,11 17,17c0,5 10,8 23,6c16,-2 22,-10 22,-30c1,-17 -4,-28 -13,-28c-8,0 -11,-7 -7,-19c6,-20 -15,-44 -30,-33c-6,4 -17,20 -25,36c-19,36 -41,46 -33,15c4,-15 3,-20 -5,-15c-7,4 -12,12 -12,18c0,12 -50,58 -63,58c-5,0 -5,5 -2,10c4,6 2,17 -4,24c-16,19 -10,77 10,104c9,12 15,31 12,42c-6,23 33,90 52,90c8,0 18,7 23,15c4,9 21,20 38,24c41,13 41,13 48,-5zm471,-104c3,-5 -7,-16 -22,-24c-15,-8 -22,-15 -15,-16c7,0 21,5 32,12c26,16 40,0 16,-18c-16,-11 -17,-17 -8,-26c16,-16 15,-43 -3,-58c-20,-17 -19,-24 8,-35c23,-10 23,-17 11,-92c-7,-46 -34,-58 -68,-32c-41,32 -49,54 -35,94c10,27 19,35 39,36c18,1 20,3 7,6c-10,3 -32,-1 -48,-7c-16,-7 -33,-9 -37,-5c-4,4 -1,10 7,13c8,3 25,15 38,28c13,13 33,29 44,35l21,11l-21,14c-24,17 -43,10 -39,-14c2,-13 -5,-17 -29,-17c-18,0 -33,4 -33,9c0,15 32,46 48,46c8,0 27,11 44,25c33,28 35,29 43,15z"/>
   </g>
  </g>
  <path id="svg_42" d="m413,437.8" opacity="0.5" fill-opacity="null" stroke-opacity="null" stroke-width="1.5" stroke="#000" fill="#fff"/>
  <path id="svg_43" d="m454,433.8" opacity="0.5" fill-opacity="null" stroke-opacity="null" stroke-width="1.5" stroke="#000" fill="#fff"/>
 </g>
</svg>